<?xml version="1.0" encoding="utf-8"?>
<!-- Generator: Adobe Illustrator 21.0.2, SVG Export Plug-In . SVG Version: 6.00 Build 0)  -->
<svg version="1.1" id="Layer_1" xmlns="http://www.w3.org/2000/svg" xmlns:xlink="http://www.w3.org/1999/xlink" x="0px" y="0px"
	 viewBox="0 0 32 32" style="enable-background:new 0 0 32 32;" xml:space="preserve">
<g>
	<g>
		<path d="M6.1,13.7c-0.7,0-1.3,0.2-1.8,0.7c-0.5,0.4-0.7,1-0.7,1.7c0,0.7,0.2,1.3,0.7,1.7c0.5,0.4,1.1,0.6,1.8,0.6
			c0.7,0,1.3-0.2,1.8-0.6c0.5-0.4,0.7-1,0.7-1.7c0-0.7-0.2-1.3-0.7-1.7C7.5,13.9,6.9,13.7,6.1,13.7z M16,13.7
			c-0.7,0-1.3,0.2-1.8,0.7c-0.5,0.4-0.7,1-0.7,1.7c0,0.7,0.2,1.3,0.7,1.7c0.5,0.4,1.1,0.6,1.8,0.6c0.7,0,1.3-0.2,1.8-0.6
			c0.5-0.4,0.7-1,0.7-1.7c0-0.7-0.2-1.3-0.7-1.7C17.3,13.9,16.7,13.7,16,13.7z M27.6,14.3c-0.5-0.4-1.1-0.7-1.8-0.7
			c-0.7,0-1.3,0.2-1.8,0.7c-0.5,0.4-0.7,1-0.7,1.7c0,0.7,0.2,1.3,0.7,1.7c0.5,0.4,1.1,0.6,1.8,0.6c0.7,0,1.3-0.2,1.8-0.6
			c0.5-0.4,0.7-1,0.7-1.7C28.3,15.3,28.1,14.7,27.6,14.3z"/>
	</g>
</g>
</svg>
