<svg fill="#000000" xmlns="http://www.w3.org/2000/svg" viewBox="0 0 16 16" width="16px" height="16px"><path d="M 2 2 L 2 4 L 1.5 4 C 1.222656 4 1 4.222656 1 4.5 L 1 6.5 C 1 6.777344 1.222656 7 1.5 7 L 2 7 L 2 14 L 3 14 L 3 7 L 3.5 7 C 3.777344 7 4 6.777344 4 6.5 L 4 4.5 C 4 4.222656 3.777344 4 3.5 4 L 3 4 L 3 2 Z M 7 2 L 7 10 L 6.5 10 C 6.222656 10 6 10.222656 6 10.5 L 6 12.5 C 6 12.777344 6.222656 13 6.5 13 L 7 13 L 7 14 L 8 14 L 8 13 L 8.5 13 C 8.777344 13 9 12.777344 9 12.5 L 9 10.5 C 9 10.222656 8.777344 10 8.5 10 L 8 10 L 8 2 Z M 12 2 L 12 6 L 11.5 6 C 11.222656 6 11 6.222656 11 6.5 L 11 8.5 C 11 8.777344 11.222656 9 11.5 9 L 12 9 L 12 14 L 13 14 L 13 9 L 13.5 9 C 13.777344 9 14 8.777344 14 8.5 L 14 6.5 C 14 6.222656 13.777344 6 13.5 6 L 13 6 L 13 2 Z M 2 5 L 3 5 L 3 6 L 2 6 Z M 12 7 L 13 7 L 13 8 L 12 8 Z M 7 11 L 8 11 L 8 12 L 7 12 Z"/></svg>