<svg fill="#000000" xmlns="http://www.w3.org/2000/svg" viewBox="0 0 16 16" width="16px" height="16px"><path d="M 2.5 1 C 1.6774686 1 1 1.6774686 1 2.5 L 1 12.5 C 1 13.322531 1.6774686 14 2.5 14 L 12.5 14 C 13.322531 14 14 13.322531 14 12.5 L 14 2.5 C 14 1.6774686 13.322531 1 12.5 1 L 2.5 1 z M 2.5 2 L 12.5 2 C 12.781469 2 13 2.2185314 13 2.5 L 13 12.5 C 13 12.781469 12.781469 13 12.5 13 L 2.5 13 C 2.2185314 13 2 12.781469 2 12.5 L 2 2.5 C 2 2.2185314 2.2185314 2 2.5 2 z M 4 3 L 4 4 L 11 4 L 11 3 L 4 3 z M 5 5 L 5 6 L 10 6 L 10 5 L 5 5 z M 4 7 L 4 8 L 11 8 L 11 7 L 4 7 z"/></svg>