<svg fill="#000000" xmlns="http://www.w3.org/2000/svg" viewBox="0 0 16 16" width="16px" height="16px"><path d="M 2.5 2 C 1.675781 2 1 2.675781 1 3.5 L 1 11.5 C 1 12.324219 1.675781 13 2.5 13 L 13.5 13 C 14.324219 13 15 12.324219 15 11.5 L 15 3.5 C 15 2.675781 14.324219 2 13.5 2 Z M 2.5 3 L 13.5 3 C 13.78125 3 14 3.21875 14 3.5 L 14 11.5 C 14 11.78125 13.78125 12 13.5 12 L 2.5 12 C 2.21875 12 2 11.78125 2 11.5 L 2 3.5 C 2 3.21875 2.21875 3 2.5 3 Z M 3.5 4 C 3.222656 4 3 4.222656 3 4.5 L 3 7 L 4 7 L 4 5 L 6 5 L 6 4 Z M 12 8 L 12 10 L 10 10 L 10 11 L 12.5 11 C 12.777344 11 13 10.777344 13 10.5 L 13 8 Z"/></svg>