<svg fill="#000000" xmlns="http://www.w3.org/2000/svg" viewBox="0 0 16 16" width="16px" height="16px"><path d="M 2 1 L 2 14 L 10 14 C 12.203125 14 14 12.203125 14 10 C 14 8.589844 13.183594 7.449219 12.078125 6.734375 C 12.613281 6.125 13 5.378906 13 4.5 C 13 2.574219 11.425781 1 9.5 1 Z M 3 2 L 9.5 2 C 10.886719 2 12 3.113281 12 4.5 C 12 5.273438 11.644531 5.953125 11.085938 6.414063 L 10.464844 6.929688 L 11.203125 7.257813 C 12.261719 7.71875 13 8.769531 13 10 C 13 11.664063 11.664063 13 10 13 L 3 13 Z M 5 4 L 5 6 L 8 6 C 8.351563 6 8.613281 5.78125 8.789063 5.5 L 9 5.5 L 9 5 C 9 4.453125 8.546875 4 8 4 Z M 5 9 L 5 11 L 9 11 C 9.351563 11 9.613281 10.78125 9.789063 10.5 L 10 10.5 L 10 10 C 10 9.453125 9.546875 9 9 9 Z"/></svg>