<svg fill="#000000" xmlns="http://www.w3.org/2000/svg" viewBox="0 0 16 16" width="16px" height="16px"><path d="M 2.5 1 C 1.6774686 1 1 1.6774686 1 2.5 L 1 12.5 C 1 13.322531 1.6774686 14 2.5 14 L 12.5 14 C 13.322531 14 14 13.322531 14 12.5 L 14 2.5 C 14 1.6774686 13.322531 1 12.5 1 L 2.5 1 z M 2.5 2 L 4 2 L 4 5 L 2 5 L 2 2.5 C 2 2.2185314 2.2185314 2 2.5 2 z M 5 2 L 10 2 L 10 5 L 5 5 L 5 2 z M 11 2 L 12.5 2 C 12.781469 2 13 2.2185314 13 2.5 L 13 5 L 11 5 L 11 2 z M 2 6 L 7 6 L 7 9 L 2 9 L 2 6 z M 8 6 L 13 6 L 13 9 L 8 9 L 8 6 z M 2 10 L 4 10 L 4 13 L 2.5 13 C 2.2185314 13 2 12.781469 2 12.5 L 2 10 z M 5 10 L 10 10 L 10 13 L 5 13 L 5 10 z M 11 10 L 13 10 L 13 12.5 C 13 12.781469 12.781469 13 12.5 13 L 11 13 L 11 10 z"/></svg>