<svg fill="#000000" xmlns="http://www.w3.org/2000/svg" viewBox="0 0 16 16" width="16px" height="16px"><path d="M 11.378906 0.992188 C 10.707031 0.992188 10.027344 1.238281 9.539063 1.726563 L 7.730469 3.535156 C 7.699219 3.566406 7.675781 3.605469 7.648438 3.640625 L 8.351563 4.34375 C 8.382813 4.3125 8.40625 4.273438 8.4375 4.242188 L 10.246094 2.4375 C 10.550781 2.132813 10.953125 1.96875 11.378906 1.96875 C 11.808594 1.96875 12.210938 2.132813 12.53125 2.453125 C 13.15625 3.078125 13.15625 4.097656 12.53125 4.726563 L 10.726563 6.53125 C 10.695313 6.5625 10.65625 6.585938 10.625 6.617188 L 11.328125 7.320313 C 11.363281 7.292969 11.402344 7.269531 11.433594 7.238281 L 13.238281 5.429688 C 14.257813 4.414063 14.257813 2.761719 13.222656 1.726563 C 12.730469 1.238281 12.054688 0.992188 11.378906 0.992188 Z M 3.515625 2.996094 C 3.3125 2.996094 3.128906 3.121094 3.054688 3.308594 C 2.976563 3.496094 3.023438 3.714844 3.171875 3.855469 L 5.171875 5.855469 C 5.367188 6.050781 5.683594 6.050781 5.878906 5.855469 C 6.074219 5.660156 6.074219 5.339844 5.875 5.148438 L 3.875 3.148438 C 3.78125 3.050781 3.652344 2.996094 3.515625 2.996094 Z M 3.765625 7.585938 C 3.710938 7.632813 3.648438 7.671875 3.59375 7.726563 L 1.785156 9.535156 C 0.769531 10.550781 0.769531 12.203125 1.804688 13.238281 C 2.3125 13.746094 2.980469 14 3.648438 14 C 4.3125 14 4.980469 13.746094 5.488281 13.238281 L 7.296875 11.433594 C 7.351563 11.375 7.390625 11.3125 7.4375 11.253906 L 6.734375 10.546875 C 6.6875 10.609375 6.644531 10.667969 6.585938 10.722656 L 4.78125 12.53125 C 4.152344 13.15625 3.136719 13.15625 2.492188 12.511719 C 2.1875 12.207031 2.023438 11.804688 2.023438 11.375 C 2.023438 10.949219 2.1875 10.546875 2.492188 10.242188 L 4.300781 8.4375 C 4.355469 8.382813 4.414063 8.339844 4.476563 8.292969 Z M 9.515625 8.996094 C 9.3125 8.996094 9.128906 9.121094 9.054688 9.308594 C 8.976563 9.496094 9.023438 9.714844 9.171875 9.855469 L 11.171875 11.855469 C 11.367188 12.050781 11.683594 12.050781 11.878906 11.855469 C 12.074219 11.660156 12.074219 11.339844 11.875 11.144531 L 9.875 9.148438 C 9.78125 9.050781 9.652344 8.996094 9.515625 8.996094 Z"/></svg>