<?xml version="1.0" encoding="utf-8"?>
<!-- Generator: Adobe Illustrator 21.0.2, SVG Export Plug-In . SVG Version: 6.00 Build 0)  -->
<svg version="1.1" id="Layer_1" xmlns="http://www.w3.org/2000/svg" xmlns:xlink="http://www.w3.org/1999/xlink" x="0px" y="0px"
	 viewBox="0 0 80 27" style="enable-background:new 0 0 80 27;" xml:space="preserve">
<g>
	<path d="M66.5,0h-53C6,0,0,6,0,13.5C0,21,6,27,13.5,27h53C74,27,80,21,80,13.5C80,6,74,0,66.5,0z M66.5,26h-53
		C6.6,26,1,20.4,1,13.5S6.6,1,13.5,1h53C73.4,1,79,6.6,79,13.5S73.4,26,66.5,26z"/>
	<path d="M25.1,12.9L25.1,12.9c0.5-0.2,0.8-0.5,1-0.9c0.2-0.4,0.4-0.8,0.4-1.3c0-0.4-0.1-0.8-0.2-1.1c-0.2-0.3-0.4-0.5-0.7-0.7
		c-0.3-0.2-0.6-0.3-1-0.4s-0.9-0.1-1.3-0.1h-2.9V18h3.1c0.5,0,1-0.1,1.5-0.2s0.8-0.3,1.2-0.5s0.6-0.5,0.7-0.9
		c0.2-0.4,0.3-0.8,0.3-1.2c0-0.7-0.2-1.2-0.5-1.6C26.2,13.2,25.7,13,25.1,12.9z M21.6,9.4h1.5c0.8,0,1.3,0.1,1.7,0.4
		c0.4,0.2,0.6,0.6,0.6,1.2c0,0.5-0.2,0.9-0.5,1.2c-0.4,0.3-1,0.4-1.8,0.4h-1.4V9.4z M25.2,16.6c-0.5,0.3-1.1,0.5-1.9,0.5h-1.7v-3.6
		h1.7c0.8,0,1.5,0.1,1.9,0.4c0.4,0.3,0.7,0.7,0.7,1.3C25.9,15.8,25.6,16.3,25.2,16.6z"/>
	<path d="M33.2,15.9c-0.3,0.4-0.7,0.7-0.9,0.9s-0.6,0.3-1,0.3c-0.5,0-0.8-0.1-1-0.4c-0.2-0.3-0.3-0.8-0.3-1.5v-4.3h-1.2v4.5
		c0,0.9,0.2,1.6,0.5,2.1c0.3,0.5,0.9,0.7,1.7,0.7c0.5,0,0.9-0.1,1.3-0.4c0.4-0.2,0.7-0.5,1-0.9h0l0.1,1.1h1v-7.1h-1.2V15.9z"/>
	<path d="M39.7,17.1c-0.1,0-0.3,0.1-0.4,0.1c-0.4,0-0.7-0.1-0.9-0.4c-0.2-0.2-0.2-0.6-0.2-1v-4h1.9v-1h-1.9v-2h-1l-0.1,2L36,11v0.9
		H37v3.9c0,0.4,0,0.7,0.1,1c0.1,0.3,0.2,0.5,0.3,0.7c0.2,0.2,0.4,0.4,0.6,0.5c0.3,0.1,0.6,0.2,1,0.2c0.2,0,0.5,0,0.7-0.1
		c0.2-0.1,0.4-0.1,0.6-0.2L40.1,17C40,17.1,39.9,17.1,39.7,17.1z"/>
	<path d="M44.4,17.1c-0.1,0-0.3,0.1-0.4,0.1c-0.4,0-0.7-0.1-0.9-0.4c-0.2-0.2-0.2-0.6-0.2-1v-4h1.9v-1h-1.9v-2h-1l-0.1,2L40.6,11
		v0.9h1.1v3.9c0,0.4,0,0.7,0.1,1c0.1,0.3,0.2,0.5,0.3,0.7c0.2,0.2,0.4,0.4,0.6,0.5c0.3,0.1,0.6,0.2,1,0.2c0.2,0,0.5,0,0.7-0.1
		c0.2-0.1,0.4-0.1,0.6-0.2L44.8,17C44.7,17.1,44.5,17.1,44.4,17.1z"/>
	<path d="M51.3,11.7c-0.3-0.3-0.7-0.6-1-0.7s-0.8-0.2-1.3-0.2s-0.9,0.1-1.3,0.2s-0.7,0.4-1,0.7c-0.3,0.3-0.5,0.7-0.7,1.2
		c-0.2,0.5-0.3,1-0.3,1.6c0,0.6,0.1,1.1,0.3,1.6c0.2,0.5,0.4,0.9,0.7,1.2c0.3,0.3,0.7,0.6,1,0.7s0.8,0.2,1.3,0.2s0.9-0.1,1.3-0.2
		s0.7-0.4,1-0.7c0.3-0.3,0.5-0.7,0.7-1.2c0.2-0.5,0.3-1,0.3-1.6c0-0.6-0.1-1.1-0.3-1.6C51.8,12.4,51.6,12,51.3,11.7z M50.9,15.6
		c-0.1,0.3-0.2,0.6-0.4,0.9c-0.2,0.2-0.4,0.4-0.7,0.6c-0.3,0.1-0.5,0.2-0.8,0.2c-0.3,0-0.6-0.1-0.8-0.2c-0.3-0.1-0.5-0.3-0.7-0.6
		c-0.2-0.2-0.3-0.5-0.4-0.9c-0.1-0.3-0.1-0.7-0.1-1.1c0-0.4,0-0.8,0.1-1.1c0.1-0.3,0.2-0.6,0.4-0.9c0.2-0.2,0.4-0.4,0.7-0.6
		c0.3-0.1,0.5-0.2,0.8-0.2c0.3,0,0.6,0.1,0.8,0.2c0.3,0.1,0.5,0.3,0.7,0.6c0.2,0.2,0.3,0.5,0.4,0.9C51,13.7,51,14,51,14.5
		C51,14.9,51,15.2,50.9,15.6z"/>
	<path d="M57.7,10.7c-0.5,0-0.9,0.1-1.3,0.3c-0.4,0.2-0.7,0.5-1.1,0.9h0l-0.1-1h-1V18h1.2v-5.1c0.4-0.4,0.7-0.6,1-0.8s0.6-0.3,1-0.3
		c0.5,0,0.8,0.1,1,0.4s0.3,0.8,0.3,1.5V18h1.2v-4.5c0-0.9-0.2-1.6-0.5-2.1C59,10.9,58.4,10.7,57.7,10.7z"/>
</g>
</svg>
