<?xml version="1.0" encoding="utf-8"?>
<!-- Generator: Adobe Illustrator 21.0.2, SVG Export Plug-In . SVG Version: 6.00 Build 0)  -->
<svg version="1.1" id="Layer_1" xmlns="http://www.w3.org/2000/svg" xmlns:xlink="http://www.w3.org/1999/xlink" x="0px" y="0px"
	 viewBox="0 0 80 27" style="enable-background:new 0 0 80 27;" xml:space="preserve">
<g>
	<path d="M50.5,12.5c-0.2-0.2-0.4-0.4-0.7-0.6c-0.3-0.1-0.5-0.2-0.8-0.2c-0.3,0-0.6,0.1-0.8,0.2c-0.3,0.1-0.5,0.3-0.7,0.6
		c-0.2,0.2-0.3,0.5-0.4,0.9c-0.1,0.3-0.1,0.7-0.1,1.1c0,0.4,0,0.8,0.1,1.1c0.1,0.3,0.2,0.6,0.4,0.9c0.2,0.2,0.4,0.4,0.7,0.6
		c0.3,0.1,0.5,0.2,0.8,0.2c0.3,0,0.6-0.1,0.8-0.2c0.3-0.1,0.5-0.3,0.7-0.6c0.2-0.2,0.3-0.5,0.4-0.9c0.1-0.3,0.1-0.7,0.1-1.1
		c0-0.4,0-0.8-0.1-1.1C50.8,13,50.6,12.7,50.5,12.5z"/>
	<path d="M25.2,13.8c-0.4-0.3-1.1-0.4-1.9-0.4h-1.7V17h1.7c0.8,0,1.5-0.2,1.9-0.5c0.5-0.3,0.7-0.8,0.7-1.4
		C25.9,14.6,25.7,14.1,25.2,13.8z"/>
	<path d="M0,3v21c0,1.7,1.3,3,3,3h74c1.7,0,3-1.3,3-3V3c0-1.7-1.3-3-3-3H3C1.3,0,0,1.3,0,3z M26.8,16.4c-0.2,0.4-0.4,0.6-0.7,0.9
		s-0.7,0.4-1.2,0.5S24,18,23.4,18h-3.1V8.4h2.9c0.5,0,0.9,0,1.3,0.1s0.8,0.2,1,0.4c0.3,0.2,0.5,0.4,0.7,0.7c0.2,0.3,0.2,0.7,0.2,1.1
		c0,0.5-0.1,0.9-0.4,1.3c-0.2,0.4-0.6,0.7-1,0.8v0.1c0.6,0.1,1.1,0.4,1.4,0.7c0.4,0.4,0.5,0.9,0.5,1.6C27.1,15.7,27,16.1,26.8,16.4z
		 M34.4,18h-1l-0.1-1.1h0c-0.3,0.4-0.7,0.7-1,0.9c-0.4,0.2-0.8,0.4-1.3,0.4c-0.8,0-1.3-0.2-1.7-0.7c-0.3-0.5-0.5-1.2-0.5-2.1v-4.5
		H30v4.3c0,0.7,0.1,1.2,0.3,1.5c0.2,0.3,0.5,0.4,1,0.4c0.4,0,0.7-0.1,1-0.3s0.6-0.5,0.9-0.9v-5h1.2V18z M39.7,18.1
		c-0.2,0.1-0.5,0.1-0.7,0.1c-0.4,0-0.7-0.1-1-0.2c-0.3-0.1-0.5-0.3-0.6-0.5c-0.2-0.2-0.3-0.5-0.3-0.7c-0.1-0.3-0.1-0.6-0.1-1v-3.9
		H36V11l1.1-0.1l0.1-2h1v2h1.9v1h-1.9v4c0,0.4,0.1,0.8,0.2,1c0.2,0.2,0.4,0.4,0.9,0.4c0.1,0,0.3,0,0.4-0.1c0.1,0,0.3-0.1,0.4-0.1
		l0.2,0.9C40.2,18,40,18,39.7,18.1z M44.4,18.1c-0.2,0.1-0.5,0.1-0.7,0.1c-0.4,0-0.7-0.1-1-0.2c-0.3-0.1-0.5-0.3-0.6-0.5
		c-0.2-0.2-0.3-0.5-0.3-0.7c-0.1-0.3-0.1-0.6-0.1-1v-3.9h-1.1V11l1.1-0.1l0.1-2h1v2h1.9v1h-1.9v4c0,0.4,0.1,0.8,0.2,1
		c0.2,0.2,0.4,0.4,0.9,0.4c0.1,0,0.3,0,0.4-0.1c0.1,0,0.3-0.1,0.4-0.1l0.2,0.9C44.8,18,44.6,18,44.4,18.1z M52,16
		c-0.2,0.5-0.4,0.9-0.7,1.2c-0.3,0.3-0.7,0.6-1,0.7s-0.8,0.2-1.3,0.2s-0.9-0.1-1.3-0.2s-0.7-0.4-1-0.7c-0.3-0.3-0.5-0.7-0.7-1.2
		c-0.2-0.5-0.3-1-0.3-1.6c0-0.6,0.1-1.1,0.3-1.6c0.2-0.5,0.4-0.9,0.7-1.2c0.3-0.3,0.7-0.6,1-0.7s0.8-0.2,1.3-0.2s0.9,0.1,1.3,0.2
		s0.7,0.4,1,0.7c0.3,0.3,0.5,0.7,0.7,1.2c0.2,0.5,0.3,1,0.3,1.6C52.3,15,52.2,15.6,52,16z M59.8,18h-1.2v-4.3c0-0.7-0.1-1.2-0.3-1.5
		s-0.6-0.4-1-0.4c-0.4,0-0.7,0.1-1,0.3s-0.6,0.5-1,0.8V18h-1.2v-7.1h1l0.1,1h0c0.3-0.3,0.7-0.6,1.1-0.9c0.4-0.2,0.8-0.3,1.3-0.3
		c0.8,0,1.3,0.2,1.6,0.7c0.3,0.5,0.5,1.2,0.5,2.1V18z"/>
	<path d="M24.8,12.1c0.4-0.3,0.5-0.7,0.5-1.2c0-0.6-0.2-1-0.6-1.2c-0.4-0.2-0.9-0.4-1.7-0.4h-1.5v3.1H23
		C23.8,12.5,24.4,12.3,24.8,12.1z"/>
</g>
</svg>
