<?xml version="1.0" encoding="utf-8"?>
<!-- Generator: Adobe Illustrator 21.0.2, SVG Export Plug-In . SVG Version: 6.00 Build 0)  -->
<svg version="1.1" id="Layer_1" xmlns="http://www.w3.org/2000/svg" xmlns:xlink="http://www.w3.org/1999/xlink" x="0px" y="0px"
	 viewBox="0 0 80 27" style="enable-background:new 0 0 80 27;" xml:space="preserve">
<path d="M79,1v25H1V1H79 M80,0H0v27h80V0L80,0z"/>
<g>
	<path d="M20.4,18V8.4h2.9c0.5,0,0.9,0,1.3,0.1s0.8,0.2,1,0.4c0.3,0.2,0.5,0.4,0.7,0.7c0.2,0.3,0.2,0.7,0.2,1.1
		c0,0.5-0.1,0.9-0.4,1.3c-0.2,0.4-0.6,0.7-1,0.8v0.1c0.6,0.1,1.1,0.4,1.4,0.7c0.4,0.4,0.5,0.9,0.5,1.6c0,0.5-0.1,0.9-0.3,1.2
		c-0.2,0.4-0.4,0.6-0.7,0.9s-0.7,0.4-1.2,0.5S24,18,23.4,18H20.4z M21.6,12.5H23c0.8,0,1.4-0.1,1.8-0.4c0.4-0.3,0.5-0.7,0.5-1.2
		c0-0.6-0.2-1-0.6-1.2c-0.4-0.2-0.9-0.4-1.7-0.4h-1.5V12.5z M21.6,17h1.7c0.8,0,1.5-0.2,1.9-0.5c0.5-0.3,0.7-0.8,0.7-1.4
		c0-0.6-0.2-1-0.7-1.3c-0.4-0.3-1.1-0.4-1.9-0.4h-1.7V17z"/>
	<path d="M30.9,18.2c-0.8,0-1.3-0.2-1.7-0.7c-0.3-0.5-0.5-1.2-0.5-2.1v-4.5H30v4.3c0,0.7,0.1,1.2,0.3,1.5c0.2,0.3,0.5,0.4,1,0.4
		c0.4,0,0.7-0.1,1-0.3s0.6-0.5,0.9-0.9v-5h1.2V18h-1l-0.1-1.1h0c-0.3,0.4-0.7,0.7-1,0.9C31.9,18.1,31.4,18.2,30.9,18.2z"/>
	<path d="M39.1,18.2c-0.4,0-0.7-0.1-1-0.2c-0.3-0.1-0.5-0.3-0.6-0.5c-0.2-0.2-0.3-0.5-0.3-0.7c-0.1-0.3-0.1-0.6-0.1-1v-3.9H36V11
		l1.1-0.1l0.1-2h1v2h1.9v1h-1.9v4c0,0.4,0.1,0.8,0.2,1c0.2,0.2,0.4,0.4,0.9,0.4c0.1,0,0.3,0,0.4-0.1c0.1,0,0.3-0.1,0.4-0.1l0.2,0.9
		C40.2,18,40,18,39.7,18.1C39.5,18.1,39.3,18.2,39.1,18.2z"/>
	<path d="M43.7,18.2c-0.4,0-0.7-0.1-1-0.2c-0.3-0.1-0.5-0.3-0.6-0.5c-0.2-0.2-0.3-0.5-0.3-0.7c-0.1-0.3-0.1-0.6-0.1-1v-3.9h-1.1V11
		l1.1-0.1l0.1-2h1v2h1.9v1h-1.9v4c0,0.4,0.1,0.8,0.2,1c0.2,0.2,0.4,0.4,0.9,0.4c0.1,0,0.3,0,0.4-0.1c0.1,0,0.3-0.1,0.4-0.1l0.2,0.9
		c-0.2,0.1-0.4,0.1-0.6,0.2C44.2,18.1,43.9,18.2,43.7,18.2z"/>
	<path d="M49,18.2c-0.4,0-0.9-0.1-1.3-0.2s-0.7-0.4-1-0.7c-0.3-0.3-0.5-0.7-0.7-1.2c-0.2-0.5-0.3-1-0.3-1.6c0-0.6,0.1-1.1,0.3-1.6
		c0.2-0.5,0.4-0.9,0.7-1.2c0.3-0.3,0.7-0.6,1-0.7s0.8-0.2,1.3-0.2s0.9,0.1,1.3,0.2s0.7,0.4,1,0.7c0.3,0.3,0.5,0.7,0.7,1.2
		c0.2,0.5,0.3,1,0.3,1.6c0,0.6-0.1,1.1-0.3,1.6c-0.2,0.5-0.4,0.9-0.7,1.2c-0.3,0.3-0.7,0.6-1,0.7S49.4,18.2,49,18.2z M49,17.2
		c0.3,0,0.6-0.1,0.8-0.2c0.3-0.1,0.5-0.3,0.7-0.6c0.2-0.2,0.3-0.5,0.4-0.9c0.1-0.3,0.1-0.7,0.1-1.1c0-0.4,0-0.8-0.1-1.1
		c-0.1-0.3-0.2-0.6-0.4-0.9c-0.2-0.2-0.4-0.4-0.7-0.6c-0.3-0.1-0.5-0.2-0.8-0.2c-0.3,0-0.6,0.1-0.8,0.2c-0.3,0.1-0.5,0.3-0.7,0.6
		c-0.2,0.2-0.3,0.5-0.4,0.9c-0.1,0.3-0.1,0.7-0.1,1.1c0,0.4,0,0.8,0.1,1.1c0.1,0.3,0.2,0.6,0.4,0.9c0.2,0.2,0.4,0.4,0.7,0.6
		C48.4,17.1,48.7,17.2,49,17.2z"/>
	<path d="M54.1,18v-7.1h1l0.1,1h0c0.3-0.3,0.7-0.6,1.1-0.9c0.4-0.2,0.8-0.3,1.3-0.3c0.8,0,1.3,0.2,1.6,0.7c0.3,0.5,0.5,1.2,0.5,2.1
		V18h-1.2v-4.3c0-0.7-0.1-1.2-0.3-1.5s-0.6-0.4-1-0.4c-0.4,0-0.7,0.1-1,0.3s-0.6,0.5-1,0.8V18H54.1z"/>
</g>
</svg>
