<?xml version="1.0" encoding="utf-8"?>
<!-- Generator: Adobe Illustrator 21.0.2, SVG Export Plug-In . SVG Version: 6.00 Build 0)  -->
<svg version="1.1" id="Layer_1" xmlns="http://www.w3.org/2000/svg" xmlns:xlink="http://www.w3.org/1999/xlink" x="0px" y="0px"
	 viewBox="0 0 32 32" style="enable-background:new 0 0 32 32;" xml:space="preserve">
<style type="text/css">
	.st0{fill-rule:evenodd;clip-rule:evenodd;fill:#00BCD4;}
	.st1{fill:#FFFFFF;}
</style>
<g>
	<g>
		<g>
			<circle class="st0" cx="16" cy="16" r="9"/>
		</g>
	</g>
	<path class="st1" d="M15.5,19.3v-0.8h-2c-0.2,0-0.4,0-0.6,0c-0.2,0-0.4,0-0.6,0c0.4-0.4,0.8-0.8,1.1-1.2s0.6-0.8,0.9-1.1
		c0.3-0.4,0.5-0.7,0.6-1c0.1-0.3,0.2-0.7,0.2-1c0-0.6-0.2-1.1-0.6-1.5c-0.4-0.4-0.9-0.6-1.5-0.6c-0.5,0-0.9,0.1-1.2,0.3
		c-0.3,0.2-0.6,0.5-0.9,0.8l0.5,0.5c0.2-0.2,0.4-0.4,0.7-0.6s0.5-0.2,0.8-0.2c0.4,0,0.8,0.1,1,0.4c0.2,0.3,0.3,0.6,0.3,1
		c0,0.3-0.1,0.6-0.2,0.9c-0.1,0.3-0.4,0.6-0.6,1c-0.3,0.4-0.6,0.8-1,1.2c-0.4,0.4-0.9,0.9-1.4,1.4v0.5H15.5z"/>
	<path class="st1" d="M20.2,19.3v-1.9h1v-0.7h-1v-4.4h-1l-3,4.5v0.6h3.2v1.9H20.2z M18.8,14.2c0.1-0.2,0.2-0.3,0.3-0.5
		c0.1-0.2,0.2-0.3,0.3-0.5h0c0,0.2,0,0.4,0,0.7c0,0.3,0,0.5,0,0.7v2h-2.2L18.8,14.2z"/>
</g>
</svg>
