<?xml version="1.0" encoding="utf-8"?>
<!-- Generator: Adobe Illustrator 21.0.2, SVG Export Plug-In . SVG Version: 6.00 Build 0)  -->
<svg version="1.1" id="Layer_1" xmlns="http://www.w3.org/2000/svg" xmlns:xlink="http://www.w3.org/1999/xlink" x="0px" y="0px"
	 viewBox="0 0 32 32" style="enable-background:new 0 0 32 32;" xml:space="preserve">
<style type="text/css">
	.st0{fill-rule:evenodd;clip-rule:evenodd;fill:#00BCD4;}
	.st1{fill:#FFFFFF;}
</style>
<g>
	<g>
		<polygon class="st0" points="8.6,7.5 0,16 8.6,24.5 32,24.5 32,7.5 		"/>
	</g>
</g>
<path class="st1" d="M18.4,20.8v-1h-2.6c-0.2,0-0.5,0-0.7,0c-0.3,0-0.5,0-0.8,0.1c0.5-0.6,1-1.1,1.5-1.6c0.4-0.5,0.8-1,1.1-1.4
	c0.3-0.5,0.6-0.9,0.8-1.3c0.2-0.4,0.3-0.8,0.3-1.3c0-0.8-0.2-1.4-0.7-1.9c-0.5-0.5-1.1-0.7-2-0.7c-0.6,0-1.1,0.1-1.5,0.4
	c-0.4,0.2-0.8,0.6-1.2,1l0.7,0.7c0.3-0.3,0.6-0.6,0.9-0.8c0.3-0.2,0.7-0.3,1-0.3c0.6,0,1,0.2,1.3,0.5c0.3,0.3,0.4,0.7,0.4,1.3
	c0,0.4-0.1,0.7-0.3,1.1c-0.2,0.4-0.5,0.8-0.8,1.3c-0.4,0.5-0.8,1-1.3,1.5c-0.5,0.5-1.1,1.1-1.8,1.8v0.7H18.4z"/>
<path class="st1" d="M24.3,20.8v-2.5h1.2v-0.9h-1.2v-5.5h-1.3l-3.8,5.7v0.8h4v2.5H24.3z M22.5,14.3c0.1-0.2,0.3-0.4,0.4-0.6
	c0.1-0.2,0.2-0.4,0.3-0.6h0.1c0,0.2,0,0.5,0,0.9c0,0.3,0,0.6,0,0.9v2.6h-2.8L22.5,14.3z"/>
</svg>
