<?xml version="1.0" encoding="utf-8"?>
<!-- Generator: Adobe Illustrator 21.0.2, SVG Export Plug-In . SVG Version: 6.00 Build 0)  -->
<svg version="1.1" id="Layer_1" xmlns="http://www.w3.org/2000/svg" xmlns:xlink="http://www.w3.org/1999/xlink" x="0px" y="0px"
	 viewBox="0 0 32 32" style="enable-background:new 0 0 32 32;" xml:space="preserve">
<style type="text/css">
	.st0{fill-rule:evenodd;clip-rule:evenodd;fill:#00BCD4;}
	.st1{fill:#FFFFFF;}
</style>
<g>
	<g>
		<g>
			<path class="st0" d="M22.5,7.5h-13C4.8,7.5,1,11.3,1,16v0c0,4.7,3.8,8.5,8.5,8.5h13c4.7,0,8.5-3.8,8.5-8.5v0
				C31,11.3,27.2,7.5,22.5,7.5z"/>
		</g>
	</g>
	<path class="st1" d="M11.7,15.8L9,18.6v1.6h6.5v-1.9h-3.6l1.7-1.8c0.7-0.7,1.1-1.3,1.3-1.7c0.2-0.4,0.4-0.9,0.4-1.4
		c0-0.9-0.3-1.6-0.9-2.1c-0.6-0.5-1.3-0.8-2.1-0.8c-0.8,0-1.5,0.2-2,0.5c-0.5,0.3-1,0.9-1.4,1.5l1.6,1c0.5-0.8,1.1-1.3,1.6-1.3
		c0.3,0,0.6,0.1,0.8,0.3c0.2,0.2,0.3,0.5,0.3,0.8c0,0.3-0.1,0.6-0.3,1C12.6,14.8,12.2,15.3,11.7,15.8L11.7,15.8z"/>
	<path class="st1" d="M19.1,16.2l3.1-5.3h-2.2l-3.3,5.5V18h3.7v2.2h2V18h1v-1.8h-1v-1.6h-2v1.6H19.1z"/>
</g>
</svg>
