<svg fill="#000000" xmlns="http://www.w3.org/2000/svg" viewBox="0 0 16 16" width="16px" height="16px"><path d="M 2.5 2 C 1.675781 2 1 2.675781 1 3.5 L 1 11.5 C 1 12.324219 1.675781 13 2.5 13 L 13.5 13 C 14.324219 13 15 12.324219 15 11.5 L 15 3.5 C 15 2.675781 14.324219 2 13.5 2 Z M 2.5 3 L 13.5 3 C 13.78125 3 14 3.21875 14 3.5 L 14 11.5 C 14 11.78125 13.78125 12 13.5 12 L 2.5 12 C 2.21875 12 2 11.78125 2 11.5 L 2 3.5 C 2 3.21875 2.21875 3 2.5 3 Z M 3 4 L 3 5 L 4 5 L 4 4 Z M 12 4 L 12 5 L 13 5 L 13 4 Z M 3 6 L 3 7 L 4 7 L 4 6 Z M 12 6 L 12 7 L 13 7 L 13 6 Z M 3 8 L 3 9 L 4 9 L 4 8 Z M 12 8 L 12 9 L 13 9 L 13 8 Z M 3 10 L 3 11 L 4 11 L 4 10 Z M 12 10 L 12 11 L 13 11 L 13 10 Z"/></svg>