<svg fill="#000000" xmlns="http://www.w3.org/2000/svg" viewBox="0 0 16 16" width="16px" height="16px"><path d="M 7 0 L 7 4.292969 L 5.351563 2.648438 L 4.648438 3.351563 L 7.148438 5.851563 C 7.339844 6.046875 7.660156 6.046875 7.851563 5.851563 L 10.355469 3.351563 L 9.648438 2.648438 L 8 4.292969 L 8 0 Z M 3.351563 4.648438 L 2.648438 5.351563 L 4.292969 7 L 0 7 L 0 8 L 4.292969 8 L 2.648438 9.648438 L 3.351563 10.355469 L 5.851563 7.851563 C 6.046875 7.660156 6.046875 7.339844 5.851563 7.148438 Z M 11.644531 4.648438 L 9.148438 7.148438 C 8.953125 7.339844 8.953125 7.660156 9.148438 7.851563 L 11.644531 10.355469 L 12.355469 9.648438 L 10.707031 8 L 15 8 L 15 7 L 10.707031 7 L 12.355469 5.351563 Z M 7.492188 9 C 7.363281 9.003906 7.238281 9.054688 7.148438 9.148438 L 4.648438 11.644531 L 5.351563 12.355469 L 7 10.707031 L 7 15 L 8 15 L 8 10.707031 L 9.648438 12.355469 L 10.355469 11.644531 L 7.851563 9.148438 C 7.757813 9.050781 7.628906 8.996094 7.492188 9 Z"/></svg>