<svg fill="#000000" xmlns="http://www.w3.org/2000/svg" viewBox="0 0 16 16" width="16px" height="16px"><path d="M 13.269531 1.023438 L 10.363281 3.929688 L 7.351563 2.921875 L 4.359375 6.164063 L 1.367188 5.023438 L 1.011719 5.957031 L 4.640625 7.335938 L 7.648438 4.078125 L 10.636719 5.070313 L 13.980469 1.726563 Z M 7 8 L 7 14 L 8 14 L 8 8 Z M 13 8 L 13 14 L 14 14 L 14 8 Z M 5 9 L 5 14 L 6 14 L 6 9 Z M 9 9 L 9 14 L 10 14 L 10 9 Z M 1 10 L 1 14 L 2 14 L 2 10 Z M 3 10 L 3 14 L 4 14 L 4 10 Z M 11 10 L 11 14 L 12 14 L 12 10 Z"/></svg>