<svg fill="#000000" xmlns="http://www.w3.org/2000/svg" viewBox="0 0 16 16" width="16px" height="16px"><path d="M 3.8242188 2 C 3.1086146 2 2.4875446 2.5125185 2.3515625 3.2148438 L 1 10.201172 L 1 11 L 1 12.5 C 1 13.322531 1.6774686 14 2.5 14 L 6 14 L 6 13 L 2.5 13 C 2.2185314 13 2 12.781469 2 12.5 L 2 10.5 C 2 10.218531 2.2185314 10 2.5 10 L 8 10 L 8 9 L 2.5 9 C 2.413173 9 2.3290616 9.0128719 2.2460938 9.0273438 L 3.3339844 3.4042969 C 3.3800023 3.166622 3.5818227 3 3.8242188 3 L 9.875 3 L 11 3 L 12.175781 3 C 12.414781 3 12.621016 3.1692969 12.666016 3.4042969 L 13.5625 8 L 14.576172 8 L 13.648438 3.2148438 C 13.511438 2.5108438 12.893781 2 12.175781 2 L 11 2 L 9.875 2 L 3.8242188 2 z M 12.5 9 C 10.744116 9 9.2967432 10.310272 9.0507812 12 L 6.5 12 L 9.5 15 L 12.5 12 L 10.050781 12 C 10.280654 10.855042 11.284533 10 12.5 10 C 13.886833 10 15 11.113167 15 12.5 C 15 13.886833 13.886833 15 12.5 15 L 11.978516 15 L 11.978516 16 L 12.5 16 C 14.427167 16 16 14.427167 16 12.5 C 16 10.572833 14.427167 9 12.5 9 z"/></svg>