<svg fill="#000000" xmlns="http://www.w3.org/2000/svg" viewBox="0 0 16 16" width="16px" height="16px"><path d="M 4.5 2 C 3.125 2 2 3.125 2 4.5 C 2 5.875 3.125 7 4.5 7 C 5.875 7 7 5.875 7 4.5 C 7 3.125 5.875 2 4.5 2 Z M 9.5 2 C 9.222656 2 9 2.222656 9 2.5 L 9 6.5 C 9 6.777344 9.222656 7 9.5 7 L 13.5 7 C 13.777344 7 14 6.777344 14 6.5 L 14 2.5 C 14 2.222656 13.777344 2 13.5 2 Z M 4.5 3 C 5.335938 3 6 3.664063 6 4.5 C 6 5.335938 5.335938 6 4.5 6 C 3.664063 6 3 5.335938 3 4.5 C 3 3.664063 3.664063 3 4.5 3 Z M 10 3 L 13 3 L 13 6 L 10 6 Z M 5.007813 9 C 4.832031 8.996094 4.667969 9.085938 4.578125 9.234375 L 2.078125 13.234375 C 1.980469 13.386719 1.972656 13.582031 2.0625 13.742188 C 2.152344 13.902344 2.316406 14 2.5 14 L 7.5 14 C 7.683594 14 7.847656 13.902344 7.9375 13.742188 C 8.027344 13.582031 8.019531 13.386719 7.921875 13.234375 L 5.421875 9.234375 C 5.332031 9.089844 5.175781 9 5.007813 9 Z M 10.453125 9 C 10.234375 9 10.042969 9.140625 9.976563 9.351563 L 9.023438 12.441406 C 8.960938 12.640625 9.03125 12.859375 9.195313 12.988281 L 11.699219 14.894531 C 11.875 15.03125 12.125 15.03125 12.300781 14.894531 L 14.800781 12.988281 C 14.96875 12.859375 15.039063 12.640625 14.980469 12.441406 L 14.023438 9.351563 C 13.957031 9.140625 13.765625 9 13.546875 9 Z M 10.824219 10 L 13.175781 10 L 13.921875 12.40625 L 12 13.875 L 10.078125 12.40625 Z M 5 10.441406 L 6.597656 13 L 3.402344 13 Z"/></svg>