<svg fill="#000000" xmlns="http://www.w3.org/2000/svg" viewBox="0 0 16 16" width="16px" height="16px"><path d="M 2.5 2 C 1.675781 2 1 2.675781 1 3.5 L 1 11.5 C 1 12.324219 1.675781 13 2.5 13 L 12.5 13 C 13.324219 13 14 12.324219 14 11.5 L 14 3.5 C 14 2.675781 13.324219 2 12.5 2 Z M 2.5 3 L 7 3 L 7 12 L 2.5 12 C 2.21875 12 2 11.78125 2 11.5 L 2 3.5 C 2 3.21875 2.21875 3 2.5 3 Z M 8 3 L 12.5 3 C 12.78125 3 13 3.21875 13 3.5 L 13 11.5 C 13 11.78125 12.78125 12 12.5 12 L 8 12 Z M 9 4 L 9 5 L 12 5 L 12 4 Z M 9 6 L 9 7 L 12 7 L 12 6 Z M 9 8 L 9 9 L 12 9 L 12 8 Z M 9 10 L 9 11 L 12 11 L 12 10 Z"/></svg>