<?xml version="1.0" encoding="utf-8"?>
<!-- Generator: Adobe Illustrator 21.0.2, SVG Export Plug-In . SVG Version: 6.00 Build 0)  -->
<svg version="1.1" id="Layer_1" xmlns="http://www.w3.org/2000/svg" xmlns:xlink="http://www.w3.org/1999/xlink" x="0px" y="0px"
	 viewBox="0 0 16 16" style="enable-background:new 0 0 16 16;" xml:space="preserve">
<g>
	<path d="M15,8.3c0,0-0.7-1.5-2.4-2.7l-0.7,0.7c1.4,0.9,1.9,2,2,2.3c-0.1,0.3-0.9,1.8-2.8,2.7c0.6-0.8,0.9-1.7,0.9-2.7
		c0-0.7-0.2-1.4-0.5-2l-0.8,0.8C10.9,7.7,11,8.1,11,8.5c0,1.9-1.6,3.5-3.5,3.5c-0.4,0-0.8-0.1-1.2-0.2l-1,1C6,12.9,6.7,13,7.5,13
		c5.4,0,7.5-4.3,7.5-4.3l0.1-0.2L15,8.3z"/>
	<path d="M13.3,2l-2.6,2.6C9.8,4.2,8.7,4,7.5,4C2.1,4,0,8.3,0,8.3l-0.1,0.2L0,8.7c0,0,1,2,3.3,3.3L2,13.3L2.7,14L14,2.7L13.3,2z
		 M1.1,8.5C1.2,8.2,2,6.7,3.9,5.8C3.4,6.5,3,7.5,3,8.5s0.4,2,0.9,2.7C2,10.3,1.2,8.8,1.1,8.5z M4,8.5C4,6.6,5.6,5,7.5,5
		C8.3,5,9,5.3,9.6,5.7L8.1,7.2C7.9,7.1,7.7,7,7.5,7C6.7,7,6,7.7,6,8.5c0,0.2,0.1,0.4,0.2,0.6l-1.4,1.4C4.3,10,4,9.3,4,8.5z"/>
</g>
</svg>
