<svg fill="#000000" xmlns="http://www.w3.org/2000/svg" viewBox="0 0 16 16" width="16px" height="16px"><path d="M 3.6035156 2 L 0 12.792969 L 0 13 L 1 13 L 1 12.957031 L 1.9863281 10 L 7.0195312 10 L 8 12.955078 L 8 13 L 9 13 L 9 12.794922 L 5.4160156 2 L 4.5 2 L 3.6035156 2 z M 4.3222656 3 L 4.5 3 L 4.6953125 3 L 6.6875 9 L 2.3203125 9 L 4.3222656 3 z M 11 5 L 11 6 L 13.5 6 C 14.335015 6 15 6.6649849 15 7.5 L 15 8.09375 C 14.84275 8.0371335 14.67567 8 14.5 8 L 11.5 8 C 10.677469 8 10 8.6774686 10 9.5 L 10 11.5 C 10 12.322531 10.677469 13 11.5 13 L 13.671875 13 C 14.146297 13 14.604486 12.860084 15 12.611328 L 15 13 L 16 13 L 16 11.707031 L 16 9.5 L 16 7.5 C 16 6.1250151 14.874985 5 13.5 5 L 11 5 z M 11.5 9 L 14.5 9 C 14.781469 9 15 9.2185314 15 9.5 L 15 11.292969 L 14.732422 11.560547 C 14.451074 11.841895 14.069171 12 13.671875 12 L 11.5 12 C 11.218531 12 11 11.781469 11 11.5 L 11 9.5 C 11 9.2185314 11.218531 9 11.5 9 z"/></svg>