<?xml version="1.0" encoding="utf-8"?>
<!-- Generator: Adobe Illustrator 21.0.2, SVG Export Plug-In . SVG Version: 6.00 Build 0)  -->
<svg version="1.1" id="Layer_1" xmlns="http://www.w3.org/2000/svg" xmlns:xlink="http://www.w3.org/1999/xlink" x="0px" y="0px"
	 viewBox="0 0 16 16" style="enable-background:new 0 0 16 16;" xml:space="preserve">
<style type="text/css">
	.st0{fill:#B9C1CB;}
</style>
<path class="st0" d="M14.2,0H1.8C0.8,0,0,0.8,0,1.8v12.4c0,1,0.8,1.8,1.8,1.8h12.4c1,0,1.8-0.8,1.8-1.8V1.8C16,0.8,15.2,0,14.2,0z
	 M12.6,10.2c0,0.2-0.1,0.2-0.3,0.3c-0.6,0.3-1.2,0.5-1.9,0.5c-1,0-1.4-0.6-2.6-0.6c-0.8,0-1.7,0.3-2.4,0.6c0,0-0.1,0-0.1,0v1.6
	c0,0.1,0,0.1,0,0.2v0c-0.1,0.3-0.4,0.5-0.7,0.5c-0.4,0-0.7-0.3-0.7-0.7V4.8C3.6,4.6,3.4,4.2,3.4,3.9c0-0.7,0.5-1.2,1.2-1.2
	c0.7,0,1.2,0.5,1.2,1.2c0,0.4-0.2,0.7-0.5,0.9v0.7c0.1,0,0.1,0,0.2-0.1C6.2,5.1,7,4.9,7.7,4.9c0.8,0,1.4,0.2,2.2,0.5
	c0.2,0.1,0.3,0.1,0.5,0.1c0.8,0,1.7-0.6,1.9-0.6c0.2,0,0.3,0.1,0.3,0.3L12.6,10.2L12.6,10.2z"/>
</svg>
