<svg fill="#000000" xmlns="http://www.w3.org/2000/svg" viewBox="0 0 16 16" width="16px" height="16px"><path d="M 3.824219 2 C 3.109375 2 2.488281 2.511719 2.351563 3.214844 L 1 10.203125 L 1 12.5 C 1 13.324219 1.675781 14 2.5 14 L 13.5 14 C 14.324219 14 15 13.324219 15 12.5 L 15 10.203125 L 13.648438 3.214844 C 13.511719 2.511719 12.890625 2 12.175781 2 Z M 3.824219 3 L 12.175781 3 C 12.417969 3 12.621094 3.167969 12.667969 3.40625 L 13.753906 9.027344 C 13.671875 9.011719 13.585938 9 13.5 9 L 2.5 9 C 2.414063 9 2.328125 9.011719 2.246094 9.027344 L 3.335938 3.40625 C 3.378906 3.167969 3.582031 3 3.824219 3 Z M 2.5 10 L 13.5 10 C 13.78125 10 14 10.21875 14 10.5 L 14 12.5 C 14 12.78125 13.78125 13 13.5 13 L 2.5 13 C 2.21875 13 2 12.78125 2 12.5 L 2 10.5 C 2 10.21875 2.21875 10 2.5 10 Z M 12.5 11 C 12.222656 11 12 11.222656 12 11.5 C 12 11.777344 12.222656 12 12.5 12 C 12.777344 12 13 11.777344 13 11.5 C 13 11.222656 12.777344 11 12.5 11 Z"/></svg>