<?xml version="1.0" encoding="utf-8"?>
<!-- Generator: Adobe Illustrator 21.0.2, SVG Export Plug-In . SVG Version: 6.00 Build 0)  -->
<svg version="1.1" id="Layer_1" xmlns="http://www.w3.org/2000/svg" xmlns:xlink="http://www.w3.org/1999/xlink" x="0px" y="0px"
	 viewBox="0 0 24 24" style="enable-background:new 0 0 24 24;" xml:space="preserve">
<g>
	<path d="M20.4,4.4c1,1,1.6,2.3,1.6,3.9c0,1.8-0.8,3.7-2.3,5.4c-1.5,1.8-3.6,3.8-6.2,6.1L12,21.2l-1.5-1.3c-2.6-2.3-4.7-4.3-6.2-6.1
		C2.8,12,2,10.2,2,8.3c0-1.6,0.6-2.9,1.6-3.9s2.3-1.6,3.9-1.6C8.4,2.8,9.2,3,10,3.4s1.5,0.9,2,1.5c0.6-0.6,1.2-1.1,2-1.5
		s1.6-0.6,2.5-0.6C18.1,2.9,19.4,3.4,20.4,4.4z M17.8,12.8c1.4-1.6,2.1-3.1,2.2-4.5c0-1-0.4-1.8-1-2.5s-1.5-1-2.5-1
		c-0.8,0-1.5,0.2-2.2,0.7c-0.7,0.4-1.1,1-1.4,1.7h-1.9c-0.3-0.7-0.8-1.2-1.4-1.7C9,5.1,8.3,4.9,7.5,4.9c-1,0-1.9,0.3-2.5,1
		S4,7.3,4,8.3c0,1.4,0.8,2.9,2.2,4.5s3.3,3.4,5.7,5.6l0.1,0.1l0.1-0.1C14.5,16.3,16.4,14.4,17.8,12.8z"/>
</g>
</svg>
