<svg fill="#000000" xmlns="http://www.w3.org/2000/svg" viewBox="0 0 16 16" width="16px" height="16px"><path d="M 7.5 1 C 3.917969 1 1 3.917969 1 7.5 C 1 11.082031 3.917969 14 7.5 14 C 11.082031 14 14 11.082031 14 7.5 C 14 3.917969 11.082031 1 7.5 1 Z M 7.5 2 C 10.542969 2 13 4.457031 13 7.5 C 13 10.542969 10.542969 13 7.5 13 C 4.457031 13 2 10.542969 2 7.5 C 2 4.457031 4.457031 2 7.5 2 Z M 7.558594 4 C 6.347656 4.070313 5.359375 5.085938 5.359375 6.320313 L 6.359375 6.320313 C 6.359375 5.507813 7.0625 4.871094 7.921875 5.019531 C 8.535156 5.125 9.019531 5.726563 9 6.359375 C 8.984375 6.914063 8.660156 7.265625 8.183594 7.476563 C 7.886719 7.609375 7.605469 7.734375 7.367188 7.984375 C 7.128906 8.234375 7 8.605469 7 9 L 8 9 C 8 8.773438 8.03125 8.738281 8.09375 8.671875 C 8.152344 8.609375 8.316406 8.511719 8.585938 8.390625 C 9.332031 8.066406 9.972656 7.351563 10 6.390625 C 10.035156 5.253906 9.21875 4.226563 8.089844 4.03125 C 7.910156 4.003906 7.730469 3.992188 7.558594 4 Z M 7 10 L 7 11 L 8 11 L 8 10 Z"/></svg>