<svg fill="#000000" xmlns="http://www.w3.org/2000/svg" viewBox="0 0 16 16" width="16px" height="16px"><path d="M 11.378906 1 C 10.683594 1 10.027344 1.273438 9.539063 1.765625 L 7.730469 3.570313 C 7.082031 4.21875 6.851563 5.128906 7.039063 5.972656 L 8.039063 4.976563 C 8.109375 4.71875 8.238281 4.476563 8.4375 4.277344 L 10.246094 2.46875 C 10.550781 2.167969 10.953125 2 11.378906 2 C 11.808594 2 12.210938 2.167969 12.53125 2.488281 C 12.835938 2.792969 13.003906 3.195313 13.003906 3.625 C 13.003906 4.050781 12.835938 4.457031 12.53125 4.757813 L 10.726563 6.566406 C 10.535156 6.757813 10.292969 6.886719 10.039063 6.957031 L 9.027344 7.96875 C 9.210938 8.011719 9.398438 8.035156 9.59375 8.035156 C 10.289063 8.035156 10.941406 7.765625 11.433594 7.273438 L 13.238281 5.46875 C 14.253906 4.449219 14.257813 2.796875 13.222656 1.765625 C 12.730469 1.273438 12.078125 1 11.378906 1 Z M 9.492188 4.996094 C 9.363281 5 9.242188 5.054688 9.148438 5.148438 L 5.148438 9.148438 C 4.953125 9.339844 4.953125 9.660156 5.148438 9.855469 C 5.34375 10.050781 5.660156 10.050781 5.859375 9.855469 L 9.859375 5.855469 C 10.007813 5.710938 10.050781 5.492188 9.96875 5.300781 C 9.890625 5.109375 9.699219 4.988281 9.492188 4.996094 Z M 5.414063 6.964844 C 4.71875 6.964844 4.066406 7.234375 3.574219 7.726563 L 1.765625 9.535156 C 0.75 10.550781 0.75 12.203125 1.785156 13.238281 C 2.292969 13.746094 2.960938 14 3.625 14 C 4.292969 14 4.960938 13.746094 5.46875 13.238281 L 7.273438 11.433594 C 7.925781 10.78125 8.15625 9.871094 7.96875 9.03125 L 6.96875 10.027344 C 6.898438 10.28125 6.769531 10.523438 6.570313 10.722656 L 4.761719 12.53125 C 4.136719 13.15625 3.113281 13.15625 2.472656 12.511719 C 2.167969 12.207031 2.003906 11.804688 2.003906 11.375 C 2.003906 10.949219 2.167969 10.546875 2.472656 10.242188 L 4.28125 8.433594 C 4.476563 8.238281 4.71875 8.105469 4.976563 8.03125 L 5.980469 7.03125 C 5.796875 6.992188 5.609375 6.964844 5.414063 6.964844 Z"/></svg>