<svg fill="#000000" xmlns="http://www.w3.org/2000/svg" viewBox="0 0 16 16" width="16px" height="16px"><path d="M 1.5 2 C 0.675781 2 0 2.675781 0 3.5 L 0 10.5 C 0 11.324219 0.675781 12 1.5 12 L 6.992188 12 C 6.992188 12.160156 6.992188 12.328125 6.992188 12.511719 C 6.996094 12.757813 6.996094 12.816406 6.996094 13 L 4 13 L 4 14 L 11 14 L 11 13 L 7.996094 13 C 7.996094 12.816406 7.996094 12.753906 7.992188 12.507813 C 7.992188 12.324219 7.992188 12.160156 7.992188 12 L 13.5 12 C 14.324219 12 15 11.324219 15 10.5 L 15 3.5 C 15 2.675781 14.324219 2 13.5 2 Z M 1.5 3 L 13.5 3 C 13.78125 3 14 3.21875 14 3.5 L 14 10.5 C 14 10.78125 13.78125 11 13.5 11 L 1.5 11 C 1.21875 11 1 10.78125 1 10.5 L 1 3.5 C 1 3.21875 1.21875 3 1.5 3 Z"/></svg>