<svg fill="#000000" xmlns="http://www.w3.org/2000/svg" viewBox="0 0 16 16" width="16px" height="16px"><path d="M 13 1 L 13 2 L 12 2 L 12 3 L 13 3 L 13 4 L 14 4 L 14 3 L 15 3 L 15 2 L 14 2 L 14 1 Z M 5.125 1.542969 C 5.027344 1.523438 4.925781 1.535156 4.828125 1.578125 C 2.503906 2.628906 1 4.953125 1 7.5 C 1 11.085938 3.914063 14 7.5 14 C 10.046875 14 12.371094 12.496094 13.421875 10.171875 C 13.507813 9.984375 13.464844 9.757813 13.316406 9.609375 C 13.171875 9.464844 12.949219 9.425781 12.761719 9.507813 C 12.039063 9.835938 11.28125 10 10.5 10 C 7.46875 10 5 7.53125 5 4.5 C 5 3.71875 5.164063 2.960938 5.492188 2.242188 C 5.578125 2.050781 5.535156 1.828125 5.390625 1.679688 C 5.316406 1.605469 5.222656 1.5625 5.125 1.542969 Z M 8 2 L 8 3 L 9 3 L 9 2 Z M 4.140625 3.148438 C 4.046875 3.589844 4 4.042969 4 4.5 C 4 8.085938 6.914063 11 10.5 11 C 10.957031 11 11.410156 10.953125 11.851563 10.859375 C 10.824219 12.1875 9.222656 13 7.5 13 C 4.46875 13 2 10.53125 2 7.5 C 2 5.777344 2.8125 4.175781 4.140625 3.148438 Z M 10 5 L 10 6 L 9 6 L 9 7 L 10 7 L 10 8 L 11 8 L 11 7 L 12 7 L 12 6 L 11 6 L 11 5 Z"/></svg>