<svg fill="#000000" xmlns="http://www.w3.org/2000/svg" viewBox="0 0 16 16" width="16px" height="16px"><path d="M 2.5 2 A 0.50005 0.50005 0 0 0 2 2.5 L 2 4.5 A 0.50005 0.50005 0 0 0 2.5 5 L 13.5 5 A 0.50005 0.50005 0 0 0 14 4.5 L 14 2.5 A 0.50005 0.50005 0 0 0 13.5 2 L 2.5 2 z M 3 3 L 13 3 L 13 4 L 3 4 L 3 3 z M 2.5 6 A 0.50005 0.50005 0 0 0 2 6.5 L 2 8.5 A 0.50005 0.50005 0 0 0 2.5 9 L 13.5 9 A 0.50005 0.50005 0 0 0 14 8.5 L 14 6.5 A 0.50005 0.50005 0 0 0 13.5 6 L 2.5 6 z M 3 7 L 13 7 L 13 8 L 3 8 L 3 7 z M 2.5 10 A 0.50005 0.50005 0 0 0 2 10.5 L 2 12.5 A 0.50005 0.50005 0 0 0 2.5 13 L 13.5 13 A 0.50005 0.50005 0 0 0 14 12.5 L 14 10.5 A 0.50005 0.50005 0 0 0 13.5 10 L 2.5 10 z M 3 11 L 13 11 L 13 12 L 3 12 L 3 11 z"/></svg>