<?xml version="1.0" encoding="utf-8"?>
<!-- Generator: Adobe Illustrator 21.0.2, SVG Export Plug-In . SVG Version: 6.00 Build 0)  -->
<svg version="1.1" id="Layer_1" xmlns="http://www.w3.org/2000/svg" xmlns:xlink="http://www.w3.org/1999/xlink" x="0px" y="0px"
	 viewBox="0 0 16 16" style="enable-background:new 0 0 16 16;" xml:space="preserve">
<g>
	<path d="M9.7,11.9l-1.9,1c-0.2,0.1-0.4,0-0.4,0c-0.1,0-0.2-0.2-0.2-0.4L8,8.3c0.1-0.5-0.1-1.1-0.6-1.4s-1-0.4-1.5-0.1l-1.8,1
		l0.5,0.9l1.8-1c0.2-0.1,0.4,0,0.4,0c0.1,0,0.2,0.2,0.2,0.4l-0.8,4.1c-0.1,0.5,0.1,1.1,0.5,1.4C7,13.9,7.3,14,7.6,14
		c0.2,0,0.5-0.1,0.7-0.2l1.9-1L9.7,11.9z"/>
	<circle cx="8.5" cy="4.5" r="0.7"/>
</g>
</svg>
