<svg fill="#000000" xmlns="http://www.w3.org/2000/svg" viewBox="0 0 16 16" width="16px" height="16px"><path d="M 10.269531 1.023438 L 8.148438 3.148438 C 8.144531 3.148438 8.144531 3.148438 8.144531 3.148438 C 8.144531 3.148438 8.144531 3.148438 8.140625 3.148438 C 6.972656 4.347656 5.746094 5 3.5 5 L 3.085938 5 L 3.007813 5.40625 C 2.457031 8.234375 1.265625 13.128906 1.265625 13.128906 L 1.070313 13.925781 L 1.867188 13.734375 C 1.867188 13.734375 6.828125 12.558594 9.601563 11.988281 L 10 11.90625 L 10 11.5 C 10 9.203125 10.671875 8.0625 11.855469 6.851563 L 13.980469 4.726563 L 13.269531 4.023438 L 11.5 5.792969 L 9.207031 3.5 L 10.980469 1.726563 Z M 8.488281 4.195313 L 10.8125 6.515625 C 9.808594 7.671875 9.171875 9.074219 9.078125 11.082031 C 6.964844 11.523438 4.628906 12.070313 3.335938 12.375 L 6.742188 8.964844 C 6.828125 8.988281 6.914063 9 7 9 C 7.550781 9 8 8.550781 8 8 C 8 7.449219 7.550781 7 7 7 C 6.449219 7 6 7.449219 6 8 C 6 8.085938 6.011719 8.171875 6.035156 8.257813 L 2.632813 11.660156 C 2.9375 10.378906 3.480469 8.074219 3.914063 5.921875 C 5.890625 5.832031 7.332031 5.222656 8.488281 4.195313 Z"/></svg>