<?xml version="1.0" encoding="utf-8"?>
<!-- Generator: Adobe Illustrator 21.0.2, SVG Export Plug-In . SVG Version: 6.00 Build 0)  -->
<svg version="1.1" id="Layer_1" xmlns="http://www.w3.org/2000/svg" xmlns:xlink="http://www.w3.org/1999/xlink" x="0px" y="0px"
	 viewBox="0 0 16 16" style="enable-background:new 0 0 16 16;" xml:space="preserve">
<style type="text/css">
	.st0{fill:#B9C1CB;}
</style>
<path class="st0" d="M2.5,2C2.2,2,2,2.2,2,2.5v2C2,4.8,2.2,5,2.5,5h2C4.8,5,5,4.8,5,4.5v-2C5,2.2,4.8,2,4.5,2H2.5z M6.5,2
	C6.2,2,6,2.2,6,2.5v2C6,4.8,6.2,5,6.5,5h2C8.8,5,9,4.8,9,4.5v-2C9,2.2,8.8,2,8.5,2H6.5z M10.5,2C10.2,2,10,2.2,10,2.5v2
	C10,4.8,10.2,5,10.5,5h2C12.8,5,13,4.8,13,4.5v-2C13,2.2,12.8,2,12.5,2H10.5z M3,3h1v1H3V3z M7,3h1v1H7V3z M11,3h1v1h-1V3z M2.5,6
	C2.2,6,2,6.2,2,6.5v2C2,8.8,2.2,9,2.5,9h2C4.8,9,5,8.8,5,8.5v-2C5,6.2,4.8,6,4.5,6H2.5z M6.5,6C6.2,6,6,6.2,6,6.5v2
	C6,8.8,6.2,9,6.5,9h2C8.8,9,9,8.8,9,8.5v-2C9,6.2,8.8,6,8.5,6H6.5z M10.5,6C10.2,6,10,6.2,10,6.5v2C10,8.8,10.2,9,10.5,9h2
	C12.8,9,13,8.8,13,8.5v-2C13,6.2,12.8,6,12.5,6H10.5z M3,7h1v1H3V7z M7,7h1v1H7V7z M11,7h1v1h-1V7z M2.5,10C2.2,10,2,10.2,2,10.5v2
	C2,12.8,2.2,13,2.5,13h2C4.8,13,5,12.8,5,12.5v-2C5,10.2,4.8,10,4.5,10H2.5z M6.5,10C6.2,10,6,10.2,6,10.5v2C6,12.8,6.2,13,6.5,13h2
	C8.8,13,9,12.8,9,12.5v-2C9,10.2,8.8,10,8.5,10H6.5z M10.5,10c-0.3,0-0.5,0.2-0.5,0.5v2c0,0.3,0.2,0.5,0.5,0.5h2
	c0.3,0,0.5-0.2,0.5-0.5v-2c0-0.3-0.2-0.5-0.5-0.5H10.5z M3,11h1v1H3V11z M7,11h1v1H7V11z M11,11h1v1h-1V11z"/>
</svg>
