<svg fill="#000000" xmlns="http://www.w3.org/2000/svg" viewBox="0 0 16 16" width="16px" height="16px"><path d="M 11 1 C 8.796875 1 7 2.796875 7 5 C 7 5.355469 7.09375 5.675781 7.179688 5.992188 L 6.9375 6.234375 L 5 4.292969 L 5 2.722656 L 4.765625 2.578125 L 2.429688 1.117188 L 1.117188 2.40625 L 2.71875 5 L 4.292969 5 L 6.234375 6.9375 L 2.585938 10.585938 C 1.808594 11.363281 1.808594 12.636719 2.585938 13.414063 C 3.363281 14.191406 4.636719 14.191406 5.414063 13.414063 L 8 10.828125 L 10.585938 13.414063 C 11.363281 14.191406 12.636719 14.191406 13.414063 13.414063 C 14.191406 12.636719 14.191406 11.363281 13.414063 10.585938 L 11.75 8.921875 C 13.597656 8.570313 15 6.945313 15 5 C 15 4.332031 14.820313 3.710938 14.539063 3.167969 L 14.222656 2.5625 L 13.742188 3.046875 L 11.59375 5.191406 L 10.808594 4.40625 L 13.4375 1.773438 L 12.832031 1.460938 C 12.289063 1.179688 11.667969 1 11 1 Z M 11 2 C 11.226563 2 11.421875 2.109375 11.636719 2.164063 L 9.394531 4.40625 L 11.59375 6.605469 L 13.839844 4.363281 C 13.890625 4.578125 14 4.773438 14 5 C 14 6.664063 12.664063 8 11 8 C 10.65625 8 10.328125 7.929688 10 7.8125 L 9.703125 7.710938 L 4.707031 12.707031 C 4.3125 13.101563 3.6875 13.101563 3.292969 12.707031 C 2.898438 12.3125 2.898438 11.6875 3.292969 11.292969 L 8.289063 6.296875 L 8.1875 6 C 8.070313 5.671875 8 5.34375 8 5 C 8 3.335938 9.335938 2 11 2 Z M 2.570313 2.382813 L 4 3.277344 L 4 3.917969 L 3.917969 4 L 3.28125 4 L 2.386719 2.558594 Z M 10.007813 8.820313 C 10.109375 8.847656 10.210938 8.871094 10.3125 8.898438 L 12.707031 11.292969 C 13.101563 11.6875 13.101563 12.3125 12.707031 12.707031 C 12.3125 13.101563 11.6875 13.101563 11.292969 12.707031 L 8.707031 10.121094 Z"/></svg>