<?xml version="1.0" encoding="utf-8"?>
<!-- Generator: Adobe Illustrator 21.0.2, SVG Export Plug-In . SVG Version: 6.00 Build 0)  -->
<svg version="1.1" id="Layer_1" xmlns="http://www.w3.org/2000/svg" xmlns:xlink="http://www.w3.org/1999/xlink" x="0px" y="0px"
	 viewBox="0 0 16 16" style="enable-background:new 0 0 16 16;" xml:space="preserve">
<g>
	<path d="M13.6,3.9C12.3,2.1,10.3,1,8,1C4.1,1,1,4.1,1,8h1c0-3.3,2.7-6,6-6c2,0,3.8,1,4.9,2.6l-0.3,0.3L11.5,6H15V2.5L13.6,3.9z"/>
	<path d="M8,14c-2,0-3.8-1-4.9-2.6l0.3-0.3L4.5,10H1v3.5l1.4-1.4C3.7,13.9,5.7,15,8,15c3.9,0,7-3.1,7-7h-1C14,11.3,11.3,14,8,14z"/>
</g>
</svg>
