<?xml version="1.0" encoding="utf-8"?>
<!-- Generator: Adobe Illustrator 21.0.2, SVG Export Plug-In . SVG Version: 6.00 Build 0)  -->
<svg version="1.1" id="Layer_1" xmlns="http://www.w3.org/2000/svg" xmlns:xlink="http://www.w3.org/1999/xlink" x="0px" y="0px"
	 viewBox="0 0 16 16" style="enable-background:new 0 0 16 16;" xml:space="preserve">
<g>
	<path d="M14.5,1h-13C1.2,1,1,1.2,1,1.5v13C1,14.8,1.2,15,1.5,15h13c0.3,0,0.5-0.2,0.5-0.5v-13C15,1.2,14.8,1,14.5,1z M14,14H2V2h12
		V14z"/>
	<path d="M4.5,7h7C11.8,7,12,6.8,12,6.5S11.8,6,11.5,6h-7C4.2,6,4,6.2,4,6.5S4.2,7,4.5,7z"/>
	<path d="M9.5,9h-3C6.2,9,6,9.2,6,9.5S6.2,10,6.5,10h3C9.8,10,10,9.8,10,9.5S9.8,9,9.5,9z"/>
</g>
</svg>
