<?xml version="1.0" encoding="utf-8"?>
<!-- Generator: Adobe Illustrator 21.0.2, SVG Export Plug-In . SVG Version: 6.00 Build 0)  -->
<svg version="1.1" id="Layer_1" xmlns="http://www.w3.org/2000/svg" xmlns:xlink="http://www.w3.org/1999/xlink" x="0px" y="0px"
	 viewBox="0 0 16 16" style="enable-background:new 0 0 16 16;" xml:space="preserve">
<g>
	<path d="M5.5,6h-1C4.2,6,4,6.2,4,6.5S4.2,7,4.5,7h1C5.8,7,6,6.8,6,6.5S5.8,6,5.5,6z"/>
	<path d="M5.5,9h-1C4.2,9,4,9.2,4,9.5S4.2,10,4.5,10h1C5.8,10,6,9.8,6,9.5S5.8,9,5.5,9z"/>
	<path d="M5.5,14H2V2h12v6.5C14,8.8,14.2,9,14.5,9S15,8.8,15,8.5v-7C15,1.2,14.8,1,14.5,1h-13C1.2,1,1,1.2,1,1.5v13
		C1,14.8,1.2,15,1.5,15h4C5.8,15,6,14.8,6,14.5S5.8,14,5.5,14z"/>
	<path d="M15.5,11.6L14.9,11L7.9,4.1C7.9,4,7.8,3.9,7.7,3.9c-0.1,0-0.2,0-0.3,0C7.2,4,7,4.2,7,4.5v10.8l2.8-1.8l1.3,2.6l2.4-1.3
		l-1.2-2.3L15.5,11.6z M11.5,14.7L10.2,12L8,13.4V5.5l5.5,5.5l-2.6,0.7l1.3,2.6L11.5,14.7z"/>
</g>
</svg>
