<?xml version="1.0" encoding="utf-8"?>
<!-- Generator: Adobe Illustrator 21.0.2, SVG Export Plug-In . SVG Version: 6.00 Build 0)  -->
<svg version="1.1" id="Layer_1" xmlns="http://www.w3.org/2000/svg" xmlns:xlink="http://www.w3.org/1999/xlink" x="0px" y="0px"
	 viewBox="0 0 16 16" style="enable-background:new 0 0 16 16;" xml:space="preserve">
<g>
	<path d="M14.5,1h-13C1.2,1,1,1.2,1,1.5v9C1,10.8,1.2,11,1.5,11h13c0.3,0,0.5-0.2,0.5-0.5v-9C15,1.2,14.8,1,14.5,1z M14,2v5.3
		l-2.6-2.6c-0.2-0.2-0.5-0.2-0.7,0L9,6.3L6.4,3.6c-0.2-0.2-0.5-0.2-0.7,0L2,7.3V2H14z M2,10V8.7l4-4l2.6,2.6c0.2,0.2,0.5,0.2,0.7,0
		L11,5.7l3,3V10H2z"/>
	<path d="M12.5,14h-9C3.2,14,3,14.2,3,14.5S3.2,15,3.5,15h9c0.3,0,0.5-0.2,0.5-0.5S12.8,14,12.5,14z"/>
</g>
</svg>
