<svg fill="#000000" xmlns="http://www.w3.org/2000/svg" viewBox="0 0 16 16" width="16px" height="16px"><path d="M 1.5 3 C 1.222656 3 1 3.222656 1 3.5 L 1 5.5 C 1 5.777344 1.222656 6 1.5 6 L 3.5 6 C 3.777344 6 4 5.777344 4 5.5 L 4 3.5 C 4 3.222656 3.777344 3 3.5 3 Z M 8.5 3 C 8.222656 3 8 3.222656 8 3.5 L 8 5.5 C 8 5.777344 8.222656 6 8.5 6 L 10.5 6 C 10.777344 6 11 5.777344 11 5.5 L 11 3.5 C 11 3.222656 10.777344 3 10.5 3 Z M 2 4 L 3 4 L 3 5 L 2 5 Z M 5 4 L 5 5 L 7 5 L 7 4 Z M 9 4 L 10 4 L 10 5 L 9 5 Z M 12 4 L 12 5 L 14 5 L 14 4 Z M 1.5 7 C 1.222656 7 1 7.222656 1 7.5 L 1 9.5 C 1 9.777344 1.222656 10 1.5 10 L 3.5 10 C 3.777344 10 4 9.777344 4 9.5 L 4 7.5 C 4 7.222656 3.777344 7 3.5 7 Z M 8.5 7 C 8.222656 7 8 7.222656 8 7.5 L 8 9.5 C 8 9.777344 8.222656 10 8.5 10 L 10.5 10 C 10.777344 10 11 9.777344 11 9.5 L 11 7.5 C 11 7.222656 10.777344 7 10.5 7 Z M 2 8 L 3 8 L 3 9 L 2 9 Z M 5 8 L 5 9 L 7 9 L 7 8 Z M 9 8 L 10 8 L 10 9 L 9 9 Z M 12 8 L 12 9 L 14 9 L 14 8 Z M 1.5 11 C 1.222656 11 1 11.222656 1 11.5 L 1 13.5 C 1 13.777344 1.222656 14 1.5 14 L 3.5 14 C 3.777344 14 4 13.777344 4 13.5 L 4 11.5 C 4 11.222656 3.777344 11 3.5 11 Z M 8.5 11 C 8.222656 11 8 11.222656 8 11.5 L 8 13.5 C 8 13.777344 8.222656 14 8.5 14 L 10.5 14 C 10.777344 14 11 13.777344 11 13.5 L 11 11.5 C 11 11.222656 10.777344 11 10.5 11 Z M 2 12 L 3 12 L 3 13 L 2 13 Z M 5 12 L 5 13 L 7 13 L 7 12 Z M 9 12 L 10 12 L 10 13 L 9 13 Z M 12 12 L 12 13 L 14 13 L 14 12 Z"/></svg>