<svg fill="#000000" xmlns="http://www.w3.org/2000/svg" viewBox="0 0 16 16" width="16px" height="16px"><path d="M 8 1 C 5.2447116 1 3 3.2447116 3 6 C 3 8.6770524 5.1317752 10.83258 7.7792969 10.955078 C 7.6458293 11.37467 7.5004886 11.815201 7.1875 12.169922 C 6.757366 12.657407 6.3300781 12.972656 6.3300781 12.972656 L 5.921875 13.271484 L 7.2128906 14.992188 L 7.5761719 14.832031 C 7.5761719 14.832031 13 12.41578 13 6.25 L 13 6 C 13 3.2634909 10.880873 1 8 1 z M 8 2 C 10.369127 2 12 3.7665091 12 6 L 12 6.25 C 12 11.470588 8.0376076 13.432173 7.4882812 13.691406 L 7.2929688 13.429688 C 7.4860135 13.271173 7.6162317 13.194182 7.9375 12.830078 C 8.444866 12.255063 9 11.458333 9 10.5 L 9 10 L 8 10 C 5.7852884 10 4 8.2147116 4 6 C 4 3.7852884 5.7852884 2 8 2 z"/></svg>