<svg fill="#000000" xmlns="http://www.w3.org/2000/svg" viewBox="0 0 16 16" width="16px" height="16px"><path d="M 7.5 1 C 5.582031 1 3.855469 1.839844 2.664063 3.164063 L 1 1.5 L 1 5 L 4.5 5 L 3.375 3.875 C 4.382813 2.730469 5.851563 2 7.5 2 C 10.542969 2 13 4.457031 13 7.5 C 13 10.542969 10.542969 13 7.5 13 C 4.457031 13 2 10.542969 2 7.5 L 2 7 L 1 7 L 1 7.5 C 1 11.085938 3.914063 14 7.5 14 C 11.085938 14 14 11.085938 14 7.5 C 14 3.914063 11.085938 1 7.5 1 Z M 7.5 6 C 6.675781 6 6 6.675781 6 7.5 C 6 8.324219 6.675781 9 7.5 9 C 8.324219 9 9 8.324219 9 7.5 C 9 6.675781 8.324219 6 7.5 6 Z M 7.5 7 C 7.78125 7 8 7.21875 8 7.5 C 8 7.78125 7.78125 8 7.5 8 C 7.21875 8 7 7.78125 7 7.5 C 7 7.21875 7.21875 7 7.5 7 Z"/></svg>