<svg fill="#000000" xmlns="http://www.w3.org/2000/svg" viewBox="0 0 16 16" width="16px" height="16px"><path d="M 2.5 1 A 0.5 0.5 0 0 0 2 1.5 A 0.5 0.5 0 0 0 2.5 2 A 0.5 0.5 0 0 0 3 1.5 A 0.5 0.5 0 0 0 2.5 1 z M 4.5 1 A 0.5 0.5 0 0 0 4 1.5 A 0.5 0.5 0 0 0 4.5 2 A 0.5 0.5 0 0 0 5 1.5 A 0.5 0.5 0 0 0 4.5 1 z M 6.5 1 A 0.5 0.5 0 0 0 6 1.5 A 0.5 0.5 0 0 0 6.5 2 A 0.5 0.5 0 0 0 7 1.5 A 0.5 0.5 0 0 0 6.5 1 z M 8 1 L 8 2 C 10.767866 2 13 4.2321339 13 7 L 14 7 C 14 3.6918661 11.308134 1 8 1 z M 1.5 2 A 0.5 0.5 0 0 0 1 2.5 A 0.5 0.5 0 0 0 1.5 3 A 0.5 0.5 0 0 0 2 2.5 A 0.5 0.5 0 0 0 1.5 2 z M 1.5 4 A 0.5 0.5 0 0 0 1 4.5 A 0.5 0.5 0 0 0 1.5 5 A 0.5 0.5 0 0 0 2 4.5 A 0.5 0.5 0 0 0 1.5 4 z M 1.5 6 A 0.5 0.5 0 0 0 1 6.5 A 0.5 0.5 0 0 0 1.5 7 A 0.5 0.5 0 0 0 2 6.5 A 0.5 0.5 0 0 0 1.5 6 z M 1.5 8 A 0.5 0.5 0 0 0 1 8.5 A 0.5 0.5 0 0 0 1.5 9 A 0.5 0.5 0 0 0 2 8.5 A 0.5 0.5 0 0 0 1.5 8 z M 13.5 8 A 0.5 0.5 0 0 0 13 8.5 A 0.5 0.5 0 0 0 13.5 9 A 0.5 0.5 0 0 0 14 8.5 A 0.5 0.5 0 0 0 13.5 8 z M 1.5 10 A 0.5 0.5 0 0 0 1 10.5 A 0.5 0.5 0 0 0 1.5 11 A 0.5 0.5 0 0 0 2 10.5 A 0.5 0.5 0 0 0 1.5 10 z M 13.5 10 A 0.5 0.5 0 0 0 13 10.5 A 0.5 0.5 0 0 0 13.5 11 A 0.5 0.5 0 0 0 14 10.5 A 0.5 0.5 0 0 0 13.5 10 z M 1.5 12 A 0.5 0.5 0 0 0 1 12.5 A 0.5 0.5 0 0 0 1.5 13 A 0.5 0.5 0 0 0 2 12.5 A 0.5 0.5 0 0 0 1.5 12 z M 13.5 12 A 0.5 0.5 0 0 0 13 12.5 A 0.5 0.5 0 0 0 13.5 13 A 0.5 0.5 0 0 0 14 12.5 A 0.5 0.5 0 0 0 13.5 12 z M 2.5 13 A 0.5 0.5 0 0 0 2 13.5 A 0.5 0.5 0 0 0 2.5 14 A 0.5 0.5 0 0 0 3 13.5 A 0.5 0.5 0 0 0 2.5 13 z M 4.5 13 A 0.5 0.5 0 0 0 4 13.5 A 0.5 0.5 0 0 0 4.5 14 A 0.5 0.5 0 0 0 5 13.5 A 0.5 0.5 0 0 0 4.5 13 z M 6.5 13 A 0.5 0.5 0 0 0 6 13.5 A 0.5 0.5 0 0 0 6.5 14 A 0.5 0.5 0 0 0 7 13.5 A 0.5 0.5 0 0 0 6.5 13 z M 8.5 13 A 0.5 0.5 0 0 0 8 13.5 A 0.5 0.5 0 0 0 8.5 14 A 0.5 0.5 0 0 0 9 13.5 A 0.5 0.5 0 0 0 8.5 13 z M 10.5 13 A 0.5 0.5 0 0 0 10 13.5 A 0.5 0.5 0 0 0 10.5 14 A 0.5 0.5 0 0 0 11 13.5 A 0.5 0.5 0 0 0 10.5 13 z M 12.5 13 A 0.5 0.5 0 0 0 12 13.5 A 0.5 0.5 0 0 0 12.5 14 A 0.5 0.5 0 0 0 13 13.5 A 0.5 0.5 0 0 0 12.5 13 z"/></svg>