<?xml version="1.0" encoding="utf-8"?>
<!-- Generator: Adobe Illustrator 21.0.2, SVG Export Plug-In . SVG Version: 6.00 Build 0)  -->
<svg version="1.1" id="Layer_1" xmlns="http://www.w3.org/2000/svg" xmlns:xlink="http://www.w3.org/1999/xlink" x="0px" y="0px"
	 viewBox="0 0 16 16" style="enable-background:new 0 0 16 16;" xml:space="preserve">
<g>
	<path d="M14,7.8V3.5L11.5,1H2.6C1.7,1,1,1.7,1,2.6v9.8C1,13.3,1.7,14,2.6,14h5.2c0.8,1.2,2.2,2,3.7,2c2.5,0,4.5-2,4.5-4.5
		C16,9.9,15.2,8.6,14,7.8z M4,2h3v2h2V2h1v2.1C10,4.7,9.7,5,9.3,5H4.7C4.3,5,4,4.7,4,4.1V2z M7.3,13H5v-2.5C5,10.2,5.2,10,5.5,10
		h1.8C7.1,10.5,7,11,7,11.5S7.1,12.5,7.3,13z M5.5,9C4.7,9,4,9.7,4,10.5V13H2.6C2.3,13,2,12.7,2,12.4V2.6C2,2.3,2.3,2,2.6,2H3v2.1
		C3,5.1,3.7,6,4.7,6h4.7c1,0,1.7-0.9,1.7-1.9V2h0.1L13,3.9v3.4C12.5,7.1,12,7,11.5,7C9.9,7,8.6,7.8,7.8,9H5.5z M11.5,15
		C9.6,15,8,13.4,8,11.5S9.6,8,11.5,8S15,9.6,15,11.5S13.4,15,11.5,15z"/>
	<polygon points="12,11 12,9 11,9 11,11 9,11 9,12 11,12 11,14 12,14 12,12 14,12 14,11 	"/>
</g>
</svg>
