<?xml version="1.0" encoding="utf-8"?>
<!-- Generator: Adobe Illustrator 21.0.2, SVG Export Plug-In . SVG Version: 6.00 Build 0)  -->
<svg version="1.1" id="Layer_1" xmlns="http://www.w3.org/2000/svg" xmlns:xlink="http://www.w3.org/1999/xlink" x="0px" y="0px"
	 viewBox="0 0 90 70" style="enable-background:new 0 0 90 70;" xml:space="preserve">
<g>
	<path d="M0,0v70h90V0H0z M89,69H1V1h88V69z"/>
	<rect x="12" y="17" width="30" height="1"/>
	<rect x="12" y="21" width="27" height="1"/>
	<rect x="12" y="25" width="30" height="1"/>
	<rect x="55" y="16" width="16" height="1"/>
	<rect x="55" y="20" width="13" height="1"/>
	<rect x="55" y="24" width="16" height="1"/>
	<rect x="55" y="28" width="13" height="1"/>
	<rect x="55" y="32" width="16" height="1"/>
	<rect x="55" y="36" width="13" height="1"/>
	<rect x="55" y="40" width="16" height="1"/>
	<rect x="12" y="39" width="30" height="1"/>
	<rect x="12" y="43" width="27" height="1"/>
	<rect x="12" y="47" width="30" height="1"/>
	<path d="M48,49V50l1-1h0l0,0l0.1-0.1l1.7-1.6l1.7,1.6l0.7,0.6l0.7-0.6l1.7-1.6l1.7,1.6l0.7,0.6l0.7-0.6l1.7-1.6l1.7,1.6l0.7,0.6
		l0.7-0.6l1.7-1.6l1.7,1.6l0.7,0.6l0.7-0.6l1.7-1.6l1.7,1.6l0.7,0.6l0.7-0.6l1.7-1.6l1.8,1.6l0.1,0.1l0,0l0,0l1,1v-1v0v-1.1V10H48
		v37.9V49L48,49L48,49L48,49L48,49z M49,11h28v36.6l-1.9-1.8l-2.4,2.3l-2.4-2.3l-2.4,2.3l-2.4-2.3L63,48.1l-2.4-2.3l-2.4,2.3
		l-2.4-2.3l-2.4,2.3l-2.4-2.3L49,47.6V11z"/>
	<path d="M16,32h-4v4h4V32z M15,35h-2v-2h2V35z"/>
	<path d="M16,10h-4v4h4V10z M15,13h-2v-2h2V13z"/>
	<path d="M75,55H61c-1.7,0-3,1.3-3,3s1.3,3,3,3h14c1.7,0,3-1.3,3-3S76.7,55,75,55z M75,60H61c-1.1,0-2-0.9-2-2s0.9-2,2-2h14
		c1.1,0,2,0.9,2,2S76.1,60,75,60z"/>
</g>
</svg>
