<?xml version="1.0" encoding="utf-8"?>
<!-- Generator: Adobe Illustrator 21.0.2, SVG Export Plug-In . SVG Version: 6.00 Build 0)  -->
<svg version="1.1" id="Layer_1" xmlns="http://www.w3.org/2000/svg" xmlns:xlink="http://www.w3.org/1999/xlink" x="0px" y="0px"
	 viewBox="0 0 90 70" style="enable-background:new 0 0 90 70;" xml:space="preserve">
<g>
	<path d="M0,0v70h90V0H0z M89,69H1V1h88V69z"/>
	<rect x="24" y="47" width="42" height="1"/>
	<rect x="24" y="35" width="39" height="1"/>
	<rect x="24" y="43" width="39" height="1"/>
	<rect x="24" y="27" width="39" height="1"/>
	<polygon points="43.9,3.9 43.9,15 45,15 45,3.8 47.3,6 48,5.3 44.5,2 41,5.3 41.7,6 	"/>
	<rect x="24" y="23" width="42" height="1"/>
	<polygon points="6,38.3 3.8,36 15,36 15,35 3.8,35 6,32.7 5.3,32 2,35.5 5.3,39 	"/>
	<rect x="24" y="39" width="42" height="1"/>
	<path d="M43.9,66.1L41.7,64L41,64.7l3.5,3.3l3.5-3.3L47.3,64L45,66.2V55h30V36h11.2L84,38.3l0.7,0.7l3.3-3.5L84.7,32L84,32.7
		l2.2,2.3H75V15H15v40h28.9V66.1z M16,16h58v38H16V16z"/>
	<rect x="24" y="31" width="42" height="1"/>
</g>
</svg>
