<?xml version="1.0" encoding="utf-8"?>
<!-- Generator: Adobe Illustrator 21.0.2, SVG Export Plug-In . SVG Version: 6.00 Build 0)  -->
<svg version="1.1" id="Layer_1" xmlns="http://www.w3.org/2000/svg" xmlns:xlink="http://www.w3.org/1999/xlink" x="0px" y="0px"
	 viewBox="0 0 70 90" style="enable-background:new 0 0 70 90;" xml:space="preserve">
<g>
	<path d="M4,83.5L4,83.5v0.1V90h32V62H4V83.5z M5,89v-5.1l4.2-4.2l4.9,4.9l11.5-9.9l9.4,7.9V89H5z M35,63v18.4l-9.4-7.9l-11.4,9.8
		l-4.9-4.9L5,82.5V63H35z"/>
	<path d="M13.8,73.4c1.5,0,2.7-1.2,2.7-2.7s-1.2-2.7-2.7-2.7c-1.5,0-2.7,1.2-2.7,2.7S12.3,73.4,13.8,73.4z M13.8,69.1
		c0.9,0,1.7,0.7,1.7,1.7s-0.7,1.7-1.7,1.7s-1.7-0.7-1.7-1.7S12.9,69.1,13.8,69.1z"/>
	<path d="M4,52.5L4,52.5v0.1V59h32V31H4V52.5z M5,58v-5.1l4.2-4.2l4.9,4.9l11.5-9.8l9.4,7.9V58H5z M35,32v18.4l-9.4-7.9l-11.4,9.8
		l-4.9-4.9L5,51.5V32H35z"/>
	<path d="M13.8,42.4c1.5,0,2.7-1.2,2.7-2.7s-1.2-2.7-2.7-2.7c-1.5,0-2.7,1.2-2.7,2.7S12.3,42.4,13.8,42.4z M13.8,38.1
		c0.9,0,1.7,0.7,1.7,1.7s-0.7,1.7-1.7,1.7s-1.7-0.7-1.7-1.7S12.9,38.1,13.8,38.1z"/>
	<path d="M4,21.5L4,21.5v0.1V28h32V0H4V21.5z M5,27v-5.1l4.2-4.2l4.9,4.9l11.5-9.9l9.4,7.9V27H5z M35,1v18.4l-9.4-7.9l-11.4,9.8
		l-4.9-4.9L5,20.5V1H35z"/>
	<path d="M13.8,11.4c1.5,0,2.7-1.2,2.7-2.7s-1.2-2.7-2.7-2.7c-1.5,0-2.7,1.2-2.7,2.7S12.3,11.4,13.8,11.4z M13.8,7.1
		c0.9,0,1.7,0.7,1.7,1.7s-0.7,1.7-1.7,1.7s-1.7-0.7-1.7-1.7S12.9,7.1,13.8,7.1z"/>
	<rect x="39" width="26" height="1"/>
	<rect x="39" y="4" width="22" height="1"/>
	<rect x="39" y="8" width="26" height="1"/>
	<rect x="39" y="12" width="22" height="1"/>
	<rect x="39" y="16" width="26" height="1"/>
	<rect x="39" y="20" width="22" height="1"/>
	<rect x="39" y="24" width="26" height="1"/>
	<rect x="39" y="28" width="22" height="1"/>
	<rect x="39" y="32" width="26" height="1"/>
	<rect x="39" y="36" width="22" height="1"/>
	<rect x="39" y="40" width="26" height="1"/>
	<rect x="39" y="44" width="22" height="1"/>
	<rect x="39" y="48" width="26" height="1"/>
	<rect x="39" y="52" width="22" height="1"/>
	<rect x="39" y="56" width="26" height="1"/>
	<rect x="39" y="60" width="22" height="1"/>
	<rect x="39" y="64" width="26" height="1"/>
	<rect x="39" y="68" width="22" height="1"/>
</g>
</svg>
