<?xml version="1.0" encoding="utf-8"?>
<!-- Generator: Adobe Illustrator 21.0.2, SVG Export Plug-In . SVG Version: 6.00 Build 0)  -->
<svg version="1.1" id="Layer_1" xmlns="http://www.w3.org/2000/svg" xmlns:xlink="http://www.w3.org/1999/xlink" x="0px" y="0px"
	 viewBox="0 0 90 70" style="enable-background:new 0 0 90 70;" xml:space="preserve">
<g>
	<path d="M15,12H2c-1.1,0-2,0.9-2,2s0.9,2,2,2h13c1.1,0,2-0.9,2-2S16.1,12,15,12z M15,15H2c-0.6,0-1-0.4-1-1s0.4-1,1-1h13
		c0.6,0,1,0.4,1,1S15.6,15,15,15z"/>
	<rect y="23" width="16" height="1"/>
	<rect y="29" width="16" height="1"/>
	<rect y="26" width="12" height="1"/>
	<rect y="32" width="7" height="1"/>
	<rect y="35" width="10" height="1"/>
	<rect y="47" width="7" height="1"/>
	<rect x="8" y="56" width="8" height="1"/>
	<rect x="8" y="59" width="6" height="1"/>
	<rect x="8" y="65" width="8" height="1"/>
	<rect x="8" y="68" width="6" height="1"/>
	<polygon points="15,44 1,44 1,43 0,43 0,44 0,45 0,46 1,46 1,45 15,45 15,46 16,46 16,45 16,44 16,43 15,43 	"/>
	<path d="M23,50h21V32H23V50z M24,33h19v16H24V33z"/>
	<path d="M23,70h21V52H23V70z M24,53h19v16H24V53z"/>
	<path d="M46,50h21V32H46V50z M47,33h19v16H47V33z"/>
	<path d="M46,70h21V52H46V70z M47,53h19v16H47V53z"/>
	<path d="M69,12v18h21V12H69z M89,29H70V13h19V29z"/>
	<path d="M69,50h21V32H69V50z M70,33h19v16H70V33z"/>
	<path d="M69,70h21V52H69V70z M70,53h19v16H70V53z"/>
	<path d="M23,30h21V12H23V30z M24,13h19v16H24V13z"/>
	<path d="M0,61h6v-6H0V61z M1,56h4v4H1V56z"/>
	<path d="M0,70h6v-6H0V70z M1,65h4v4H1V65z"/>
	<rect x="27" y="25" width="7" height="1"/>
	<path d="M46,30h21V12H46V30z M47,13h19v16H47V13z"/>
	<rect x="50" y="25" width="7" height="1"/>
	<rect x="27" y="45" width="7" height="1"/>
	<rect x="27" y="65" width="7" height="1"/>
	<rect x="50" y="45" width="7" height="1"/>
	<rect x="50" y="65" width="7" height="1"/>
	<rect x="73" y="25" width="7" height="1"/>
	<rect x="73" y="45" width="7" height="1"/>
	<rect x="73" y="65" width="7" height="1"/>
</g>
</svg>
