<?xml version="1.0" encoding="utf-8"?>
<!-- Generator: Adobe Illustrator 21.0.2, SVG Export Plug-In . SVG Version: 6.00 Build 0)  -->
<svg version="1.1" id="Layer_1" xmlns="http://www.w3.org/2000/svg" xmlns:xlink="http://www.w3.org/1999/xlink" x="0px" y="0px"
	 viewBox="0 0 90 70" style="enable-background:new 0 0 90 70;" xml:space="preserve">
<g>
	<path d="M0,35h21V0H0V35z M1,1h19v33H1V1z"/>
	<path d="M23,52h21V28H23V52z M24,29h19v22H24V29z"/>
	<path d="M23,70h21V54H23V70z M24,55h19v14H24V55z"/>
	<path d="M46,15h21V0H46V15z M47,1h19v13H47V1z"/>
	<path d="M46,39h21V17H46V39z M47,18h19v20H47V18z"/>
	<path d="M46,70h21V41H46V70z M47,42h19v27H47V42z"/>
	<path d="M69,0v29h21V0H69z M89,28H70V1h19V28z"/>
	<path d="M69,46h21V31H69V46z M70,32h19v13H70V32z"/>
	<path d="M69,70h21V48H69V70z M70,49h19v20H70V49z"/>
	<rect x="4" y="30" width="7" height="1"/>
	<path d="M0,70h21V37H0V70z M1,38h19v31H1V38z"/>
	<rect x="4" y="65" width="7" height="1"/>
	<rect x="27" y="47" width="7" height="1"/>
	<rect x="27" y="65" width="7" height="1"/>
	<rect x="50" y="10" width="7" height="1"/>
	<rect x="50" y="34" width="7" height="1"/>
	<path d="M23,26h21V0H23V26z M24,1h19v24H24V1z"/>
	<rect x="27" y="21" width="7" height="1"/>
	<rect x="50" y="65" width="7" height="1"/>
	<rect x="73" y="24" width="7" height="1"/>
	<rect x="73" y="41" width="7" height="1"/>
	<rect x="73" y="65" width="7" height="1"/>
</g>
</svg>
