<?xml version="1.0" encoding="utf-8"?>
<!-- Generator: Adobe Illustrator 21.0.2, SVG Export Plug-In . SVG Version: 6.00 Build 0)  -->
<svg version="1.1" id="Layer_1" xmlns="http://www.w3.org/2000/svg" xmlns:xlink="http://www.w3.org/1999/xlink" x="0px" y="0px"
	 viewBox="0 0 90 70" style="enable-background:new 0 0 90 70;" xml:space="preserve">
<style type="text/css">
	.st0{fill-rule:evenodd;clip-rule:evenodd;}
</style>
<g>
	<g>
		<path class="st0" d="M11,16h19v-1H11V16z M11,20h19v-1H11V20z M11,24h19v-1H11V24z M11,28h19v-1H11V28z M11,32h19v-1H11V32z
			 M11,36h19v-1H11V36z M11,40h19v-1H11V40z M11,44h19v-1H11V44z M11,48h19v-1H11V48z M11,52h19v-1H11V52z M11,56h19v-1H11V56z
			 M35,16h19v-1H35V16z M35,20h19v-1H35V20z M35,24h19v-1H35V24z M35,28h19v-1H35V28z M35,32h19v-1H35V32z M35,36h19v-1H35V36z
			 M35,40h19v-1H35V40z M35,44h19v-1H35V44z M35,48h19v-1H35V48z M35,52h19v-1H35V52z M35,56h19v-1H35V56z M59,15v1h19v-1H59z
			 M59,20h19v-1H59V20z M59,24h19v-1H59V24z M59,28h19v-1H59V28z M59,32h19v-1H59V32z M59,36h19v-1H59V36z M59,40h19v-1H59V40z
			 M59,44h19v-1H59V44z M59,48h19v-1H59V48z M59,52h19v-1H59V52z M59,56h19v-1H59V56z"/>
	</g>
</g>
<path d="M0,0v70h90V0H0z M89,69H1V1h88V69z"/>
</svg>
