<?xml version="1.0" encoding="utf-8"?>
<!-- Generator: Adobe Illustrator 21.0.2, SVG Export Plug-In . SVG Version: 6.00 Build 0)  -->
<svg version="1.1" id="Layer_1" xmlns="http://www.w3.org/2000/svg" xmlns:xlink="http://www.w3.org/1999/xlink" x="0px" y="0px"
	 viewBox="0 0 70 90" style="enable-background:new 0 0 70 90;" xml:space="preserve">
<style type="text/css">
	.st0{fill-rule:evenodd;clip-rule:evenodd;}
</style>
<g>
	<path class="st0" d="M0,0v3v1v4v1v8v1v13v1v58h70V32v-1V18v-1V9V8V4V3V0H0z M69,89H1V32h68V89z M69,31H1V18h68V31z M69,17H1V9h68
		V17z M69,8H1V4h68V8z M1,3V1h68v2H1z"/>
	<polygon class="st0" points="35,64.7 42.4,57.4 41.6,56.6 35,63.3 28.4,56.6 27.6,57.4 	"/>
</g>
</svg>
