<?xml version="1.0" encoding="utf-8"?>
<!-- Generator: Adobe Illustrator 21.0.2, SVG Export Plug-In . SVG Version: 6.00 Build 0)  -->
<svg version="1.1" id="Layer_1" xmlns="http://www.w3.org/2000/svg" xmlns:xlink="http://www.w3.org/1999/xlink" x="0px" y="0px"
	 viewBox="0 0 90 70" style="enable-background:new 0 0 90 70;" xml:space="preserve">
<g>
	<path d="M78,0H59h-5H35h-5H11H0v70h11h19h5h19h5h19h12V0H78z M60,1h17v7H60V1z M36,1h17v7H36V1z M12,1h17v7H12V1z M29,69H12v-6h17
		V69z M53,69H36v-6h17V69z M77,69H60v-6h17V69z M89,69H78v-7H59v7h-5v-7H35v7h-5v-7H11v7H1V1h10v8h19V1h5v8h19V1h5v8h19V1h11V69z"/>
	<rect x="35" y="12" width="19" height="1"/>
	<rect x="59" y="12" width="19" height="1"/>
	<rect x="11" y="12" width="19" height="1"/>
	<rect x="59" y="34" width="19" height="1"/>
	<rect x="11" y="34" width="19" height="1"/>
	<rect x="35" y="34" width="19" height="1"/>
	<path d="M11,31h19V18H11V31z M12,19h17v11H12V19z"/>
	<path d="M35,31h19V18H35V31z M36,19h17v11H36V19z"/>
	<path d="M59,31h19V18H59V31z M60,19h17v11H60V19z"/>
	<rect x="35" y="56" width="19" height="1"/>
	<rect x="59" y="56" width="19" height="1"/>
	<rect x="11" y="56" width="19" height="1"/>
	<path d="M11,53h19V40H11V53z M12,41h17v11H12V41z"/>
	<path d="M35,53h19V40H35V53z M36,41h17v11H36V41z"/>
	<path d="M59,53h19V40H59V53z M60,41h17v11H60V41z"/>
</g>
</svg>
