<?xml version="1.0" encoding="utf-8"?>
<!-- Generator: Adobe Illustrator 21.0.2, SVG Export Plug-In . SVG Version: 6.00 Build 0)  -->
<svg version="1.1" id="Layer_1" xmlns="http://www.w3.org/2000/svg" xmlns:xlink="http://www.w3.org/1999/xlink" x="0px" y="0px"
	 viewBox="0 0 90 70" style="enable-background:new 0 0 90 70;" xml:space="preserve">
<g>
	<path d="M90,0H64v0h-1v0H0v70h63v0h1v0h26V0z M1,69V1h62v68H1z M89,69H64V1h25V69z"/>
	<rect x="69" y="12" width="10" height="1"/>
	<rect x="69" y="22" width="10" height="1"/>
	<rect x="69" y="17" width="14" height="1"/>
	<rect x="69" y="27" width="14" height="1"/>
	<rect x="69" y="7" width="14" height="1"/>
	<rect x="69" y="32" width="10" height="1"/>
	<path d="M7,7v5h12V7H7z M18,11H8V8h10V11z"/>
</g>
</svg>
