<?xml version="1.0" encoding="utf-8"?>
<!-- Generator: Adobe Illustrator 21.0.2, SVG Export Plug-In . SVG Version: 6.00 Build 0)  -->
<svg version="1.1" id="Layer_1" xmlns="http://www.w3.org/2000/svg" xmlns:xlink="http://www.w3.org/1999/xlink" x="0px" y="0px"
	 viewBox="0 0 90 70" style="enable-background:new 0 0 90 70;" xml:space="preserve">
<g>
	<rect x="69" y="12" width="10" height="1"/>
	<rect x="69" y="7" width="14" height="1"/>
	<rect x="69" y="17" width="14" height="1"/>
	<rect x="69" y="27" width="14" height="1"/>
	<rect x="69" y="22" width="10" height="1"/>
	<rect x="69" y="32" width="10" height="1"/>
	<path d="M64,0L64,0l-1,0v0H0v70h63v0h1v0h26V0H64z M63,69H1V1h62V69z M89,69H64V1h25V69z"/>
	<path d="M19,7H7v5h12V7z M18,11H8V8h10V11z"/>
	<rect x="70" y="44" width="2" height="2"/>
	<rect x="74" y="44" width="2" height="2"/>
	<path d="M69,38c0.6,0,1,0.4,1,1h0v4h5l2-4h-6c0-1.1-0.9-2-2-2s-2,0.9-2,2h1C68,38.4,68.4,38,69,38z M71,40h4.4l-1,2H71V40z"/>
</g>
</svg>
