<?xml version="1.0" encoding="utf-8"?>
<!-- Generator: Adobe Illustrator 21.0.2, SVG Export Plug-In . SVG Version: 6.00 Build 0)  -->
<svg version="1.1" id="Layer_1" xmlns="http://www.w3.org/2000/svg" xmlns:xlink="http://www.w3.org/1999/xlink" x="0px" y="0px"
	 viewBox="0 0 70 90" style="enable-background:new 0 0 70 90;" xml:space="preserve">
<style type="text/css">
	.st0{fill-rule:evenodd;clip-rule:evenodd;}
</style>
<g>
	<path class="st0" d="M0,0v90h70V0H0z M69,89H1V1h68V89z"/>
	<rect x="21" y="37" class="st0" width="28" height="1"/>
	<rect x="21" y="57" class="st0" width="28" height="1"/>
	<rect x="17" y="32" class="st0" width="36" height="1"/>
	<rect x="17" y="42" class="st0" width="36" height="1"/>
	<rect x="17" y="52" class="st0" width="36" height="1"/>
	<rect x="21" y="47" class="st0" width="28" height="1"/>
	<polygon class="st0" points="58.7,12 61,9.7 63.3,12 64,11.3 61.7,9 64,6.7 63.3,6 61,8.3 58.7,6 58,6.7 60.3,9 58,11.3 	"/>
</g>
</svg>
