<?xml version="1.0" encoding="utf-8"?>
<!-- Generator: Adobe Illustrator 21.0.2, SVG Export Plug-In . SVG Version: 6.00 Build 0)  -->
<svg version="1.1" id="Layer_1" xmlns="http://www.w3.org/2000/svg" xmlns:xlink="http://www.w3.org/1999/xlink" x="0px" y="0px"
	 viewBox="0 0 90 70" style="enable-background:new 0 0 90 70;" xml:space="preserve">
<g>
	<polygon points="0,1 27,1 27,69 0,69 0,70 28,70 28,0 0,0 	"/>
	<polygon points="30,33 43,33 43,49 30,49 30,50 44,50 44,32 30,32 	"/>
	<polygon points="30,53 43,53 43,69 30,69 30,70 44,70 44,52 30,52 	"/>
	<path d="M46,50h21V32H46V50z M47,33h19v16H47V33z"/>
	<path d="M46,70h21V52H46V70z M47,53h19v16H47V53z"/>
	<path d="M69,12v18h21V12H69z M89,29H70V13h19V29z"/>
	<path d="M69,50h21V32H69V50z M70,33h19v16H70V33z"/>
	<path d="M69,70h21V52H69V70z M70,53h19v16H70V53z"/>
	<polygon points="30,13 43,13 43,29 30,29 30,30 44,30 44,12 30,12 	"/>
	<rect x="30" y="25" width="4" height="1"/>
	<path d="M46,30h21V12H46V30z M47,13h19v16H47V13z"/>
	<rect x="50" y="25" width="7" height="1"/>
	<rect x="30" y="45" width="4" height="1"/>
	<rect x="30" y="65" width="4" height="1"/>
	<rect x="50" y="45" width="7" height="1"/>
	<rect x="50" y="65" width="7" height="1"/>
	<rect x="73" y="25" width="7" height="1"/>
	<rect x="73" y="45" width="7" height="1"/>
	<rect x="73" y="65" width="7" height="1"/>
	<polygon points="30.7,6 33,3.7 35.3,6 36,5.3 33.7,3 36,0.7 35.3,0 33,2.3 30.7,0 30,0.7 32.3,3 30,5.3 	"/>
	<path d="M6,16h13c1.1,0,2-0.9,2-2s-0.9-2-2-2H6c-1.1,0-2,0.9-2,2S4.9,16,6,16z M6,13h13c0.6,0,1,0.4,1,1s-0.4,1-1,1H6
		c-0.6,0-1-0.4-1-1S5.4,13,6,13z"/>
	<rect x="4" y="22" width="14" height="1"/>
	<rect x="4" y="28" width="14" height="1"/>
	<rect x="4" y="25" width="11" height="1"/>
	<rect x="4" y="31" width="9" height="1"/>
	<rect x="4" y="34" width="12" height="1"/>
	<rect x="4" y="45" width="8" height="1"/>
	<rect x="4" y="4" width="6" height="1"/>
	<rect x="12" y="52" width="8" height="1"/>
	<rect x="12" y="55" width="6" height="1"/>
	<rect x="12" y="61" width="8" height="1"/>
	<rect x="12" y="64" width="6" height="1"/>
	<polygon points="4,42 4,43 4,44 5,44 5,43 19,43 19,44 20,44 20,43 20,42 20,41 19,41 19,42 5,42 5,41 4,41 	"/>
	<path d="M4,57h6v-6H4V57z M5,52h4v4H5V52z"/>
	<path d="M4,66h6v-6H4V66z M5,61h4v4H5V61z"/>
</g>
</svg>
