<?xml version="1.0" encoding="utf-8"?>
<!-- Generator: Adobe Illustrator 21.0.2, SVG Export Plug-In . SVG Version: 6.00 Build 0)  -->
<svg version="1.1" id="Layer_1" xmlns="http://www.w3.org/2000/svg" xmlns:xlink="http://www.w3.org/1999/xlink" x="0px" y="0px"
	 viewBox="0 0 90 70" style="enable-background:new 0 0 90 70;" xml:space="preserve">
<g>
	<path d="M0,0v70h90V0H0z M89,69H1V1h88V69z"/>
	<rect x="12" y="30" width="66" height="1"/>
	<rect x="12" y="34" width="63" height="1"/>
	<rect x="12" y="38" width="66" height="1"/>
	<rect x="12" y="42" width="63" height="1"/>
	<rect x="12" y="46" width="66" height="1"/>
	<path d="M66,14v4h4v-4H66z M69,17h-2v-2h2V17z"/>
	<path d="M48,14v4h4v-4H48z M51,17h-2v-2h2V17z"/>
	<path d="M30,14v4h4v-4H30z M33,17h-2v-2h2V17z"/>
	<path d="M12,18h4v-4h-4V18z M13,15h2v2h-2V15z"/>
	<path d="M75,55H61c-1.7,0-3,1.3-3,3s1.3,3,3,3h14c1.7,0,3-1.3,3-3S76.7,55,75,55z M75,60H61c-1.1,0-2-0.9-2-2s0.9-2,2-2h14
		c1.1,0,2,0.9,2,2S76.1,60,75,60z"/>
	<polygon points="65,12 77.5,12 80.8,16 77.5,20 65,20 64,20 63,20 63,21 78,21 82,16 78,11 63,11 63,12 64,12 	"/>
	<polygon points="47,12 59.5,12 62.8,16 59.5,20 47,20 46,20 45,20 45,21 60,21 64,16 60,11 45,11 45,12 46,12 	"/>
	<polygon points="29,12 41.5,12 44.8,16 41.5,20 29,20 28,20 27,20 27,21 42,21 46,16 42,11 27,11 27,12 28,12 	"/>
	<path d="M24,21l4-5l-4-5H9H8v1v8v1h1H24z M9,12h14.5l3.3,4l-3.3,4H9V12z"/>
</g>
</svg>
