<?xml version="1.0" encoding="utf-8"?>
<!-- Generator: Adobe Illustrator 21.0.2, SVG Export Plug-In . SVG Version: 6.00 Build 0)  -->
<svg version="1.1" id="Layer_1" xmlns="http://www.w3.org/2000/svg" xmlns:xlink="http://www.w3.org/1999/xlink" x="0px" y="0px"
	 viewBox="0 0 90 70" style="enable-background:new 0 0 90 70;" xml:space="preserve">
<style type="text/css">
	.st0{fill-rule:evenodd;clip-rule:evenodd;}
</style>
<g>
	<g>
		<path class="st0" d="M12,16h10v-1H12V16z M12,20h10v-1H12V20z M12,24h10v-1H12V24z M12,28h10v-1H12V28z M12,32h10v-1H12V32z
			 M12,36h10v-1H12V36z M12,40h10v-1H12V40z M12,44h10v-1H12V44z M12,48h10v-1H12V48z M12,52h10v-1H12V52z M12,56h10v-1H12V56z
			 M26,16h10v-1H26V16z M26,20h10v-1H26V20z M26,24h10v-1H26V24z M26,28h10v-1H26V28z M26,32h10v-1H26V32z M26,36h10v-1H26V36z
			 M26,40h10v-1H26V40z M26,44h10v-1H26V44z M26,48h10v-1H26V48z M26,52h10v-1H26V52z M26,56h10v-1H26V56z M40,16h10v-1H40V16z
			 M40,20h10v-1H40V20z M40,24h10v-1H40V24z M40,28h10v-1H40V28z M40,32h10v-1H40V32z M40,36h10v-1H40V36z M40,40h10v-1H40V40z
			 M40,44h10v-1H40V44z M40,48h10v-1H40V48z M40,52h10v-1H40V52z M40,56h10v-1H40V56z M54,16h10v-1H54V16z M54,20h10v-1H54V20z
			 M54,24h10v-1H54V24z M54,28h10v-1H54V28z M54,32h10v-1H54V32z M54,36h10v-1H54V36z M54,40h10v-1H54V40z M54,44h10v-1H54V44z
			 M54,48h10v-1H54V48z M54,52h10v-1H54V52z M54,56h10v-1H54V56z M68,15v1h10v-1H68z M68,20h10v-1H68V20z M68,24h10v-1H68V24z
			 M68,28h10v-1H68V28z M68,32h10v-1H68V32z M68,36h10v-1H68V36z M68,40h10v-1H68V40z M68,44h10v-1H68V44z M68,48h10v-1H68V48z
			 M68,52h10v-1H68V52z M68,56h10v-1H68V56z"/>
	</g>
</g>
<path d="M0,0v70h90V0H0z M89,69H1V1h88V69z"/>
</svg>
