<?xml version="1.0" encoding="utf-8"?>
<!-- Generator: Adobe Illustrator 21.0.2, SVG Export Plug-In . SVG Version: 6.00 Build 0)  -->
<svg version="1.1" id="Layer_1" xmlns="http://www.w3.org/2000/svg" xmlns:xlink="http://www.w3.org/1999/xlink" x="0px" y="0px"
	 viewBox="0 0 70 90" style="enable-background:new 0 0 70 90;" xml:space="preserve">
<g>
	<path d="M9,4v68h54V4H9z M62,5v46.2L45.4,37.3L26.1,53.8l-8.3-8.3L10,53.3V5H62z M10,71V54.7l7.8-7.8l8.3,8.3l19.4-16.6L62,52.5V71
		H10z"/>
	<path d="M29,78c-1.1,0-2,0.9-2,2s0.9,2,2,2s2-0.9,2-2S30.1,78,29,78z M29,81c-0.6,0-1-0.4-1-1s0.4-1,1-1s1,0.4,1,1S29.6,81,29,81z"
		/>
	<path d="M22,78c-1.1,0-2,0.9-2,2s0.9,2,2,2s2-0.9,2-2S23.1,78,22,78z M22,81c-0.6,0-1-0.4-1-1s0.4-1,1-1s1,0.4,1,1S22.6,81,22,81z"
		/>
	<path d="M36,78c-1.1,0-2,0.9-2,2s0.9,2,2,2s2-0.9,2-2S37.1,78,36,78z M36,81c-0.6,0-1-0.4-1-1s0.4-1,1-1s1,0.4,1,1S36.6,81,36,81z"
		/>
	<path d="M43,78c-1.1,0-2,0.9-2,2s0.9,2,2,2s2-0.9,2-2S44.1,78,43,78z M43,81c-0.6,0-1-0.4-1-1s0.4-1,1-1s1,0.4,1,1S43.6,81,43,81z"
		/>
	<path d="M50,78c-1.1,0-2,0.9-2,2s0.9,2,2,2s2-0.9,2-2S51.1,78,50,78z M50,81c-0.6,0-1-0.4-1-1s0.4-1,1-1s1,0.4,1,1S50.6,81,50,81z"
		/>
	<path d="M25.5,30c2.5,0,4.5-2,4.5-4.5S28,21,25.5,21S21,23,21,25.5S23,30,25.5,30z M25.5,22c1.9,0,3.5,1.6,3.5,3.5
		c0,1.9-1.6,3.5-3.5,3.5S22,27.4,22,25.5S23.6,22,25.5,22z"/>
</g>
</svg>
