<?xml version="1.0" encoding="utf-8"?>
<!-- Generator: Adobe Illustrator 21.0.2, SVG Export Plug-In . SVG Version: 6.00 Build 0)  -->
<svg version="1.1" id="Layer_1" xmlns="http://www.w3.org/2000/svg" xmlns:xlink="http://www.w3.org/1999/xlink" x="0px" y="0px"
	 viewBox="0 0 90 70" style="enable-background:new 0 0 90 70;" xml:space="preserve">
<g>
	<path d="M90,0H64h-1H0l0,0v0v70v0l0,0h63v0h1v0h26V0z M53,12.8v44.4L1,68.8V1.2L53,12.8z M4.5,69L54,58V12L4.5,1H63v68H4.5z M89,69
		H64V1h25V69z"/>
	<rect x="69" y="7" width="14" height="1"/>
	<rect x="69" y="12" width="10" height="1"/>
	<rect x="69" y="22" width="10" height="1"/>
	<rect x="69" y="17" width="14" height="1"/>
	<rect x="69" y="27" width="14" height="1"/>
	<rect x="69" y="32" width="10" height="1"/>
</g>
</svg>
