<?xml version="1.0" encoding="utf-8"?>
<!-- Generator: Adobe Illustrator 21.0.2, SVG Export Plug-In . SVG Version: 6.00 Build 0)  -->
<svg version="1.1" id="Layer_1" xmlns="http://www.w3.org/2000/svg" xmlns:xlink="http://www.w3.org/1999/xlink" x="0px" y="0px"
	 viewBox="0 0 90 70" style="enable-background:new 0 0 90 70;" xml:space="preserve">
<style type="text/css">
	.st0{fill-rule:evenodd;clip-rule:evenodd;}
</style>
<g>
	<g>
		<path class="st0" d="M11,16h13v-1H11V16z M11,20h13v-1H11V20z M11,24h13v-1H11V24z M11,28h13v-1H11V28z M11,32h13v-1H11V32z
			 M11,36h13v-1H11V36z M11,40h13v-1H11V40z M11,44h13v-1H11V44z M11,48h13v-1H11V48z M11,52h13v-1H11V52z M11,56h13v-1H11V56z
			 M29,16h13v-1H29V16z M29,20h13v-1H29V20z M29,24h13v-1H29V24z M29,28h13v-1H29V28z M29,32h13v-1H29V32z M29,36h13v-1H29V36z
			 M29,40h13v-1H29V40z M29,44h13v-1H29V44z M29,48h13v-1H29V48z M29,52h13v-1H29V52z M29,56h13v-1H29V56z M47,16h13v-1H47V16z
			 M47,20h13v-1H47V20z M47,24h13v-1H47V24z M47,28h13v-1H47V28z M47,32h13v-1H47V32z M47,36h13v-1H47V36z M47,40h13v-1H47V40z
			 M47,44h13v-1H47V44z M47,48h13v-1H47V48z M47,52h13v-1H47V52z M47,56h13v-1H47V56z M65,15v1h13v-1H65z M65,20h13v-1H65V20z
			 M65,24h13v-1H65V24z M65,28h13v-1H65V28z M65,32h13v-1H65V32z M65,36h13v-1H65V36z M65,40h13v-1H65V40z M65,44h13v-1H65V44z
			 M65,48h13v-1H65V48z M65,52h13v-1H65V52z M65,56h13v-1H65V56z"/>
	</g>
</g>
<path d="M0,0v70h90V0H0z M89,69H1V1h88V69z"/>
</svg>
