<?xml version="1.0" encoding="utf-8"?>
<!-- Generator: Adobe Illustrator 21.0.2, SVG Export Plug-In . SVG Version: 6.00 Build 0)  -->
<svg version="1.1" id="Layer_1" xmlns="http://www.w3.org/2000/svg" xmlns:xlink="http://www.w3.org/1999/xlink" x="0px" y="0px"
	 viewBox="0 0 90 70" style="enable-background:new 0 0 90 70;" xml:space="preserve">
<g>
	<path d="M62,0v34h28V0H62z M89,33H63V1h26V33z"/>
	<path d="M31,34h29V0H31V34z M32,1h27v32H32V1z"/>
	<path d="M62,70h28V36H62V70z M63,37h26v32H63V37z"/>
	<path d="M31,70h29V36H31V70z M32,37h27v32H32V37z"/>
	<path d="M0,70h29V0H0V70z M2,2h25v66H2V2z"/>
</g>
</svg>
