<?xml version="1.0" encoding="utf-8"?>
<!-- Generator: Adobe Illustrator 21.0.2, SVG Export Plug-In . SVG Version: 6.00 Build 0)  -->
<svg version="1.1" id="Layer_1" xmlns="http://www.w3.org/2000/svg" xmlns:xlink="http://www.w3.org/1999/xlink" x="0px" y="0px"
	 viewBox="0 0 90 70" style="enable-background:new 0 0 90 70;" xml:space="preserve">
<g>
	<rect x="59" y="16" width="19" height="1"/>
	<rect x="35" y="16" width="19" height="1"/>
	<rect x="11" y="16" width="19" height="1"/>
	<rect x="11" y="38" width="19" height="1"/>
	<rect x="59" y="38" width="19" height="1"/>
	<rect x="35" y="38" width="19" height="1"/>
	<path d="M78,0H59h-5H35h-5H11H0v70h90V0H78z M60,1h17v11H60V1z M36,1h17v11H36V1z M12,1h17v11H12V1z M89,69H1V1h10v12h19V1h5v12h19
		V1h5v12h19V1h11V69z"/>
	<path d="M11,35h19V22H11V35z M12,23h17v11H12V23z"/>
	<path d="M54,22H35v13h19V22z M53,34H36V23h17V34z"/>
	<path d="M59,35h19V22H59V35z M60,23h17v11H60V23z"/>
	<path d="M32,56h4v-4h-4V56z M33,53h2v2h-2V53z"/>
	<path d="M25,56h4v-4h-4V56z M26,53h2v2h-2V53z"/>
	<path d="M39,56h4v-4h-4V56z M40,53h2v2h-2V53z"/>
	<path d="M46,56h4v-4h-4V56z M47,53h2v2h-2V53z"/>
	<path d="M53,56h4v-4h-4V56z M54,53h2v2h-2V53z"/>
	<path d="M60,56h4v-4h-4V56z M61,53h2v2h-2V53z"/>
</g>
</svg>
