<?xml version="1.0" encoding="utf-8"?>
<!-- Generator: Adobe Illustrator 21.0.2, SVG Export Plug-In . SVG Version: 6.00 Build 0)  -->
<svg version="1.1" id="Layer_1" xmlns="http://www.w3.org/2000/svg" xmlns:xlink="http://www.w3.org/1999/xlink" x="0px" y="0px"
	 viewBox="0 0 90 70" style="enable-background:new 0 0 90 70;" xml:space="preserve">
<g>
	<g>
		<path d="M45,32h-1v3h-3v1h3v3h1v-3h3v-1h-3V32z M50.1,32.2c-0.6-1-1.3-1.8-2.3-2.3c-1-0.6-2.1-0.9-3.3-0.9c-1.2,0-2.3,0.3-3.3,0.9
			c-1,0.6-1.8,1.3-2.3,2.3c-0.6,1-0.9,2.1-0.9,3.3c0,1.2,0.3,2.3,0.9,3.3c0.6,1,1.3,1.8,2.3,2.3c1,0.6,2.1,0.9,3.3,0.9
			c1.2,0,2.3-0.3,3.3-0.9c1-0.6,1.8-1.3,2.3-2.3c0.6-1,0.9-2.1,0.9-3.3C51,34.3,50.7,33.2,50.1,32.2z M49.3,38.3
			c-0.5,0.8-1.1,1.5-2,2c-0.9,0.5-1.8,0.8-2.8,0.8s-1.9-0.3-2.8-0.8c-0.8-0.5-1.5-1.1-2-2c-0.5-0.9-0.8-1.8-0.8-2.8s0.3-1.9,0.8-2.8
			c0.5-0.8,1.1-1.5,2-2c0.9-0.5,1.8-0.8,2.8-0.8s1.9,0.3,2.8,0.8c0.8,0.5,1.5,1.1,2,2c0.5,0.9,0.8,1.8,0.8,2.8S49.8,37.4,49.3,38.3z
			"/>
	</g>
</g>
<path d="M0,0v70h90V0H0z M89,69H1V1h88V69z"/>
</svg>
