<?xml version="1.0" encoding="utf-8"?>
<!-- Generator: Adobe Illustrator 21.0.2, SVG Export Plug-In . SVG Version: 6.00 Build 0)  -->
<svg version="1.1" id="Layer_1" xmlns="http://www.w3.org/2000/svg" xmlns:xlink="http://www.w3.org/1999/xlink" x="0px" y="0px"
	 viewBox="0 0 90 70" style="enable-background:new 0 0 90 70;" xml:space="preserve">
<g>
	<path d="M0,0v18v1v51h90V19v-1V0H0z M89,69H1V19h88V69z M1,18V1h88v17H1z"/>
	<path d="M7,12h12V7H7V12z M8,8h10v3H8V8z"/>
	<rect x="75" y="12" width="8" height="1"/>
	<rect x="75" y="6" width="8" height="1"/>
	<rect x="75" y="9" width="8" height="1"/>
	<rect x="63" y="11" width="2" height="2"/>
	<rect x="67" y="11" width="2" height="2"/>
	<path d="M62,4c-1.1,0-2,0.9-2,2h1c0-0.6,0.4-1,1-1s1,0.4,1,1h0v4h5l2-4h-6C64,4.9,63.1,4,62,4z M64,7h4.4l-1,2H64V7z"/>
</g>
</svg>
