<?xml version="1.0" encoding="utf-8"?>
<!-- Generator: Adobe Illustrator 21.0.2, SVG Export Plug-In . SVG Version: 6.00 Build 0)  -->
<svg version="1.1" id="Layer_1" xmlns="http://www.w3.org/2000/svg" xmlns:xlink="http://www.w3.org/1999/xlink" x="0px" y="0px"
	 viewBox="0 0 90 70" style="enable-background:new 0 0 90 70;" xml:space="preserve">
<g>
	<path d="M0,0v70h90V0H0z M89,69H1V1h88V69z"/>
	<rect x="12" y="15" width="45" height="1"/>
	<rect x="12" y="19" width="42" height="1"/>
	<rect x="12" y="23" width="45" height="1"/>
	<rect x="12" y="27" width="42" height="1"/>
	<rect x="12" y="31" width="45" height="1"/>
	<rect x="12" y="35" width="42" height="1"/>
	<rect x="12" y="39" width="45" height="1"/>
	<rect x="12" y="43" width="42" height="1"/>
	<rect x="12" y="47" width="45" height="1"/>
	<rect x="12" y="51" width="42" height="1"/>
	<rect x="12" y="55" width="45" height="1"/>
	<rect x="67" y="27" width="9" height="1"/>
	<rect x="67" y="31" width="11" height="1"/>
	<rect x="67" y="35" width="9" height="1"/>
	<rect x="67" y="39" width="11" height="1"/>
	<rect x="67" y="43" width="9" height="1"/>
	<rect x="67" y="47" width="11" height="1"/>
	<rect x="67" y="51" width="9" height="1"/>
	<rect x="67" y="55" width="11" height="1"/>
	<path d="M71,16v3h-3v-3H71 M72,15h-5v5h5V15L72,15z"/>
</g>
</svg>
