<?xml version="1.0" encoding="utf-8"?>
<!-- Generator: Adobe Illustrator 21.0.2, SVG Export Plug-In . SVG Version: 6.00 Build 0)  -->
<svg version="1.1" id="Layer_1" xmlns="http://www.w3.org/2000/svg" xmlns:xlink="http://www.w3.org/1999/xlink" x="0px" y="0px"
	 viewBox="0 0 90 70" style="enable-background:new 0 0 90 70;" xml:space="preserve">
<g>
	<path d="M0,0v18v1v51h90V19v-1V0H0z M89,69H1V19h53v38h29V19h6V69z M55,19h27v37H55V19z M1,18V1h88v17H1z"/>
	<path d="M7,12h12V7H7V12z M8,8h10v3H8V8z"/>
	<rect x="74" y="11" width="2" height="2"/>
	<rect x="78" y="11" width="2" height="2"/>
	<path d="M74,10h5l2-4h-6c0-1.1-0.9-2-2-2s-2,0.9-2,2h1c0-0.6,0.4-1,1-1s1,0.4,1,1h0V10z M75,7h4.4l-1,2H75V7z"/>
	<rect x="66" y="23" width="13" height="1"/>
	<rect x="66" y="26" width="10" height="1"/>
	<rect x="66" y="32" width="13" height="1"/>
	<rect x="66" y="35" width="10" height="1"/>
	<path d="M64,22h-6v6h6V22z M63,27h-4v-4h4V27z"/>
	<path d="M64,31h-6v6h6V31z M63,36h-4v-4h4V36z"/>
	<rect x="66" y="41" width="13" height="1"/>
	<rect x="66" y="44" width="10" height="1"/>
	<path d="M64,40h-6v6h6V40z M63,45h-4v-4h4V45z"/>
	<path d="M58,53h9v-4h-9V53z M59,50h7v2h-7V50z"/>
	<path d="M70,53h9v-4h-9V53z M71,50h7v2h-7V50z"/>
</g>
</svg>
