<?xml version="1.0" encoding="utf-8"?>
<!-- Generator: Adobe Illustrator 21.0.2, SVG Export Plug-In . SVG Version: 6.00 Build 0)  -->
<svg version="1.1" id="Layer_1" xmlns="http://www.w3.org/2000/svg" xmlns:xlink="http://www.w3.org/1999/xlink" x="0px" y="0px"
	 viewBox="0 0 90 70" style="enable-background:new 0 0 90 70;" xml:space="preserve">
<g>
	<rect x="6" y="32" width="10" height="1"/>
	<rect x="6" y="12" width="10" height="1"/>
	<rect x="6" y="22" width="10" height="1"/>
	<rect x="6" y="27" width="14" height="1"/>
	<rect x="6" y="17" width="14" height="1"/>
	<rect x="6" y="7" width="14" height="1"/>
	<path d="M90,0H27v0h-1v0H0v70h26v0h1v0h63V0z M1,69V1h25v68H1z M89,69H27V1h62V69z"/>
	<path d="M82,12V7H70v5H82z M71,8h10v3H71V8z"/>
</g>
</svg>
