<?xml version="1.0" encoding="utf-8"?>
<!-- Generator: Adobe Illustrator 21.0.2, SVG Export Plug-In . SVG Version: 6.00 Build 0)  -->
<svg version="1.1" id="Layer_1" xmlns="http://www.w3.org/2000/svg" xmlns:xlink="http://www.w3.org/1999/xlink" x="0px" y="0px"
	 viewBox="0 0 90 70" style="enable-background:new 0 0 90 70;" xml:space="preserve">
<g>
	<path d="M0,0v70h90V0H0z M89,69H1V1h88V69z"/>
	<polygon points="79.7,12 82,9.7 84.3,12 85,11.3 82.7,9 85,6.7 84.3,6 82,8.3 79.7,6 79,6.7 81.3,9 79,11.3 	"/>
	<rect x="26" y="25" width="36" height="1"/>
	<rect x="30" y="50" width="28" height="1"/>
	<rect x="30" y="40" width="28" height="1"/>
	<rect x="30" y="30" width="28" height="1"/>
	<rect x="26" y="45" width="36" height="1"/>
	<rect x="26" y="35" width="36" height="1"/>
</g>
</svg>
