<?xml version="1.0" encoding="utf-8"?>
<!-- Generator: Adobe Illustrator 21.0.2, SVG Export Plug-In . SVG Version: 6.00 Build 0)  -->
<svg version="1.1" id="Layer_1" xmlns="http://www.w3.org/2000/svg" xmlns:xlink="http://www.w3.org/1999/xlink" x="0px" y="0px"
	 viewBox="0 0 90 70" style="enable-background:new 0 0 90 70;" xml:space="preserve">
<g>
	<path d="M81,13H9v41h72V13z M80,14v30.3l-23-23L31.4,43.2l-11-11L10,41.8V14H80z M10,53v-9.9l10.4-9.5l10.9,10.9L57,22.7l23,23V53
		H10z"/>
	<path d="M0,0v70h90V0H0z M89,69H1V1h88V69z"/>
	<path d="M45,57c-1.1,0-2,0.9-2,2s0.9,2,2,2s2-0.9,2-2S46.1,57,45,57z M45,60c-0.6,0-1-0.4-1-1s0.4-1,1-1s1,0.4,1,1S45.6,60,45,60z"
		/>
	<path d="M38,57c-1.1,0-2,0.9-2,2s0.9,2,2,2s2-0.9,2-2S39.1,57,38,57z M38,60c-0.6,0-1-0.4-1-1s0.4-1,1-1s1,0.4,1,1S38.6,60,38,60z"
		/>
	<path d="M52,57c-1.1,0-2,0.9-2,2s0.9,2,2,2s2-0.9,2-2S53.1,57,52,57z M52,60c-0.6,0-1-0.4-1-1s0.4-1,1-1s1,0.4,1,1S52.6,60,52,60z"
		/>
	<path d="M30.5,29c1.9,0,3.5-1.6,3.5-3.5S32.4,22,30.5,22S27,23.6,27,25.5S28.6,29,30.5,29z M30.5,23c1.4,0,2.5,1.1,2.5,2.5
		S31.9,28,30.5,28S28,26.9,28,25.5S29.1,23,30.5,23z"/>
</g>
</svg>
