<?xml version="1.0" encoding="utf-8"?>
<!-- Generator: Adobe Illustrator 21.0.2, SVG Export Plug-In . SVG Version: 6.00 Build 0)  -->
<svg version="1.1" id="Layer_1" xmlns="http://www.w3.org/2000/svg" xmlns:xlink="http://www.w3.org/1999/xlink" x="0px" y="0px"
	 viewBox="0 0 90 70" style="enable-background:new 0 0 90 70;" xml:space="preserve">
<g>
	<path d="M32,0H0v22h32V0z M31,21H1V1h30V21z"/>
	<path d="M17,24H0v22h17V24z M16,45H1V25h15V45z"/>
	<path d="M0,70h27V48H0V70z M1,49h25v20H1V49z"/>
	<path d="M19,46h29V24H19V46z M20,25h27v20H20V25z"/>
	<path d="M56,0H34v22h22V0z M55,21H35V1h20V21z"/>
	<path d="M50,46h17V24H50V46z M51,25h15v20H51V25z"/>
	<path d="M29,70h26V48H29V70z M30,49h24v20H30V49z"/>
	<path d="M58,0v22h32V0H58z M89,21H59V1h30V21z"/>
	<path d="M69,46h21V24H69V46z M70,25h19v20H70V25z"/>
	<path d="M57,70h33V48H57V70z M58,49h31v20H58V49z"/>
	<rect x="4" y="17" width="7" height="1"/>
	<rect x="4" y="41" width="7" height="1"/>
	<rect x="4" y="65" width="7" height="1"/>
	<rect x="38" y="17" width="7" height="1"/>
	<rect x="23" y="41" width="7" height="1"/>
	<rect x="54" y="41" width="7" height="1"/>
	<rect x="33" y="65" width="7" height="1"/>
	<rect x="62" y="17" width="7" height="1"/>
	<rect x="73" y="41" width="7" height="1"/>
	<rect x="61" y="65" width="7" height="1"/>
</g>
</svg>
