<?xml version="1.0" encoding="utf-8"?>
<!-- Generator: Adobe Illustrator 21.0.2, SVG Export Plug-In . SVG Version: 6.00 Build 0)  -->
<svg version="1.1" id="Layer_1" xmlns="http://www.w3.org/2000/svg" xmlns:xlink="http://www.w3.org/1999/xlink" x="0px" y="0px"
	 viewBox="0 0 70 90" style="enable-background:new 0 0 70 90;" xml:space="preserve">
<g>
	<path d="M9,4v68h54V4H9z M62,5v46.2L45.4,37.3L26.1,53.8l-8.3-8.3L10,53.3V5H62z M10,71V54.7l7.8-7.8l8.3,8.3l19.4-16.6L62,52.5V71
		H10z"/>
	<path d="M9,86h12V74H9V86z M10,75h10v10H10V75z"/>
	<path d="M23,86h12V74H23V86z M24,75h10v10H24V75z"/>
	<path d="M37,86h12V74H37V86z M38,75h10v10H38V75z"/>
	<path d="M51,86h12V74H51V86z M52,75h10v10H52V75z"/>
	<path d="M25.5,30c2.5,0,4.5-2,4.5-4.5S28,21,25.5,21S21,23,21,25.5S23,30,25.5,30z M25.5,22c1.9,0,3.5,1.6,3.5,3.5
		c0,1.9-1.6,3.5-3.5,3.5S22,27.4,22,25.5S23.6,22,25.5,22z"/>
</g>
</svg>
