<?xml version="1.0" encoding="utf-8"?>
<!-- Generator: Adobe Illustrator 21.0.2, SVG Export Plug-In . SVG Version: 6.00 Build 0)  -->
<svg version="1.1" id="Layer_1" xmlns="http://www.w3.org/2000/svg" xmlns:xlink="http://www.w3.org/1999/xlink" x="0px" y="0px"
	 viewBox="0 0 90 70" style="enable-background:new 0 0 90 70;" xml:space="preserve">
<g>
	<path d="M0,0v70h90V0H0z M89,69H1V1h88V69z"/>
	<rect x="48" y="13" width="33" height="1"/>
	<rect x="48" y="17" width="30" height="1"/>
	<rect x="48" y="21" width="33" height="1"/>
	<rect x="48" y="25" width="30" height="1"/>
	<rect x="48" y="29" width="33" height="1"/>
	<rect x="48" y="33" width="30" height="1"/>
	<rect x="48" y="37" width="33" height="1"/>
	<rect x="48" y="41" width="30" height="1"/>
	<rect x="48" y="45" width="33" height="1"/>
	<rect x="48" y="49" width="30" height="1"/>
	<rect x="48" y="53" width="33" height="1"/>
	<path d="M42,13H9v41h33V13z M41,14v28.4l-9.5-8.7L19.7,43.8l-5.1-5.1L10,43.3V14H41z M10,53v-8.3l4.6-4.6l5,5L31.5,35l9.5,8.7V53
		H10z"/>
	<path d="M26,57c-1.1,0-2,0.9-2,2s0.9,2,2,2s2-0.9,2-2S27.1,57,26,57z M26,60c-0.6,0-1-0.4-1-1s0.4-1,1-1s1,0.4,1,1S26.6,60,26,60z"
		/>
	<path d="M19,57c-1.1,0-2,0.9-2,2s0.9,2,2,2s2-0.9,2-2S20.1,57,19,57z M19,60c-0.6,0-1-0.4-1-1s0.4-1,1-1s1,0.4,1,1S19.6,60,19,60z"
		/>
	<path d="M33,57c-1.1,0-2,0.9-2,2s0.9,2,2,2s2-0.9,2-2S34.1,57,33,57z M33,60c-0.6,0-1-0.4-1-1s0.4-1,1-1s1,0.4,1,1S33.6,60,33,60z"
		/>
	<path d="M19.5,29c1.9,0,3.5-1.6,3.5-3.5S21.4,22,19.5,22S16,23.6,16,25.5S17.6,29,19.5,29z M19.5,23c1.4,0,2.5,1.1,2.5,2.5
		S20.9,28,19.5,28S17,26.9,17,25.5S18.1,23,19.5,23z"/>
</g>
</svg>
