<?xml version="1.0" encoding="utf-8"?>
<!-- Generator: Adobe Illustrator 21.0.2, SVG Export Plug-In . SVG Version: 6.00 Build 0)  -->
<svg version="1.1" id="Layer_1" xmlns="http://www.w3.org/2000/svg" xmlns:xlink="http://www.w3.org/1999/xlink" x="0px" y="0px"
	 viewBox="0 0 90 70" style="enable-background:new 0 0 90 70;" xml:space="preserve">
<g>
	<path d="M0,0v70h90V0H0z M89,69H1V1h88V69z"/>
	<rect x="61" y="13" width="20" height="1"/>
	<rect x="61" y="17" width="17" height="1"/>
	<rect x="61" y="21" width="20" height="1"/>
	<rect x="61" y="25" width="17" height="1"/>
	<rect x="61" y="29" width="20" height="1"/>
	<rect x="61" y="33" width="17" height="1"/>
	<rect x="61" y="37" width="20" height="1"/>
	<rect x="61" y="41" width="17" height="1"/>
	<rect x="61" y="45" width="20" height="1"/>
	<rect x="61" y="49" width="17" height="1"/>
	<rect x="61" y="53" width="20" height="1"/>
	<path d="M55,13H9v41h46V13z M54,14v30.3L39.4,30L23.3,43.8l-6.9-6.9L10,43.3V14H54z M10,53v-8.3l6.4-6.4l6.9,6.9l16.1-13.8L54,45.7
		V53H10z"/>
	<path d="M32,57c-1.1,0-2,0.9-2,2s0.9,2,2,2s2-0.9,2-2S33.1,57,32,57z M32,60c-0.6,0-1-0.4-1-1s0.4-1,1-1s1,0.4,1,1S32.6,60,32,60z"
		/>
	<path d="M25,57c-1.1,0-2,0.9-2,2s0.9,2,2,2s2-0.9,2-2S26.1,57,25,57z M25,60c-0.6,0-1-0.4-1-1s0.4-1,1-1s1,0.4,1,1S25.6,60,25,60z"
		/>
	<path d="M39,57c-1.1,0-2,0.9-2,2s0.9,2,2,2s2-0.9,2-2S40.1,57,39,57z M39,60c-0.6,0-1-0.4-1-1s0.4-1,1-1s1,0.4,1,1S39.6,60,39,60z"
		/>
	<path d="M22.5,29c1.9,0,3.5-1.6,3.5-3.5S24.4,22,22.5,22S19,23.6,19,25.5S20.6,29,22.5,29z M22.5,23c1.4,0,2.5,1.1,2.5,2.5
		S23.9,28,22.5,28S20,26.9,20,25.5S21.1,23,22.5,23z"/>
</g>
</svg>
