<?xml version="1.0" encoding="utf-8"?>
<!-- Generator: Adobe Illustrator 21.0.2, SVG Export Plug-In . SVG Version: 6.00 Build 0)  -->
<svg version="1.1" id="Layer_1" xmlns="http://www.w3.org/2000/svg" xmlns:xlink="http://www.w3.org/1999/xlink" x="0px" y="0px"
	 viewBox="0 0 90 70" style="enable-background:new 0 0 90 70;" xml:space="preserve">
<style type="text/css">
	.st0{fill-rule:evenodd;clip-rule:evenodd;}
</style>
<path d="M0,0v70h15h60h15V0H0z M74,69H16V16h58V69z M89,69H75V15H15v54H1V1h88V69z"/>
<g>
	<g>
		<path class="st0" d="M24,24v1h42v-1H24z M63,28H24v1h39V28z M24,33h42v-1H24V33z M63,36H24v1h39V36z M24,41h42v-1H24V41z M63,44
			H24v1h39V44z M24,49h42v-1H24V49z M63,52H24v1h39V52z M24,57h42v-1H24V57z M63,60H24v1h39V60z M24,65h42v-1H24V65z"/>
	</g>
</g>
</svg>
