<?xml version="1.0" encoding="utf-8"?>
<!-- Generator: Adobe Illustrator 21.0.2, SVG Export Plug-In . SVG Version: 6.00 Build 0)  -->
<svg version="1.1" id="Layer_1" xmlns="http://www.w3.org/2000/svg" xmlns:xlink="http://www.w3.org/1999/xlink" x="0px" y="0px"
	 viewBox="0 0 70 90" style="enable-background:new 0 0 70 90;" xml:space="preserve">
<g>
	<path d="M15,4v68h54V4H15z M68,5v46.2L51.4,37.3L32.1,53.8l-8.3-8.3L16,53.3V5H68z M16,71V54.7l7.8-7.8l8.3,8.3l19.4-16.6L68,52.5
		V71H16z"/>
	<path d="M1,16h12V4H1V16z M2,5h10v10H2V5z"/>
	<path d="M1,30h12V18H1V30z M2,19h10v10H2V19z"/>
	<path d="M1,44h12V32H1V44z M2,33h10v10H2V33z"/>
	<path d="M1,58h12V46H1V58z M2,47h10v10H2V47z"/>
	<path d="M1,72h12V60H1V72z M2,61h10v10H2V61z"/>
	<path d="M31.5,30c2.5,0,4.5-2,4.5-4.5S34,21,31.5,21S27,23,27,25.5S29,30,31.5,30z M31.5,22c1.9,0,3.5,1.6,3.5,3.5
		c0,1.9-1.6,3.5-3.5,3.5S28,27.4,28,25.5S29.6,22,31.5,22z"/>
</g>
</svg>
