<?xml version="1.0" encoding="utf-8"?>
<!-- Generator: Adobe Illustrator 21.0.2, SVG Export Plug-In . SVG Version: 6.00 Build 0)  -->
<svg version="1.1" id="Layer_1" xmlns="http://www.w3.org/2000/svg" xmlns:xlink="http://www.w3.org/1999/xlink" x="0px" y="0px"
	 viewBox="0 0 70 90" style="enable-background:new 0 0 70 90;" xml:space="preserve">
<style type="text/css">
	.st0{fill-rule:evenodd;clip-rule:evenodd;}
</style>
<g>
	<path class="st0" d="M32,0h-1H18h-1H9H8H4H3H0v90h3h1h4h1h8h1h13h1h38V0H32z M1,89V1h2v88H1z M4,89V1h4v88H4z M9,89V1h8v88H9z
		 M18,89V1h13v88H18z M69,89H32V1h37V89z"/>
	<polygon class="st0" points="46.6,51.6 47.4,52.4 54.7,45 47.4,37.6 46.6,38.4 53.3,45 	"/>
</g>
</svg>
