<?xml version="1.0" encoding="utf-8"?>
<!-- Generator: Adobe Illustrator 21.0.2, SVG Export Plug-In . SVG Version: 6.00 Build 0)  -->
<svg version="1.1" id="Layer_1" xmlns="http://www.w3.org/2000/svg" xmlns:xlink="http://www.w3.org/1999/xlink" x="0px" y="0px"
	 viewBox="0 0 90 70" style="enable-background:new 0 0 90 70;" xml:space="preserve">
<g>
	<path d="M0,22h21V0H0V22z M1,1h19v20H1V1z"/>
	<path d="M0,46h21V24H0V46z M1,25h19v20H1V25z"/>
	<path d="M0,70h21V48H0V70z M1,49h19v20H1V49z"/>
	<path d="M23,22h21V0H23V22z M24,1h19v20H24V1z"/>
	<path d="M23,46h21V24H23V46z M24,25h19v20H24V25z"/>
	<path d="M23,70h21V48H23V70z M24,49h19v20H24V49z"/>
	<path d="M46,22h21V0H46V22z M47,1h19v20H47V1z"/>
	<path d="M46,46h21V24H46V46z M47,25h19v20H47V25z"/>
	<path d="M46,70h21V48H46V70z M47,49h19v20H47V49z"/>
	<path d="M69,0v22h21V0H69z M89,21H70V1h19V21z"/>
	<path d="M69,46h21V24H69V46z M70,25h19v20H70V25z"/>
	<path d="M69,70h21V48H69V70z M70,49h19v20H70V49z"/>
	<rect x="4" y="17" width="7" height="1"/>
	<rect x="4" y="41" width="7" height="1"/>
	<rect x="4" y="65" width="7" height="1"/>
	<rect x="27" y="17" width="7" height="1"/>
	<rect x="27" y="41" width="7" height="1"/>
	<rect x="27" y="65" width="7" height="1"/>
	<rect x="50" y="17" width="7" height="1"/>
	<rect x="50" y="41" width="7" height="1"/>
	<rect x="50" y="65" width="7" height="1"/>
	<rect x="73" y="17" width="7" height="1"/>
	<rect x="73" y="41" width="7" height="1"/>
	<rect x="73" y="65" width="7" height="1"/>
</g>
</svg>
