<?xml version="1.0" encoding="utf-8"?>
<!-- Generator: Adobe Illustrator 21.0.2, SVG Export Plug-In . SVG Version: 6.00 Build 0)  -->
<svg version="1.1" id="Layer_1" xmlns="http://www.w3.org/2000/svg" xmlns:xlink="http://www.w3.org/1999/xlink" x="0px" y="0px"
	 viewBox="0 0 70 90" style="enable-background:new 0 0 70 90;" xml:space="preserve">
<style type="text/css">
	.st0{fill-rule:evenodd;clip-rule:evenodd;}
</style>
<g>
	<path class="st0" d="M0,0v90h70V0H0z M69,89H1V1h68V89z"/>
	<rect x="32" y="68" class="st0" width="2" height="2"/>
	<rect x="36" y="68" class="st0" width="2" height="2"/>
	<path class="st0" d="M31,61c-1.1,0-2,0.9-2,2h1c0-0.6,0.4-1,1-1s1,0.4,1,1h0v4h5l2-4h-6C33,61.9,32.1,61,31,61z M33,64h4.4l-1,2H33
		V64z"/>
	<rect x="17" y="30" class="st0" width="36" height="1"/>
	<rect x="21" y="45" class="st0" width="28" height="1"/>
	<rect x="17" y="50" class="st0" width="36" height="1"/>
	<rect x="17" y="40" class="st0" width="36" height="1"/>
	<rect x="21" y="55" class="st0" width="28" height="1"/>
	<rect x="21" y="35" class="st0" width="28" height="1"/>
	<polygon class="st0" points="58.7,12 61,9.7 63.3,12 64,11.3 61.7,9 64,6.7 63.3,6 61,8.3 58.7,6 58,6.7 60.3,9 58,11.3 	"/>
</g>
</svg>
