<?xml version="1.0" encoding="utf-8"?>
<!-- Generator: Adobe Illustrator 21.0.2, SVG Export Plug-In . SVG Version: 6.00 Build 0)  -->
<svg version="1.1" id="Layer_1" xmlns="http://www.w3.org/2000/svg" xmlns:xlink="http://www.w3.org/1999/xlink" x="0px" y="0px"
	 viewBox="0 0 70 90" style="enable-background:new 0 0 70 90;" xml:space="preserve">
<g>
	<path d="M0,0v18v1v71h70V19v-1V0H0z M69,89H1V19h68V89z M69,18H1V1h68V18z"/>
	<path d="M41,7H29v5h12V7z M40,11H30V8h10V11z"/>
	<rect x="55" y="9" width="8" height="1"/>
	<rect x="55" y="6" width="8" height="1"/>
	<rect x="55" y="12" width="8" height="1"/>
	<rect x="9" y="12" width="2" height="2"/>
	<rect x="13" y="12" width="2" height="2"/>
	<path d="M8,6c0.6,0,1,0.4,1,1h0v4h5l2-4h-6c0-1.1-0.9-2-2-2S6,5.9,6,7h1C7,6.4,7.4,6,8,6z M10,8h4.4l-1,2H10V8z"/>
</g>
</svg>
