<?xml version="1.0" encoding="utf-8"?>
<!-- Generator: Adobe Illustrator 21.0.2, SVG Export Plug-In . SVG Version: 6.00 Build 0)  -->
<svg version="1.1" id="Layer_1" xmlns="http://www.w3.org/2000/svg" xmlns:xlink="http://www.w3.org/1999/xlink" x="0px" y="0px"
	 viewBox="0 0 90 70" style="enable-background:new 0 0 90 70;" xml:space="preserve">
<g>
	<path d="M90,0H63v0h-1v0H0v70h62v0h1v0h27V0z M1,69V1h61v68H1z M89,69H63V1h26V69z"/>
	<path d="M7,7v5h12V7H7z M18,11H8V8h10V11z"/>
	<rect x="68" y="11" width="2" height="2"/>
	<rect x="72" y="11" width="2" height="2"/>
	<path d="M66,6c0-0.6,0.4-1,1-1s1,0.4,1,1h0v4h5l2-4h-6c0-1.1-0.9-2-2-2s-2,0.9-2,2H66z M69,7h4.4l-1,2H69V7z"/>
	<rect x="74" y="19" width="11" height="1"/>
	<rect x="74" y="22" width="7" height="1"/>
	<rect x="74" y="28" width="11" height="1"/>
	<rect x="74" y="31" width="7" height="1"/>
	<path d="M66,24h6v-6h-6V24z M67,19h4v4h-4V19z"/>
	<path d="M66,33h6v-6h-6V33z M67,28h4v4h-4V28z"/>
	<rect x="74" y="37" width="11" height="1"/>
	<rect x="74" y="40" width="7" height="1"/>
	<path d="M66,42h6v-6h-6V42z M67,37h4v4h-4V37z"/>
	<path d="M66,66h9v-4h-9V66z M67,63h7v2h-7V63z"/>
	<path d="M77,66h9v-4h-9V66z M78,63h7v2h-7V63z"/>
</g>
</svg>
