<?xml version="1.0" encoding="utf-8"?>
<!-- Generator: Adobe Illustrator 21.0.2, SVG Export Plug-In . SVG Version: 6.00 Build 0)  -->
<svg version="1.1" id="Layer_1" xmlns="http://www.w3.org/2000/svg" xmlns:xlink="http://www.w3.org/1999/xlink" x="0px" y="0px"
	 viewBox="0 0 70 90" style="enable-background:new 0 0 70 90;" xml:space="preserve">
<g>
	<path d="M59,0h-1H0v90h58h1h11V0H59z M1,89V1h57v88H1z M69,89H59V1h10V89z"/>
	<rect x="13" y="63" width="2" height="2"/>
	<rect x="17" y="63" width="2" height="2"/>
	<path d="M12,56c-1.1,0-2,0.9-2,2h1c0-0.6,0.4-1,1-1s1,0.4,1,1h0v4h5l2-4h-6C14,56.9,13.1,56,12,56z M14,59h4.4l-1,2H14V59z"/>
	<rect x="11" y="38" width="28" height="1"/>
	<rect x="11" y="28" width="28" height="1"/>
	<rect x="11" y="23" width="32" height="1"/>
	<rect x="11" y="33" width="32" height="1"/>
	<rect x="11" y="48" width="28" height="1"/>
	<rect x="11" y="43" width="32" height="1"/>
	<polygon points="52,6.7 51.3,6 49,8.3 46.7,6 46,6.7 48.3,9 46,11.3 46.7,12 49,9.7 51.3,12 52,11.3 49.7,9 	"/>
	<path d="M23,7H11v5h12V7z M22,11H12V8h10V11z"/>
</g>
</svg>
