<?xml version="1.0" encoding="utf-8"?>
<!-- Generator: Adobe Illustrator 21.0.2, SVG Export Plug-In . SVG Version: 6.00 Build 0)  -->
<svg version="1.1" id="Layer_1" xmlns="http://www.w3.org/2000/svg" xmlns:xlink="http://www.w3.org/1999/xlink" x="0px" y="0px"
	 viewBox="0 0 90 70" style="enable-background:new 0 0 90 70;" xml:space="preserve">
<g>
	<path d="M0,0v70h90V0H0z M89,69H1V1h88V69z"/>
	<rect x="37" y="13" width="44" height="1"/>
	<rect x="37" y="17" width="41" height="1"/>
	<rect x="37" y="21" width="44" height="1"/>
	<rect x="37" y="25" width="41" height="1"/>
	<rect x="37" y="29" width="44" height="1"/>
	<rect x="37" y="33" width="41" height="1"/>
	<rect x="37" y="37" width="44" height="1"/>
	<rect x="37" y="41" width="41" height="1"/>
	<rect x="37" y="45" width="44" height="1"/>
	<rect x="37" y="49" width="41" height="1"/>
	<rect x="37" y="53" width="44" height="1"/>
	<path d="M20,44c-1.1,0-2,0.9-2,2s0.9,2,2,2s2-0.9,2-2S21.1,44,20,44z M20,47c-0.6,0-1-0.4-1-1s0.4-1,1-1s1,0.4,1,1S20.6,47,20,47z"
		/>
	<path d="M13,44c-1.1,0-2,0.9-2,2s0.9,2,2,2s2-0.9,2-2S14.1,44,13,44z M13,47c-0.6,0-1-0.4-1-1s0.4-1,1-1s1,0.4,1,1S13.6,47,13,47z"
		/>
	<path d="M27,44c-1.1,0-2,0.9-2,2s0.9,2,2,2s2-0.9,2-2S28.1,44,27,44z M27,47c-0.6,0-1-0.4-1-1s0.4-1,1-1s1,0.4,1,1S27.6,47,27,47z"
		/>
	<path d="M9,33.7V41h22v-8l0,0l0,0V13H9V33.7L9,33.7L9,33.7z M10,40v-6l2.7-2.7l3.4,3.4l7.9-6.8l6,5.5V40H10z M10,14h20v18l-6-5.5
		l-7.9,6.7l-3.4-3.4L10,32.6V14z"/>
	<path d="M16.5,24c1.4,0,2.5-1.1,2.5-2.5S17.9,19,16.5,19S14,20.1,14,21.5S15.1,24,16.5,24z M16.5,20c0.8,0,1.5,0.7,1.5,1.5
		S17.3,23,16.5,23S15,22.3,15,21.5S15.7,20,16.5,20z"/>
</g>
</svg>
