<svg fill="#000000" xmlns="http://www.w3.org/2000/svg" viewBox="0 0 16 16" width="16px" height="16px"><path d="M 2.5 1 C 1.675781 1 1 1.675781 1 2.5 L 1 7.5 C 1 8.324219 1.675781 9 2.5 9 L 5 9 L 5 12.5 C 5 13.324219 5.675781 14 6.5 14 L 13.5 14 C 14.324219 14 15 13.324219 15 12.5 L 15 7.5 C 15 6.675781 14.324219 6 13.5 6 L 11 6 L 11 2.5 C 11 1.675781 10.324219 1 9.5 1 Z M 2.5 2 L 9.5 2 C 9.78125 2 10 2.21875 10 2.5 L 10 6 L 6.5 6 C 5.675781 6 5 6.675781 5 7.5 L 5 8 L 2.5 8 C 2.21875 8 2 7.78125 2 7.5 L 2 2.5 C 2 2.21875 2.21875 2 2.5 2 Z M 6.5 7 L 13.5 7 C 13.78125 7 14 7.21875 14 7.5 L 14 12.5 C 14 12.78125 13.78125 13 13.5 13 L 6.5 13 C 6.21875 13 6 12.78125 6 12.5 L 6 7.5 C 6 7.21875 6.21875 7 6.5 7 Z"/></svg>