<?xml version="1.0" encoding="utf-8"?>
<!-- Generator: Adobe Illustrator 21.0.2, SVG Export Plug-In . SVG Version: 6.00 Build 0)  -->
<svg version="1.1" id="Layer_1" xmlns="http://www.w3.org/2000/svg" xmlns:xlink="http://www.w3.org/1999/xlink" x="0px" y="0px"
	 viewBox="0 0 50 50" style="enable-background:new 0 0 50 50;" xml:space="preserve">
<g>
	<path d="M45,0H5C2.2,0,0,2.2,0,5v40c0,2.8,2.2,5,5,5h40c2.8,0,5-2.2,5-5V5C50,2.2,47.8,0,45,0z M48,45c0,1.7-1.3,3-3,3H5
		c-1.7,0-3-1.3-3-3V5c0-1.7,1.3-3,3-3h40c1.7,0,3,1.3,3,3V45z"/>
	<polygon points="20,27.1 21.4,28.5 26,24 30.6,28.5 32,27.1 26,21.1 	"/>
</g>
</svg>
