<svg fill="#000000" xmlns="http://www.w3.org/2000/svg" viewBox="0 0 16 16" width="16px" height="16px"><path d="M 7.5 1 C 3.917969 1 1 3.917969 1 7.5 C 1 11.082031 3.917969 14 7.5 14 C 11.082031 14 14 11.082031 14 7.5 C 14 3.917969 11.082031 1 7.5 1 Z M 7.5 2 C 10.542969 2 13 4.457031 13 7.5 C 13 10.542969 10.542969 13 7.5 13 C 4.457031 13 2 10.542969 2 7.5 C 2 4.457031 4.457031 2 7.5 2 Z M 7 4 L 7.003906 9.207031 L 4.71875 7.015625 L 4.03125 7.734375 L 7.5 11.066406 L 10.96875 7.734375 L 10.28125 7.015625 L 8.003906 9.195313 L 8 4 Z"/></svg>