<?xml version="1.0" encoding="utf-8"?>
<!-- Generator: Adobe Illustrator 21.0.2, SVG Export Plug-In . SVG Version: 6.00 Build 0)  -->
<svg version="1.1" id="Layer_1" xmlns="http://www.w3.org/2000/svg" xmlns:xlink="http://www.w3.org/1999/xlink" x="0px" y="0px"
	 viewBox="0 0 24 24" style="enable-background:new 0 0 24 24;" xml:space="preserve">
<g>
	<path d="M8,18c-0.6,0-1,0.2-1.4,0.6S6,19.4,6,20s0.2,1.1,0.6,1.4S7.4,22,8,22s1-0.2,1.4-0.6S10,20.6,10,20s-0.2-1-0.6-1.4
		S8.6,18,8,18z"/>
	<path d="M18,18c-0.6,0-1.1,0.2-1.5,0.6S16,19.4,16,20s0.2,1.1,0.6,1.4S17.4,22,18,22s1.1-0.2,1.4-0.6S20,20.6,20,20s-0.2-1-0.6-1.4
		S18.6,18,18,18z"/>
	<path d="M21.8,6.4C21.6,6.2,21.3,6,21,6H10v2h9.6l-2.3,6H8.8L6,2.8C5.9,2.3,5.5,2,5,2H2v2h2.2L7,15.3C7.1,15.7,7.5,16,8,16h10
		c0.4,0,0.8-0.3,0.9-0.6l3-8C22.1,7.1,22,6.7,21.8,6.4z"/>
</g>
</svg>
