<?xml version="1.0" encoding="utf-8"?>
<!-- Generator: Adobe Illustrator 21.0.2, SVG Export Plug-In . SVG Version: 6.00 Build 0)  -->
<svg version="1.1" id="Layer_1" xmlns="http://www.w3.org/2000/svg" xmlns:xlink="http://www.w3.org/1999/xlink" x="0px" y="0px"
	 viewBox="0 0 16 16" style="enable-background:new 0 0 16 16;" xml:space="preserve">
<path d="M13.3,0c-1.5,0-2.7,1.2-2.7,2.7c0,0.2,0,0.4,0.1,0.5l-6.1,3c-0.5-0.6-1.2-0.9-2-0.9C1.2,5.3,0,6.5,0,8s1.2,2.7,2.7,2.7
	c0.8,0,1.5-0.4,2-0.9l6.1,3c0,0.2-0.1,0.4-0.1,0.5c0,1.5,1.2,2.7,2.7,2.7s2.7-1.2,2.7-2.7s-1.2-2.7-2.7-2.7c-0.8,0-1.5,0.4-2,0.9
	l-6.1-3c0-0.2,0.1-0.4,0.1-0.5c0-0.2,0-0.4-0.1-0.5l6.1-3c0.5,0.6,1.2,0.9,2,0.9c1.5,0,2.7-1.2,2.7-2.7S14.8,0,13.3,0z"/>
</svg>
