<?xml version="1.0" encoding="utf-8"?>
<!-- Generator: Adobe Illustrator 21.0.2, SVG Export Plug-In . SVG Version: 6.00 Build 0)  -->
<svg version="1.1" id="Layer_1" xmlns="http://www.w3.org/2000/svg" xmlns:xlink="http://www.w3.org/1999/xlink" x="0px" y="0px"
	 viewBox="0 0 16 16" style="enable-background:new 0 0 16 16;" xml:space="preserve">
<path d="M14.2,0H1.8C0.8,0,0,0.8,0,1.8v12.4c0,1,0.8,1.8,1.8,1.8h12.4c1,0,1.8-0.8,1.8-1.8V1.8C16,0.8,15.2,0,14.2,0z M13.2,11.3
	h-1.5c0,0-0.4,0.1-0.8-0.3c-0.5-0.4-1.2-1.4-1.5-1.2C9,10,9,10.8,9,10.8s0,0.2-0.1,0.3c-0.1,0.1-0.4,0.1-0.4,0.1H7.9
	c0,0-1.5,0.1-2.8-1.2C3.6,8.4,2.2,5.4,2.2,5.4s-0.1-0.2,0-0.3c0.1-0.1,0.4-0.1,0.4-0.1h1.7c0,0,0.2,0,0.3,0.1c0.1,0,0.1,0.2,0.1,0.2
	S4.9,6,5.2,6.6C6,7.7,6.3,8,6.5,7.9c0.4-0.2,0.3-1.7,0.3-1.7s0-0.5-0.2-0.8C6.5,5.2,6.2,5.2,6,5.2C6,5.2,6.1,4.9,6.3,4.8
	c0.3-0.2,0.8-0.2,1.4-0.2c0.4,0,0.6,0,0.8,0.1c0.5,0.2,0.4,0.7,0.4,2c0,0.4-0.1,1,0.2,1.2c0.1,0.1,0.4,0,1.2-1.3
	c0.4-0.6,0.6-1.3,0.6-1.3S11,5.1,11.1,5c0.1-0.1,0.3,0,0.3,0h1.8c0,0,0.5-0.1,0.6,0.2c0.1,0.3-0.2,0.8-0.9,1.8
	c-1.2,1.6-1.3,1.4-0.4,2.3c0.9,0.9,1.2,1.2,1.2,1.3C14,11.2,13.2,11.3,13.2,11.3z"/>
</svg>
