<?xml version="1.0" encoding="utf-8"?>
<!-- Generator: Adobe Illustrator 21.0.2, SVG Export Plug-In . SVG Version: 6.00 Build 0)  -->
<svg version="1.1" id="Layer_1" xmlns="http://www.w3.org/2000/svg" xmlns:xlink="http://www.w3.org/1999/xlink" x="0px" y="0px"
	 viewBox="0 0 16 16" style="enable-background:new 0 0 16 16;" xml:space="preserve">
<path d="M10.4,15.8c-0.2-0.1-0.5-0.1-0.7-0.2c-0.2-0.1-0.5-0.1-1.3-0.1s-1.2,0-1.7-0.1c-2.8-0.5-5.2-2.6-6-5.5
	C0.6,9.4,0.6,9.1,0.6,7.9c0-1.4,0-1.5-0.2-2.1C-0.7,2.9,1.5,0,4.5,0c0.6,0,1.4,0.2,1.8,0.4c0.3,0.1,0.4,0.2,1.6,0.2
	c1,0,1.4,0,1.9,0.2c2.3,0.6,4.1,2.1,5.1,4.1c0.6,1.3,0.8,2.6,0.7,4c-0.1,0.8-0.1,0.9,0.1,1.4c0.6,1.7,0,3.6-1.4,4.8
	c-0.4,0.4-1.3,0.8-1.9,0.9C11.9,15.9,11,15.9,10.4,15.8L10.4,15.8L10.4,15.8z M9.5,13.1c1.2-0.3,2.3-1,2.7-1.9
	c0.5-1.1,0.4-2.3-0.3-3c-0.6-0.7-1.5-1-3.4-1.5C7,6.4,6.7,6.2,6.4,5.9C6,5.6,6,5.4,6.2,5.1C6.4,4.7,7,4.5,7.7,4.5
	c1.1-0.1,1.5,0.2,2.2,1.2c0.5,0.7,1,0.9,1.6,0.6c0.8-0.4,0.7-1.7-0.1-2.5c-0.8-0.7-1.8-1-3.2-1c-1.6,0-2.7,0.3-3.3,1.1
	C4.1,4.4,4,4.7,4,5.7s0.1,1.2,0.7,1.8C5.3,8,5.8,8.2,7.8,8.7C9.2,9,9.5,9.2,9.8,9.6C9.9,9.8,10,9.9,10,10.3c0,0.4,0,0.4-0.3,0.7
	c-0.4,0.4-1.1,0.6-1.9,0.6c-1-0.1-1.4-0.4-1.9-1.4c-0.4-0.7-0.7-1-1.1-1c-1.1,0-1.4,0.9-0.9,2c0.5,1,1.4,1.6,2.6,1.9
	C7.3,13.2,8.9,13.2,9.5,13.1L9.5,13.1L9.5,13.1z"/>
</svg>
