<?xml version="1.0" encoding="utf-8"?>
<!-- Generator: Adobe Illustrator 21.0.2, SVG Export Plug-In . SVG Version: 6.00 Build 0)  -->
<svg version="1.1" id="Layer_1" xmlns="http://www.w3.org/2000/svg" xmlns:xlink="http://www.w3.org/1999/xlink" x="0px" y="0px"
	 viewBox="0 0 16 16" style="enable-background:new 0 0 16 16;" xml:space="preserve">
<g>
	<path d="M5.7,6.6L5.7,6.6C5.2,6.5,4.6,6.4,3.9,6.4c-2.7,0-3.9,2-3.9,4c0,1.2,0.7,2,1.7,2C2.3,12.3,3,12,3.5,11h0
		c0,0.4-0.1,0.8-0.1,1.1H5c0-0.7,0.1-1.8,0.2-2.6L5.7,6.6z M3.7,9c-0.3,1.4-0.9,2-1.4,2c-0.4,0-0.6-0.5-0.6-1c0-1.1,0.7-2.4,1.8-2.4
		c0.2,0,0.4,0,0.5,0.1L3.7,9z"/>
	<path d="M8.4,8.7L8.4,8.7C8,8.5,7.7,8.3,7.7,8.1c0-0.3,0.3-0.5,0.7-0.5c0.5,0,0.9,0.1,1.1,0.2l0.4-1.2C9.7,6.5,9.2,6.3,8.5,6.3
		c-1.4,0-2.4,0.8-2.4,2c0,0.7,0.5,1.2,1.2,1.5C7.8,10.1,8,10.3,8,10.5c0,0.3-0.2,0.5-0.7,0.5c-0.5,0-1.1-0.2-1.4-0.4l-0.4,1.2
		c0.3,0.2,1,0.4,1.7,0.4c1.5,0,2.5-0.7,2.5-2C9.6,9.5,9,9,8.4,8.7z"/>
	<path d="M16,6.4h-2l-1.5,1.8c-0.2,0.2-0.3,0.4-0.5,0.6h0l1-5.1h-1.6l-1.6,8.4h1.6l0.3-1.8l0.6-0.6l1,2.4h1.8l-1.6-3.3L16,6.4
		L16,6.4z"/>
</g>
</svg>
