<?xml version="1.0" encoding="utf-8"?>
<!-- Generator: Adobe Illustrator 21.0.2, SVG Export Plug-In . SVG Version: 6.00 Build 0)  -->
<svg version="1.1" id="Layer_1" xmlns="http://www.w3.org/2000/svg" xmlns:xlink="http://www.w3.org/1999/xlink" x="0px" y="0px"
	 viewBox="0 0 16 16" style="enable-background:new 0 0 16 16;" xml:space="preserve">
<path d="M9.6,8.8c0.2,0,0.4,0.1,0.6,0.3c0.2,0.2,0.2,0.3,0.2,0.6s-0.1,0.4-0.2,0.6c-0.2,0.2-0.3,0.2-0.6,0.2H6.3
	c-0.2,0-0.4-0.1-0.6-0.2C5.5,10.1,5.5,10,5.5,9.7s0.1-0.4,0.2-0.6C5.9,8.9,6,8.8,6.3,8.8H9.6z M6.3,6.4c-0.2,0-0.4-0.1-0.6-0.2
	C5.6,6,5.6,5.8,5.6,5.6c0-0.2,0.1-0.4,0.2-0.6C6,4.8,6.1,4.8,6.4,4.8h2.1c0.2,0,0.4,0.1,0.6,0.2c0.2,0.2,0.2,0.3,0.2,0.6
	c0,0.2-0.1,0.4-0.2,0.6C8.9,6.3,8.7,6.4,8.5,6.4H6.3z M11.2,6.4V4.8c0-0.7-0.2-1.2-0.7-1.7s-1-0.7-1.7-0.7H5.6
	c-0.7,0-1.2,0.2-1.7,0.7s-0.7,1-0.7,1.7v5.6c0,0.7,0.2,1.2,0.7,1.7s1,0.7,1.7,0.7h4.8c0.7,0,1.2-0.2,1.7-0.7s0.7-1,0.7-1.7V8
	c0-0.2-0.1-0.4-0.2-0.6c-0.2-0.2-0.3-0.2-0.6-0.2c-0.2,0-0.4-0.1-0.6-0.2C11.3,6.8,11.2,6.6,11.2,6.4L11.2,6.4z M14.4,0
	c0.4,0,0.8,0.2,1.1,0.5C15.8,0.8,16,1.2,16,1.6v12.8c0,0.4-0.2,0.8-0.5,1.1c-0.3,0.3-0.7,0.5-1.1,0.5H1.6c-0.4,0-0.8-0.2-1.1-0.5
	C0.2,15.2,0,14.8,0,14.4V1.6c0-0.4,0.2-0.8,0.5-1.1S1.2,0,1.6,0H14.4z"/>
</svg>
