<?xml version="1.0" encoding="utf-8"?>
<!-- Generator: Adobe Illustrator 21.0.2, SVG Export Plug-In . SVG Version: 6.00 Build 0)  -->
<svg version="1.1" id="Layer_1" xmlns="http://www.w3.org/2000/svg" xmlns:xlink="http://www.w3.org/1999/xlink" x="0px" y="0px"
	 viewBox="0 0 16 16" style="enable-background:new 0 0 16 16;" xml:space="preserve">
<path d="M9.6,1.1c-0.5,0-1.1,0.2-1.5,0.5C7.7,2,7.5,2.6,7.5,3.2v1.1C5.9,4.4,4.4,4.9,3.3,5.7C3,5.4,2.7,5.3,2.3,5.3
	C1.6,5.3,1,5.4,0.6,6l0,0l0,0C0.1,6.5-0.1,7.3,0,7.9s0.5,1.2,1.1,1.6c0,0.1,0,0.1,0,0.1c0,1.5,0.9,2.9,2,3.8c1.3,1,3,1.5,4.9,1.5
	s3.6-0.5,4.9-1.5c1.2-1,2-2.3,2-3.8c0,0,0,0,0-0.1c0.6-0.4,1-1,1.1-1.6c0.1-0.6-0.1-1.4-0.4-1.9l0,0l0,0c-0.4-0.5-1.1-0.6-1.7-0.6
	c-0.4,0-0.7,0.1-1.1,0.3c-1.2-0.7-2.7-1.3-4.3-1.4V3.2c0-0.3,0.1-0.6,0.3-0.7C9,2.3,9.3,2.2,9.6,2.2c0.2,0,0.6,0.2,1.2,0.4
	c0.5,0.2,1.4,0.6,2.4,0.6h0.6c0.6,0,1.1-0.4,1.1-1.1s-0.4-1.1-1.1-1.1c-0.5,0-1.1,0.4-1.1,1.1c-0.6-0.1-1.1-0.2-1.5-0.4
	C10.8,1.4,10.2,1.1,9.6,1.1z M8,5.3c1.7,0,3.2,0.5,4.1,1.3c1.1,0.9,1.7,1.9,1.7,3c0,1.2-0.6,2.1-1.7,3c-1.1,0.7-2.6,1.3-4.1,1.3
	s-3.2-0.5-4.1-1.3c-1.1-0.9-1.7-1.8-1.7-3c0-1.1,0.6-2.1,1.7-3C4.8,5.9,6.3,5.3,8,5.3z M13.8,6.4c0.3,0,0.6,0.1,0.9,0.3
	c0.2,0.2,0.3,0.6,0.2,1.1c0,0.2-0.1,0.4-0.2,0.5c-0.2-0.6-0.6-1.3-1.1-1.8C13.6,6.4,13.7,6.4,13.8,6.4z M2.2,6.4
	c0.1,0,0.1,0,0.2,0.1C1.8,7,1.5,7.7,1.3,8.3C1.2,8.1,1.1,7.9,1.1,7.8c0-0.4,0.1-0.9,0.2-1.1C1.5,6.5,1.8,6.4,2.2,6.4z M5.3,7.5
	c-0.5,0-1.1,0.4-1.1,1.1s0.4,1.1,1.1,1.1s1.1-0.4,1.1-1.1S6,7.5,5.3,7.5z M10.7,7.5c-0.5,0-1.1,0.4-1.1,1.1s0.4,1.1,1.1,1.1
	s1.1-0.4,1.1-1.1S11.3,7.5,10.7,7.5z M5.3,10.7c0.3,1,1.5,2.1,2.7,2.1s2.3-1.1,2.7-2.1c-0.5,0.6-1.6,1.1-2.7,1.1S5.9,11.2,5.3,10.7z
	"/>
</svg>
