<?xml version="1.0" encoding="utf-8"?>
<!-- Generator: Adobe Illustrator 21.0.2, SVG Export Plug-In . SVG Version: 6.00 Build 0)  -->
<svg version="1.1" id="Layer_1" xmlns="http://www.w3.org/2000/svg" xmlns:xlink="http://www.w3.org/1999/xlink" x="0px" y="0px"
	 viewBox="0 0 16 16" style="enable-background:new 0 0 16 16;" xml:space="preserve">
<path d="M11.6,1.5c-0.4,0-0.9,0.1-1.3,0.2C10,1.8,9.9,2.1,10,2.3c0.1,0.3,0.4,0.4,0.6,0.3c0.3-0.1,0.6-0.1,1-0.1
	C13.4,2.5,15,4.1,15,6c0,0.3,0,0.6-0.1,0.9s0.1,0.5,0.4,0.6c0.3,0.1,0.5-0.1,0.6-0.4C15.9,6.8,16,6.4,16,6C16,3.5,14,1.5,11.6,1.5z
	 M6.7,3.5c-1.1,0-2.8,0.9-4.3,2.4C0.9,7.3,0,8.9,0,10.3c0,2.9,3.4,4.2,6.7,4.2c4.4,0,7.3-2.5,7.3-4.5c0-1.2-1-1.9-1.9-2.2
	c-0.2-0.1-0.4-0.1-0.3-0.4c0.3-0.6,0.3-1.2,0-1.6c-0.5-0.7-1.9-0.7-3.6,0c0,0-0.5,0.2-0.4-0.2C8.1,4.9,8,4.2,7.7,3.8
	C7.4,3.6,7.1,3.5,6.7,3.5z M12,3.5c-0.2,0-0.5,0-0.7,0.1S11,3.8,11,4s0,0.4,0.2,0.5c0.1,0.1,0.3,0.1,0.5,0.1c0-0.1,0.1-0.1,0.3-0.1
	c0.6,0,1,0.4,1,1c0,0.1,0,0.2-0.1,0.3c-0.1,0.2,0,0.4,0.1,0.5s0.3,0.2,0.5,0.2s0.3-0.2,0.4-0.3C13.9,6,14,5.7,14,5.5
	C14,4.4,13.1,3.5,12,3.5z M6.5,7.5c2.3,0,4.4,1,4.5,2.5c0.2,1.7-1.5,3.6-5.4,3.6H5.5C3.9,13.5,2.1,12.8,2,11
	C1.8,9.3,2.8,7.8,5.5,7.5C5.8,7.5,6.1,7.5,6.5,7.5z M5.9,8.5C4.8,8.4,3.6,9,3.2,9.9c-0.6,1,0,2.2,1.2,2.5c1.3,0.4,2.8-0.2,3.4-1.3
	C8.3,10,7.7,8.9,6.4,8.6C6.2,8.5,6.1,8.5,5.9,8.5z M6.1,9.9c0.2,0.1,0.2,0.2,0.1,0.4c0,0.1-0.2,0.1-0.4,0.1
	c-0.2-0.1-0.2-0.3-0.1-0.4S6,9.8,6.1,9.9z M4.8,10.2c0.1,0,0.2,0,0.3,0.1c0.4,0.2,0.5,0.6,0.3,1c-0.3,0.4-0.8,0.5-1.2,0.4
	c-0.4-0.2-0.5-0.6-0.3-1C4.1,10.3,4.5,10.2,4.8,10.2z"/>
</svg>
