<?xml version="1.0" encoding="utf-8"?>
<!-- Generator: Adobe Illustrator 21.0.2, SVG Export Plug-In . SVG Version: 6.00 Build 0)  -->
<svg version="1.1" id="Layer_1" xmlns="http://www.w3.org/2000/svg" xmlns:xlink="http://www.w3.org/1999/xlink" x="0px" y="0px"
	 viewBox="0 0 16 16" style="enable-background:new 0 0 16 16;" xml:space="preserve">
<g>
	<path d="M3.3,0.8C3,0.5,2.5,0.4,1.9,0.4c-0.6,0-1,0.2-1.4,0.5C0.2,1.2,0,1.6,0,2.1c0,0.5,0.2,0.9,0.5,1.3c0.4,0.3,0.8,0.5,1.4,0.5
		h0c0.6,0,1.1-0.2,1.4-0.5c0.4-0.3,0.5-0.7,0.5-1.2C3.9,1.6,3.7,1.2,3.3,0.8z"/>
	<rect x="0.2" y="5.3" width="3.4" height="10.3"/>
	<path d="M14.9,6.3c-0.7-0.8-1.7-1.2-2.9-1.2c-1.3,0-2.4,0.6-3.1,1.7v0h0l0,0V5.3H5.5c0,0.3,0,1.4,0,3.1c0,1.7,0,4.1,0,7.2H9V9.9
		c0-0.4,0-0.6,0.1-0.8c0.1-0.4,0.4-0.6,0.7-0.9c0.3-0.2,0.7-0.4,1.1-0.4c1.2,0,1.7,0.8,1.7,2.3v5.5H16V9.7C16,8.2,15.6,7.1,14.9,6.3
		z"/>
</g>
</svg>
