<?xml version="1.0" encoding="utf-8"?>
<!-- Generator: Adobe Illustrator 21.0.2, SVG Export Plug-In . SVG Version: 6.00 Build 0)  -->
<svg version="1.1" id="Layer_1" xmlns="http://www.w3.org/2000/svg" xmlns:xlink="http://www.w3.org/1999/xlink" x="0px" y="0px"
	 viewBox="0 0 16 16" style="enable-background:new 0 0 16 16;" xml:space="preserve">
<g>
	<path d="M0.8,7C0.4,7,0,7.3,0,7.7c0,0.4,0.4,0.8,0.8,0.8s0.8-0.4,0.8-0.8C1.5,7.3,1.2,7,0.8,7z"/>
	<path d="M3.6,3.9c0.3,0,0.5-0.2,0.5-0.5S3.9,2.8,3.6,2.8S3.1,3,3.1,3.4S3.3,3.9,3.6,3.9z"/>
	<path d="M9.5,2.3c0.4,0,0.8-0.4,0.8-0.8S10,0.8,9.5,0.8c-0.4,0-0.8,0.4-0.8,0.8S9.1,2.3,9.5,2.3z"/>
	<path d="M4.9,0.8c0.2,0,0.3-0.1,0.3-0.3S5.1,0.3,4.9,0.3S4.6,0.4,4.6,0.5S4.7,0.8,4.9,0.8z"/>
	<path d="M2.8,12.6c-0.2,0-0.3,0.1-0.3,0.3c0,0.2,0.1,0.3,0.3,0.3c0.2,0,0.3-0.1,0.3-0.3C3.1,12.7,3,12.6,2.8,12.6z"/>
	<path d="M15.7,6.5c-0.2,0-0.3,0.1-0.3,0.3c0,0.2,0.1,0.3,0.3,0.3C15.9,7,16,6.9,16,6.7C16,6.6,15.9,6.5,15.7,6.5z"/>
	<path d="M15,8c-0.3,0-0.5,0.2-0.5,0.5C14.5,8.8,14.7,9,15,9s0.5-0.2,0.5-0.5C15.5,8.2,15.3,8,15,8z"/>
	<path d="M13.9,4.4c-0.3,0-0.5,0.2-0.5,0.5s0.2,0.5,0.5,0.5s0.5-0.2,0.5-0.5S14.2,4.4,13.9,4.4z"/>
	<path d="M7.7,14.7c-0.3,0-0.5,0.2-0.5,0.5s0.2,0.5,0.5,0.5c0.3,0,0.5-0.2,0.5-0.5S8.1,14.7,7.7,14.7z"/>
	<path d="M12.1,13.7c-0.4,0-0.8,0.4-0.8,0.8c0,0.4,0.4,0.8,0.8,0.8s0.8-0.4,0.8-0.8C12.9,14,12.5,13.7,12.1,13.7z"/>
	<path d="M12.9,5.8c0-0.1,0-0.1,0-0.2c0-1.5-1.3-2.8-2.8-2.8C9.8,2.8,9.4,2.9,9.1,3C8.6,2.6,7.9,2.3,7.2,2.3c-1.3,0-2.5,0.9-2.9,2.1
		C3,4.4,2.1,5.5,2.1,6.7c0,0.4,0.1,0.7,0.3,1C1.9,8.2,1.5,8.8,1.5,9.5c0,1.2,0.9,2.3,2.1,2.5v0.1c0,1.4,1.1,2.6,2.6,2.6
		c0.6,0,1.2-0.2,1.7-0.6c0.4,0.4,0.9,0.6,1.4,0.6c1,0,1.8-0.7,2-1.5c1.5-0.1,2.6-1.3,2.6-2.8c0-0.6-0.2-1.1-0.5-1.6
		c0.3-0.3,0.5-0.8,0.5-1.2C13.9,6.8,13.5,6.1,12.9,5.8z M10,11.4c-0.6-0.3-0.9-0.9-0.8-1.6c0.1-0.5,1.2-2.5,1.2-2.8
		c0.1-0.3-0.1-0.4-0.2-0.4c-0.2,0-0.3,0.1-0.4,0.3c-0.1,0.2-1.4,2.9-1.5,3.1C8,10.8,7,10.7,7.1,10C7.2,9.8,8,7.8,8.1,7.5
		c0.1-0.2,0-0.4-0.2-0.5C7.6,6.9,7.4,7.1,7.4,7.2C7.3,7.3,6.1,10.5,6,10.7c-0.2,0.4-0.5,0.5-0.8,0.6C4.3,11.4,3.7,10.6,4,9.8
		c0.1-0.4,0.9-3.3,1.3-4c0.3-0.5,1-0.9,1.5-0.6c0.3,0.1,0.7,0.3,0.8,0.4c0.3,0.1,0.5-0.2,0.6-0.3c0.2-0.2,0.3-0.4,0.5-0.4
		c0.1,0,0.2,0,0.3,0C9.3,5,9.4,5.1,9.7,5.3c0.2,0.2,0.3,0.1,0.4,0c0.2-0.1,0.3-0.2,0.7-0.2c0.5,0,0.9,0.2,1.1,0.9
		c0.1,0.9-1.4,3-1.3,4.1c0.1,0.7,1.3,0.2,1.4,0.9C12,11.9,10.4,11.6,10,11.4z"/>
</g>
</svg>
