<?xml version="1.0" encoding="utf-8"?>
<!-- Generator: Adobe Illustrator 21.0.2, SVG Export Plug-In . SVG Version: 6.00 Build 0)  -->
<svg version="1.1" id="Layer_1" xmlns="http://www.w3.org/2000/svg" xmlns:xlink="http://www.w3.org/1999/xlink" x="0px" y="0px"
	 viewBox="0 0 16 16" style="enable-background:new 0 0 16 16;" xml:space="preserve">
<g>
	<path d="M9.5,7.1C9,7.1,8.6,7.5,8.6,8c0,0.5,0.4,0.9,0.8,0.9c0.5,0,0.8-0.4,0.8-0.9C10.3,7.5,9.9,7.1,9.5,7.1z"/>
	<path d="M6.5,7.1C6.1,7.1,5.7,7.5,5.7,8c0,0.5,0.4,0.9,0.8,0.9C7,8.9,7.4,8.5,7.4,8C7.4,7.5,7,7.1,6.5,7.1z"/>
	<path d="M13.4,0H2.6C1.7,0,1,0.7,1,1.6v10.8c0,0.9,0.7,1.6,1.6,1.6h9.1l-0.4-1.5l1,1l1,0.9L15,16V1.6C15,0.7,14.3,0,13.4,0z
		 M10.3,10.4c0,0-0.3-0.3-0.5-0.6c1-0.3,1.4-1,1.4-1c-0.3,0.2-0.6,0.4-0.9,0.5C9.9,9.5,9.5,9.6,9.1,9.7C8.3,9.8,7.6,9.8,7,9.7
		C6.6,9.6,6.2,9.4,5.9,9.3C5.7,9.2,5.5,9.2,5.3,9c0,0,0,0-0.1,0c0,0,0,0,0,0C5,8.9,5,8.8,5,8.8s0.4,0.6,1.4,0.9
		c-0.2,0.3-0.5,0.7-0.5,0.7C4,10.4,3.4,9.2,3.4,9.2c0-2.6,1.2-4.7,1.2-4.7c1.2-0.9,2.2-0.8,2.2-0.8l0.1,0.1c-1.4,0.4-2.1,1-2.1,1
		s0.2-0.1,0.5-0.2C6.1,4.3,6.8,4.2,7,4.1c0,0,0.1,0,0.1,0c0.5-0.1,1-0.1,1.6,0c0.8,0.1,1.6,0.3,2.4,0.8c0,0-0.6-0.6-2-1l0.1-0.1
		c0,0,1.1,0,2.2,0.8c0,0,1.2,2.1,1.2,4.7C12.7,9.2,12,10.4,10.3,10.4z"/>
</g>
</svg>
