<?xml version="1.0" encoding="utf-8"?>
<!-- Generator: Adobe Illustrator 21.0.2, SVG Export Plug-In . SVG Version: 6.00 Build 0)  -->
<svg version="1.1" id="Layer_1" xmlns="http://www.w3.org/2000/svg" xmlns:xlink="http://www.w3.org/1999/xlink" x="0px" y="0px"
	 viewBox="0 0 16 16" style="enable-background:new 0 0 16 16;" xml:space="preserve">
<path d="M16,6c0-0.1-0.1-0.2-0.3-0.2l-5-1L8.3,0.6c-0.1-0.2-0.5-0.2-0.6,0L5.3,4.8l-5,1C0.2,5.8,0.1,5.9,0,6c-0.1,0.1,0,0.2,0.1,0.3
	L3.6,10l-0.7,5.2c0,0.1,0,0.2,0.1,0.3s0.2,0.1,0.3,0L8,13.3l5,2.2H13c0.1,0,0.1,0,0.2-0.1c0.1-0.1,0.1-0.2,0.1-0.3l-0.6-3.4
	c1-0.7,1.2-1.1,1.2-1.2c0-0.1,0-0.2-0.1-0.3c0,0-0.1-0.1-0.2-0.1c-5.1,2.6-9.2,1.2-9.2,1.2c-0.1,0-0.3-0.1-0.3-0.3
	c0-0.1,0.1-0.3,0.2-0.3C5.6,9.8,9,7.2,9,7.2S7.4,6.6,4.2,6.9C4,6.9,3.9,6.8,3.9,6.7s0-0.3,0.1-0.4c0.1-0.1,1.7-0.6,4.6-0.7
	c1.5,0,2.4,0.6,2.4,0.7c0.1,0.1,0.1,0.2,0.1,0.3s0,0.2-0.1,0.3L7.7,9.5c2,0.8,4.8,0.3,4.8,0.3l3.4-3.6C16,6.2,16.1,6.1,16,6z"/>
</svg>
