<?xml version="1.0" encoding="utf-8"?>
<!-- Generator: Adobe Illustrator 21.0.2, SVG Export Plug-In . SVG Version: 6.00 Build 0)  -->
<svg version="1.1" id="Layer_1" xmlns="http://www.w3.org/2000/svg" xmlns:xlink="http://www.w3.org/1999/xlink" x="0px" y="0px"
	 viewBox="0 0 16 16" style="enable-background:new 0 0 16 16;" xml:space="preserve">
<path d="M8,0C3.6,0,0,3.6,0,8s3.6,8,8,8s8-3.6,8-8S12.4,0,8,0z M8,1.4c1.7,0,3.3,0.7,4.5,1.7h-0.1c-0.7,0-1.1,0.6-1.1,1.2
	s0.3,1,0.6,1.5c0.2,0.4,0.6,1,0.6,1.8c0,0.6-0.2,1.2-0.5,2.2L11.3,12L8.9,4.3c0.4,0,0.7-0.1,0.7-0.1c0.4,0,0.3-0.6-0.1-0.6
	c0,0-1.1,0.1-1.8,0.1C7.1,3.8,6,3.7,6,3.7c-0.4,0-0.4,0.6-0.1,0.6c0,0,0.4,0.1,0.7,0.1l1.1,3.4l-1.5,4.4L3.8,4.3
	c0.4,0,0.7-0.1,0.7-0.1c0.4,0,0.4-0.6,0-0.6c0,0-1,0.1-1.7,0.1C4.1,2.3,5.9,1.4,8,1.4z M13.8,4.8c0.5,0.9,0.8,2,0.8,3.2
	c0,2.6-1.5,4.9-3.8,6c0.1-0.1,0.3-0.1,0.4-0.2l2-5.9c0.4-0.9,0.5-1.7,0.5-2.4C13.9,5.2,13.9,5,13.8,4.8L13.8,4.8z M2,5.2l3.1,8.9
	c-2.2-1.1-3.8-3.4-3.8-6C1.4,7,1.5,6,2,5.2z M8.1,8.6l2,5.6c0,0.1,0,0.1,0.1,0.1c-0.7,0.2-1.4,0.3-2.2,0.3c-0.7,0-1.3-0.1-1.9-0.2
	L8.1,8.6z M5.2,14c0.2,0.1,0.4,0.1,0.6,0.2C5.5,14.2,5.4,14.1,5.2,14z M10.7,14.1c-0.1,0.1-0.3,0.1-0.4,0.2
	C10.5,14.2,10.6,14.2,10.7,14.1z M5.9,14.3c0.1,0,0.1,0.1,0.2,0.1C6,14.3,6,14.3,5.9,14.3z"/>
</svg>
