<?xml version="1.0" encoding="utf-8"?>
<!-- Generator: Adobe Illustrator 21.0.2, SVG Export Plug-In . SVG Version: 6.00 Build 0)  -->
<svg version="1.1" id="Layer_1" xmlns="http://www.w3.org/2000/svg" xmlns:xlink="http://www.w3.org/1999/xlink" x="0px" y="0px"
	 viewBox="0 0 16 16" style="enable-background:new 0 0 16 16;" xml:space="preserve">
<g>
	<path d="M9.7,11.6c0.9-0.2,1.7-0.5,2.4-1c0.6-0.3,0.8-1.1,0.3-1.7c-0.3-0.6-1.1-0.7-1.7-0.3c-1.7,1-3.9,1-5.6,0
		C4.6,8.3,3.9,8.5,3.5,9s-0.2,1.3,0.3,1.7l0,0c0.8,0.5,1.6,0.8,2.4,1L3.9,14c-0.5,0.5-0.5,1.3,0.1,1.7c0.6,0.3,1.3,0.3,1.8-0.1
		L8,13.4l2.3,2.3c0.5,0.5,1.2,0.5,1.7,0c0.5-0.5,0.5-1.2,0-1.7L9.7,11.6z"/>
	<path d="M8,8.2c2.3,0,4.1-1.9,4.1-4.1S10.3,0,8,0S3.9,1.9,3.9,4.1C3.9,6.4,5.8,8.2,8,8.2z M8,2.4c0.9,0,1.7,0.8,1.7,1.7
		S9,5.9,8,5.9S6.3,5.2,6.3,4.2C6.4,3.2,7.1,2.4,8,2.4z"/>
</g>
</svg>
