<?xml version="1.0" encoding="utf-8"?>
<!-- Generator: Adobe Illustrator 21.0.2, SVG Export Plug-In . SVG Version: 6.00 Build 0)  -->
<svg version="1.1" id="Layer_1" xmlns="http://www.w3.org/2000/svg" xmlns:xlink="http://www.w3.org/1999/xlink" x="0px" y="0px"
	 viewBox="0 0 16 16" style="enable-background:new 0 0 16 16;" xml:space="preserve">
<g>
	<g>
		<path d="M15.4,9.4c0-1.1-1.1-3.3-3.4-3.3c-1.6,0-2.2,0.5-2.8,0.9C8.8,6.2,7.8,5.5,6.9,5.5S5.3,5.8,4.8,6.3c-0.1-0.4-0.5-1.5-2-1.5
			c-1.9,0-2.2,1.8-2.2,2s0,4.1,0,4.1h3.7v1.9l3.7,0V16c0,0,5,0,7.4,0C15.4,16,15.4,10.3,15.4,9.4z"/>
		<circle cx="11.7" cy="2.4" r="2.4"/>
		<circle cx="6.8" cy="2.4" r="1.7"/>
		<circle cx="2.7" cy="2.7" r="1.4"/>
	</g>
</g>
</svg>
