<?xml version="1.0" encoding="utf-8"?>
<!-- Generator: Adobe Illustrator 21.0.2, SVG Export Plug-In . SVG Version: 6.00 Build 0)  -->
<svg version="1.1" id="Layer_1" xmlns="http://www.w3.org/2000/svg" xmlns:xlink="http://www.w3.org/1999/xlink" x="0px" y="0px"
	 viewBox="0 0 16 16" style="enable-background:new 0 0 16 16;" xml:space="preserve">
<g>
	<polygon points="6.2,10.5 9.8,10.5 11,7.1 8,4.9 5.1,7.1 	"/>
	<path d="M12.8,1.6C11.5,0.6,9.8,0,8,0C6.6,0,5.2,0.4,4,1.1l7.2,5.3L12.8,1.6z"/>
	<path d="M3.4,1.5C1.3,3,0,5.3,0,8c0,0.6,0.1,1.2,0.2,1.7l7.2-5.3L3.4,1.5z"/>
	<path d="M0.4,10.5c1,3,3.6,5.2,6.8,5.5L4.5,7.5L0.4,10.5z"/>
	<path d="M13.4,2.1l-2.9,8.3h5.1C15.8,9.7,16,8.8,16,8C16,5.7,15,3.5,13.4,2.1z"/>
	<path d="M7.9,16L7.9,16c3.4,0,6.2-2,7.4-4.9h-9L7.9,16z"/>
</g>
</svg>
