<?xml version="1.0" encoding="utf-8"?>
<!-- Generator: Adobe Illustrator 21.0.2, SVG Export Plug-In . SVG Version: 6.00 Build 0)  -->
<svg version="1.1" id="Layer_1" xmlns="http://www.w3.org/2000/svg" xmlns:xlink="http://www.w3.org/1999/xlink" x="0px" y="0px"
	 viewBox="0 0 16 16" style="enable-background:new 0 0 16 16;" xml:space="preserve">
<path d="M6.6,13.6c-3-0.1-4.1-0.1-4.7-0.2c-0.4-0.1-0.8-0.3-1.1-0.6c-0.2-0.2-0.4-0.5-0.5-1c-0.1-0.4-0.2-0.7-0.2-1.5
	C0,8.6,0,7.2,0.1,5.6c0.1-0.9,0.1-1.9,0.8-2.5c0.3-0.3,0.7-0.5,1.1-0.5C2.6,2.5,5.2,2.4,8,2.4c2.8,0,5.4,0.1,6.1,0.2
	c0.5,0.1,1,0.4,1.2,0.7c0.6,0.9,0.6,2.1,0.7,3c0,0.4,0,2.9,0,3.3c-0.1,1.4-0.2,1.9-0.4,2.5c-0.1,0.3-0.2,0.5-0.4,0.7
	c-0.3,0.3-0.7,0.5-1.1,0.6C11.4,13.6,9.2,13.6,6.6,13.6L6.6,13.6z M10.7,7.8C9.2,7.1,7.8,6.3,6.4,5.6v4.5C7.9,9.3,9.5,8.5,10.7,7.8
	L10.7,7.8L10.7,7.8z"/>
</svg>
