<?xml version="1.0" encoding="utf-8"?>
<!-- Generator: Adobe Illustrator 21.0.2, SVG Export Plug-In . SVG Version: 6.00 Build 0)  -->
<svg version="1.1" id="Layer_1" xmlns="http://www.w3.org/2000/svg" xmlns:xlink="http://www.w3.org/1999/xlink" x="0px" y="0px"
	 viewBox="0 0 16 16" style="enable-background:new 0 0 16 16;" xml:space="preserve">
<path d="M14.1,0H1.9C0.9,0,0,0.9,0,1.9v12.2C0,15.1,0.9,16,1.9,16h12.2c1.1,0,1.9-0.9,1.9-1.9V1.9C16,0.9,15.1,0,14.1,0 M12.6,7
	c-0.1,0-0.2,0-0.3,0c-1,0-1.9-0.5-2.4-1.3v4.4c0,1.8-1.5,3.2-3.2,3.2s-3.2-1.5-3.2-3.2s1.5-3.2,3.2-3.2l0,0c0.1,0,0.1,0,0.2,0v1.6
	c-0.1,0-0.1,0-0.2,0C5.8,8.4,5,9.2,5,10.1c0,0.9,0.7,1.7,1.7,1.7c0.9,0,1.7-0.7,1.7-1.6l0-7.5h1.5c0.1,1.4,1.3,2.4,2.6,2.5L12.6,7"
	/>
</svg>
