<?xml version="1.0" encoding="utf-8"?>
<!-- Generator: Adobe Illustrator 21.0.2, SVG Export Plug-In . SVG Version: 6.00 Build 0)  -->
<svg version="1.1" id="Layer_1" xmlns="http://www.w3.org/2000/svg" xmlns:xlink="http://www.w3.org/1999/xlink" x="0px" y="0px"
	 viewBox="0 0 16 16" style="enable-background:new 0 0 16 16;" xml:space="preserve">
<path d="M5.2,1.3L5,1.6L0.2,9.5L0,9.8l0.2,0.3l2.4,4.2l0.2,0.3h10.4l0.2-0.3l2.4-4.2L16,9.8l-0.2-0.3l-4.8-7.9l-0.2-0.3H5.2z
	 M6.6,2.5h3.5l4.1,6.7h-3.5L6.6,2.5z M5.6,3.1L7.4,6l-4.2,6.8l-1.8-3L5.6,3.1z M8.1,7.2l1.3,2H6.8L8.1,7.2z M6.1,10.4h8.1l-1.8,3
	H4.2L6.1,10.4z"/>
</svg>
