<?xml version="1.0" encoding="utf-8"?>
<!-- Generator: Adobe Illustrator 21.0.2, SVG Export Plug-In . SVG Version: 6.00 Build 0)  -->
<svg version="1.1" id="Layer_1" xmlns="http://www.w3.org/2000/svg" xmlns:xlink="http://www.w3.org/1999/xlink" x="0px" y="0px"
	 viewBox="0 0 16 16" style="enable-background:new 0 0 16 16;" xml:space="preserve">
<path d="M8,1.8c-2.1,0-3.8,1.7-3.8,3.8v5.1c0,0.5-0.4,0.8-0.7,0.8s-0.8-0.4-0.8-0.8V8.2H0v2.5c0,1.9,1.5,3.5,3.5,3.5S7,12.7,7,10.7
	V5.6C6.9,5,7.4,4.5,8,4.5S9.1,5,9.1,5.6v1l1,0.5l1.7-0.5v-1C11.8,3.5,10.1,1.8,8,1.8z M13.4,8.2v2.5c0,0.5-0.4,0.8-0.8,0.8
	c-0.5,0-0.8-0.4-0.8-0.8V8.2L10,8.7L9,8.3v2.3c0,1.9,1.5,3.5,3.5,3.5s3.5-1.5,3.5-3.5V8.2H13.4z"/>
</svg>
