<?xml version="1.0" encoding="utf-8"?>
<!-- Generator: Adobe Illustrator 21.0.2, SVG Export Plug-In . SVG Version: 6.00 Build 0)  -->
<svg version="1.1" id="Layer_1" xmlns="http://www.w3.org/2000/svg" xmlns:xlink="http://www.w3.org/1999/xlink" x="0px" y="0px"
	 viewBox="0 0 16 16" style="enable-background:new 0 0 16 16;" xml:space="preserve">
<path d="M8.4,0C5.1,0,1.9,2.2,1.9,5.7c0,2.2,1.3,3.5,2,3.5c0.3,0,0.5-0.9,0.5-1.2c0-0.3-0.8-0.9-0.8-2.2c0-2.6,1.9-4.4,4.4-4.4
	c2.2,0,3.8,1.2,3.8,3.5c0,1.7-0.7,4.9-2.9,4.9c-0.8,0-1.5-0.6-1.5-1.4c0-1.2,0.8-2.4,0.8-3.6c0-2.1-2.9-1.7-2.9,0.8
	c0,0.5,0.1,1.2,0.3,1.6c-0.4,1.9-1.2,4.9-1.2,6.9c0,0.6,0.1,1.2,0.1,1.8C4.7,16,4.7,16,4.9,16c1.6-2.2,1.5-2.8,2.2-5.7
	c0.4,0.8,1.4,1.2,2.2,1.2c3.4,0,4.9-3.3,4.9-6.2C14.1,2.1,11.4,0,8.4,0z"/>
</svg>
