<?xml version="1.0" encoding="utf-8"?>
<!-- Generator: Adobe Illustrator 21.0.2, SVG Export Plug-In . SVG Version: 6.00 Build 0)  -->
<svg version="1.1" id="Layer_1" xmlns="http://www.w3.org/2000/svg" xmlns:xlink="http://www.w3.org/1999/xlink" x="0px" y="0px"
	 viewBox="0 0 16 16" style="enable-background:new 0 0 16 16;" xml:space="preserve">
<path d="M9,0C8.8,0,8.6,0,8.4,0.1c-0.7,0.2-1,1-0.8,1.7l0.6,1.7l-3.1,1L4.5,2.9C4.3,2.2,3.5,1.8,2.8,2S1.8,3,2,3.7l0.5,1.5L0.9,5.8
	c-0.7,0.2-1,1-0.8,1.7s1,1,1.7,0.8l1.7-0.6l1,3.1l-1.6,0.5c-0.7,0.2-1,1-0.8,1.7s1,1.1,1.7,0.9l1.5-0.4l0.6,1.7c0.2,0.7,1,1,1.7,0.8
	s1-1,0.8-1.7l-0.6-1.7l3.1-1l0.5,1.6c0.2,0.7,1,1,1.7,0.8s1.1-1,0.9-1.7l-0.5-1.5l1.7-0.6c0.7-0.2,1-1,0.8-1.7s-1-1-1.7-0.8
	l-1.7,0.6l-1-3.1l1.6-0.5c0.7-0.2,1-1,0.8-1.7s-1-1.2-1.7-0.9l-1.6,0.4l-0.6-1.7C9.9,0.4,9.5,0.1,9,0z M9,5.9L10,9l-3.1,1l-1-3.1
	L9,5.9z"/>
</svg>
