<?xml version="1.0" encoding="utf-8"?>
<!-- Generator: Adobe Illustrator 21.0.2, SVG Export Plug-In . SVG Version: 6.00 Build 0)  -->
<svg version="1.1" id="Layer_1" xmlns="http://www.w3.org/2000/svg" xmlns:xlink="http://www.w3.org/1999/xlink" x="0px" y="0px"
	 viewBox="0 0 16 16" style="enable-background:new 0 0 16 16;" xml:space="preserve">
<path d="M14.8,0.8c-0.2,0-0.4,0.1-0.6,0.1l0,0c-0.2,0.1-1,0.4-2.3,0.9c-1.2,0.6-2.8,1.3-4.4,2C4.2,5.2,0.9,6.5,0.9,6.5H1
	c0,0-0.2,0.1-0.4,0.2C0.4,6.9,0.3,7,0.2,7.1C0.1,7.3,0,7.5,0,7.8c0.1,0.4,0.4,0.7,0.6,0.8S1,8.8,1,8.8l0,0l3,1
	c0.1,0.4,0.9,3,1.1,3.6c0.1,0.4,0.2,0.6,0.4,0.7c0.1,0.1,0.1,0.2,0.2,0.2c0.1,0,0.1,0.1,0.1,0.1s0,0,0.1,0h0l0,0H6
	c0.4,0.2,0.9-0.1,0.9-0.1l0,0l1.8-1.6l3,2.3h0.1c0.6,0.2,1.2,0.1,1.6-0.1c0.3-0.2,0.5-0.6,0.5-0.6v-0.1L16,2.5
	c0.1-0.3,0.1-0.6,0-0.8s-0.3-0.5-0.5-0.6C15.3,0.9,15,0.8,14.8,0.8z M14.8,2.1C14.8,2.2,14.8,2.2,14.8,2.1L14.8,2.1l-2.3,11.8
	c0,0,0,0.1-0.1,0.1c-0.1,0.1-0.1,0.1-0.3,0l-3.6-2.8l-2.2,2l0.5-3c0,0,5.7-5.3,6-5.5S13,4.5,13,4.5c0-0.3-0.4-0.1-0.4-0.1L5,8.9l0,0
	L1.4,7.7l0,0l0,0l0,0l0,0l0,0c0,0,3.2-1.4,6.5-2.7c1.7-0.7,3.3-1.4,4.6-1.9S14.7,2.2,14.8,2.1C14.7,2.1,14.7,2.1,14.8,2.1z"/>
</svg>
