<?xml version="1.0" encoding="utf-8"?>
<!-- Generator: Adobe Illustrator 21.0.2, SVG Export Plug-In . SVG Version: 6.00 Build 0)  -->
<svg version="1.1" id="Layer_1" xmlns="http://www.w3.org/2000/svg" xmlns:xlink="http://www.w3.org/1999/xlink" x="0px" y="0px"
	 viewBox="0 0 16 16" style="enable-background:new 0 0 16 16;" xml:space="preserve">
<path d="M5.4,8.1c0-1.5,1.2-2.7,2.7-2.7s2.7,1.2,2.7,2.7s-1.2,2.7-2.7,2.7S5.4,9.6,5.4,8.1 M4,8.1c0,2.3,1.8,4.1,4.1,4.1
	s4.1-1.8,4.1-4.1S10.4,4,8.1,4S4,5.8,4,8.1 M11.4,3.8c0,0.5,0.4,1,1,1c0.5,0,1-0.4,1-1s-0.4-1-1-1S11.4,3.3,11.4,3.8 M4.9,14.6
	c-0.8,0-1.2-0.2-1.5-0.3C3,14.1,2.8,14,2.5,13.6c-0.3-0.3-0.5-0.5-0.6-0.9c-0.1-0.3-0.2-0.7-0.3-1.5c0-0.8,0-1.1,0-3.2s0-2.4,0-3.2
	s0.2-1.2,0.3-1.5C2,3,2.2,2.8,2.5,2.5S3,2,3.4,1.9c0.3-0.1,0.7-0.3,1.5-0.3s1.1,0,3.2,0s2.4,0,3.2,0c0.8,0,1.2,0.2,1.5,0.3
	c0.4,0.1,0.6,0.3,0.9,0.6s0.5,0.5,0.6,0.9c0.1,0.3,0.2,0.7,0.3,1.5c0,0.8,0,1.1,0,3.2s0,2.4,0,3.2c0,0.8-0.2,1.2-0.3,1.5
	c-0.1,0.4-0.3,0.6-0.6,0.9c-0.3,0.3-0.5,0.5-0.9,0.6c-0.3,0.1-0.7,0.2-1.5,0.3c-0.8,0-1.1,0-3.2,0C6,14.7,5.7,14.7,4.9,14.6
	 M4.8,0.1c-0.9,0-1.4,0.2-1.9,0.4S1.9,1,1.5,1.4C1,1.9,0.7,2.3,0.5,2.9C0.3,3.4,0.2,4,0.1,4.8c0,0.9,0,1.1,0,3.3s0,2.4,0,3.3
	s0.2,1.4,0.4,1.9s0.5,1,0.9,1.4s0.9,0.7,1.4,0.9c0.5,0.2,1.1,0.3,1.9,0.4c0.9,0,1.1,0,3.3,0s2.4,0,3.3,0c0.9,0,1.4-0.2,1.9-0.4
	c0.5-0.2,1-0.5,1.4-0.9s0.7-0.9,0.9-1.4c0.2-0.5,0.3-1.1,0.4-1.9c0-0.9,0-1.1,0-3.3s0-2.4,0-3.3s-0.2-1.4-0.4-1.9
	c-0.2-0.5-0.5-1-0.9-1.4s-0.9-0.7-1.4-0.9s-1.1-0.3-1.9-0.4c-0.8-0.1-1-0.1-3.2-0.1S5.7,0.1,4.8,0.1"/>
</svg>
