<?xml version="1.0" encoding="utf-8"?>
<!-- Generator: Adobe Illustrator 21.0.2, SVG Export Plug-In . SVG Version: 6.00 Build 0)  -->
<svg version="1.1" id="Layer_1" xmlns="http://www.w3.org/2000/svg" xmlns:xlink="http://www.w3.org/1999/xlink" x="0px" y="0px"
	 viewBox="0 0 16 16" style="enable-background:new 0 0 16 16;" xml:space="preserve">
<path d="M8,0C3.6,0,0,3.6,0,8s3.6,8,8,8s8-3.6,8-8S12.4,0,8,0z M8,1.3c1.7,0,3.2,0.7,4.4,1.7c-0.1,0.2-0.3,0.4-0.5,0.7
	C11.3,4.2,10.4,4.9,9,5.4C8,3.6,7.1,2.3,6.5,1.5C6.9,1.4,7.5,1.3,8,1.3z M5.2,1.9C5.7,2.6,6.7,4,7.7,5.8C4.9,6.5,2.5,6.6,1.5,6.6
	C1.9,4.5,3.3,2.8,5.2,1.9z M13.3,4c0.8,1.1,1.3,2.4,1.3,3.9C14,7.8,13.1,7.6,12,7.6c-0.6,0-1.3,0.1-2,0.1C9.8,7.3,9.7,7,9.5,6.6
	C11,6,12,5.3,12.7,4.6C13,4.4,13.1,4.2,13.3,4z M8.3,7c0.1,0.3,0.3,0.6,0.5,0.9C5.9,8.7,3.9,11.1,3,12.3C2,11.2,1.4,9.6,1.4,8V7.9
	C2.3,7.9,5.1,7.9,8.3,7z M12.1,8.9c1.2,0,2,0.2,2.5,0.3c-0.3,1.8-1.3,3.3-2.7,4.3c-0.3-1.6-0.7-3.1-1.2-4.5
	C11.1,8.9,11.6,8.9,12.1,8.9z M9.3,9.2c0.6,1.5,1.1,3.2,1.3,4.9c-0.8,0.3-1.7,0.5-2.6,0.5c-1.5,0-2.9-0.5-4.1-1.4
	C4.6,12.3,6.7,9.9,9.3,9.2z"/>
</svg>
