<?xml version="1.0" encoding="utf-8"?>
<!-- Generator: Adobe Illustrator 21.0.2, SVG Export Plug-In . SVG Version: 6.00 Build 0)  -->
<svg version="1.1" id="Layer_1" xmlns="http://www.w3.org/2000/svg" xmlns:xlink="http://www.w3.org/1999/xlink" x="0px" y="0px"
	 viewBox="0 0 16 16" style="enable-background:new 0 0 16 16;" xml:space="preserve">
<path d="M13.7,2.3C12.2,0.8,10.2,0,8,0C3.6,0,0,3.6,0,8c0,1.4,0.4,2.8,1,4l-1,4l4.2-1c1.2,0.6,2.5,1,3.8,1l0,0c4.4,0,8-3.6,8-8
	C16,5.8,15.2,3.8,13.7,2.3z M11.9,10.9c-0.2,0.5-1,0.9-1.4,1c-0.4,0-0.7,0.2-2.4-0.5c-2-0.8-3.3-2.9-3.4-3C4.6,8.2,3.9,7.2,3.9,6.2
	s0.5-1.4,0.7-1.7C4.8,4.3,5,4.3,5.2,4.3s0.2,0,0.4,0s0.3,0,0.5,0.3C6.3,5,6.7,6,6.7,6.1s0.1,0.2,0,0.3C6.6,6.6,6.6,6.7,6.5,6.8
	C6.3,7,6.2,7,6.2,7.2C6.1,7.3,5.9,7.4,6.1,7.6C6.2,7.8,6.6,8.5,7.2,9C8,9.7,8.6,9.9,8.8,10c0.2,0.1,0.3,0.1,0.4-0.1
	c0.1-0.2,0.5-0.6,0.6-0.8C10,8.9,10,8.9,10.3,9c0.2,0.1,1.2,0.6,1.4,0.6c0.2,0.1,0.3,0.2,0.4,0.2C12.1,10,12.1,10.4,11.9,10.9z"/>
</svg>
