<?xml version="1.0" encoding="utf-8"?>
<!-- Generator: Adobe Illustrator 21.0.2, SVG Export Plug-In . SVG Version: 6.00 Build 0)  -->
<svg version="1.1" id="Layer_1" xmlns="http://www.w3.org/2000/svg" xmlns:xlink="http://www.w3.org/1999/xlink" x="0px" y="0px"
	 viewBox="0 0 16 16" style="enable-background:new 0 0 16 16;" xml:space="preserve">
<path d="M7.8,0C6.6,0,3.6,0.2,2,1.7c-1.1,1-1.5,2.7-1.6,4.7c-0.1,3.1,0.6,5,1.7,6.1c0.3,0.2,0.9,0.7,2.1,1v1.6c0,0,0,0.7,0.4,0.8
	c0.1,0,0.1,0.1,0.2,0.1c0.4,0,0.7-0.5,1.1-0.9c0.4-0.5,0.7-0.8,0.9-1h0.9h0.5c1.2,0,4.2-0.1,5.8-1.6c1.1-1.1,1.6-2.8,1.6-4.9
	c0.1-0.3,0.1-0.7,0.1-1c-0.1-2.4-0.8-3.9-1.7-4.9c-0.4-0.3-2-1.5-5.6-1.5H7.8V0z M7.7,1.2h0.5h0.1h0.1c3.3,0,4.7,1,4.8,1.2
	c0.8,0.7,1.2,2,1.2,3.9v0.2c0.1,0.4,0.1,0.7,0.1,0.9c-0.1,1.9-0.5,3.1-1.2,4c-1.3,1.2-4.1,1.2-4.9,1.2H7.8H7.7l0,0H7.1l-1,1.1
	l-0.7,0.7l-0.1,0.2C5.1,14.8,5,15,4.8,15.1V15v-2.8C3.5,12,3,11.5,2.9,11.4c-0.9-0.8-1.4-2.6-1.2-5V5.7c0.2-1.5,0.6-2.5,1.1-3.2
	C4.1,1.3,7,1.2,7.7,1.2z M7.6,2.7c-0.3,0-0.3,0.5,0,0.5C10,3.1,12,4.8,12,7.7c0,0.3,0.5,0.3,0.5,0C12.5,4.4,10.3,2.6,7.6,2.7z
	 M5.1,3.2c-0.2,0-0.3,0-0.5,0.1C4,3.6,3.4,4.3,3.6,5c0,0,0.1,0.6,0.9,1.8c0.4,0.6,0.7,1,1,1.4c0.3,0.5,0.9,1,1.3,1.3
	c1,0.9,2.6,1.6,3.3,1.8c0.7,0.2,1.3-0.5,1.6-1c0.1-0.3,0.1-0.6-0.2-0.8c-0.4-0.4-1-0.9-1.4-1c-0.4-0.2-0.8-0.1-1,0.1L9,9
	C8.9,9.1,8.5,9.1,8.5,9.1C6.4,8.6,5.8,6.5,5.8,6.5S5.8,6.2,6,6l0.4-0.3c0.2-0.2,0.4-0.6,0.2-0.9C6.4,4.7,6.2,4.3,6,4.1
	C5.8,3.8,5.4,3.4,5.4,3.4C5.4,3.3,5.2,3.2,5.1,3.2z M8.1,3.9C7.7,3.8,7.7,4.4,8,4.4c1.8,0.1,2.8,1.3,2.8,2.9c-0.1,0.3,0.5,0.3,0.5,0
	C11.2,5.4,10.1,4,8.1,3.9z M8.3,5.1C8,5,8,5.6,8.3,5.6c0.8,0,1.1,0.5,1.1,1.2c0.1,0.3,0.5,0.3,0.5,0C9.8,5.7,9.2,5.1,8.3,5.1z"/>
</svg>
