<svg fill="#000000" xmlns="http://www.w3.org/2000/svg" viewBox="0 0 16 16" width="16px" height="16px"><path d="M 7.5 1 C 3.914063 1 1 3.914063 1 7.5 C 1 9.757813 2.15625 11.75 3.910156 12.917969 L 4.035156 13 L 10.964844 13 L 11.089844 12.917969 C 12.84375 11.75 14 9.757813 14 7.5 C 14 3.914063 11.085938 1 7.5 1 Z M 7.5 2 C 10.542969 2 13 4.457031 13 7.5 C 13 9.375 12.046875 11.007813 10.613281 12 L 4.382813 12 C 2.953125 11.007813 2 9.375 2 7.5 C 2 4.457031 4.457031 2 7.5 2 Z M 7.5 3 C 7.222656 3 7 3.222656 7 3.5 C 7 3.777344 7.222656 4 7.5 4 C 7.777344 4 8 3.777344 8 3.5 C 8 3.222656 7.777344 3 7.5 3 Z M 10.488281 3.996094 C 10.359375 4 10.238281 4.054688 10.144531 4.148438 L 7.148438 7.148438 C 7.015625 7.273438 6.964844 7.457031 7.007813 7.632813 C 7.054688 7.808594 7.191406 7.945313 7.367188 7.992188 C 7.542969 8.035156 7.726563 7.984375 7.851563 7.851563 L 10.855469 4.851563 C 11 4.710938 11.042969 4.492188 10.964844 4.300781 C 10.882813 4.113281 10.695313 3.992188 10.488281 3.996094 Z M 4.5 4 C 4.222656 4 4 4.222656 4 4.5 C 4 4.777344 4.222656 5 4.5 5 C 4.777344 5 5 4.777344 5 4.5 C 5 4.222656 4.777344 4 4.5 4 Z M 3.5 7 C 3.222656 7 3 7.222656 3 7.5 C 3 7.777344 3.222656 8 3.5 8 C 3.777344 8 4 7.777344 4 7.5 C 4 7.222656 3.777344 7 3.5 7 Z M 11.5 7 C 11.222656 7 11 7.222656 11 7.5 C 11 7.777344 11.222656 8 11.5 8 C 11.777344 8 12 7.777344 12 7.5 C 12 7.222656 11.777344 7 11.5 7 Z M 4.5 10 C 4.222656 10 4 10.222656 4 10.5 C 4 10.777344 4.222656 11 4.5 11 C 4.777344 11 5 10.777344 5 10.5 C 5 10.222656 4.777344 10 4.5 10 Z M 10.5 10 C 10.222656 10 10 10.222656 10 10.5 C 10 10.777344 10.222656 11 10.5 11 C 10.777344 11 11 10.777344 11 10.5 C 11 10.222656 10.777344 10 10.5 10 Z"/></svg>