<svg fill="#000000" xmlns="http://www.w3.org/2000/svg" viewBox="0 0 16 16" width="16px" height="16px"><path d="M 6.5 2 C 5.675781 2 5 2.675781 5 3.5 L 5 5 L 2.5 5 C 1.675781 5 1 5.675781 1 6.5 L 1 14 L 11 14 L 11 11 L 15 11 L 15 3.5 C 15 2.675781 14.324219 2 13.5 2 Z M 6.5 3 L 13.5 3 C 13.78125 3 14 3.21875 14 3.5 L 14 4 L 6 4 L 6 3.5 C 6 3.21875 6.21875 3 6.5 3 Z M 6 5 L 14 5 L 14 10 L 6 10 Z M 2.5 6 L 5 6 L 5 7 L 2 7 L 2 6.5 C 2 6.21875 2.21875 6 2.5 6 Z M 7 6 L 7 7 L 8 7 L 8 6 Z M 9 6 L 9 7 L 13 7 L 13 6 Z M 2 8 L 5 8 L 5 11 L 10 11 L 10 13 L 2 13 Z M 7 8 L 7 9 L 8 9 L 8 8 Z M 9 8 L 9 9 L 13 9 L 13 8 Z"/></svg>