<svg fill="#000000" xmlns="http://www.w3.org/2000/svg" viewBox="0 0 16 16" width="16px" height="16px"><path d="M 2.5 2 C 1.675781 2 1 2.675781 1 3.5 L 1 13 L 14 13 L 14 3.5 C 14 2.675781 13.324219 2 12.5 2 Z M 2.5 3 L 6.5 3 C 6.78125 3 7 3.21875 7 3.5 L 7 5 L 12.5 5 C 12.78125 5 13 5.21875 13 5.5 L 13 12 L 2 12 L 2 3.5 C 2 3.429688 2.015625 3.363281 2.039063 3.304688 C 2.113281 3.121094 2.289063 3 2.5 3 Z M 7.90625 3 L 12.5 3 C 12.710938 3 12.886719 3.121094 12.960938 3.304688 C 12.984375 3.363281 13 3.429688 13 3.5 L 13 4.09375 C 12.933594 4.070313 12.871094 4.046875 12.800781 4.03125 C 12.703125 4.011719 12.601563 4 12.5 4 L 8 4 L 8 3.5 C 8 3.324219 7.960938 3.15625 7.90625 3 Z"/></svg>