<?xml version="1.0" encoding="utf-8"?>
<!-- Generator: Adobe Illustrator 21.0.2, SVG Export Plug-In . SVG Version: 6.00 Build 0)  -->
<svg version="1.1" id="Layer_1" xmlns="http://www.w3.org/2000/svg" xmlns:xlink="http://www.w3.org/1999/xlink" x="0px" y="0px"
	 viewBox="0 0 16 16" style="enable-background:new 0 0 16 16;" xml:space="preserve">
<style type="text/css">
	.st0{fill:#B9C1CB;}
</style>
<path class="st0" d="M10.3,8c0,1.2-1,2.3-2.3,2.3S5.8,9.2,5.8,8s1-2.3,2.3-2.3S10.3,6.8,10.3,8z M13.5,5.8c-1.2,0-2.3,1-2.3,2.3
	s1,2.3,2.3,2.3s2.3-1,2.3-2.3S14.7,5.8,13.5,5.8z M2.5,5.8c-1.2,0-2.3,1-2.3,2.3s1,2.3,2.3,2.3s2.3-1,2.3-2.3S3.7,5.8,2.5,5.8z"/>
</svg>
