<svg fill="#000000" xmlns="http://www.w3.org/2000/svg" viewBox="0 0 16 16" width="16px" height="16px"><path d="M 2.5 2 C 1.6774686 2 1 2.6774686 1 3.5 L 1 11.5 C 1 12.322531 1.6774686 13 2.5 13 L 13.5 13 C 14.322531 13 15 12.322531 15 11.5 L 15 3.5 C 15 2.6774686 14.322531 2 13.5 2 L 2.5 2 z M 2.5 3 L 4 3 L 4 12 L 2.5 12 C 2.2185314 12 2 11.781469 2 11.5 L 2 3.5 C 2 3.2185314 2.2185314 3 2.5 3 z M 5 3 L 11 3 L 11 12 L 5 12 L 5 3 z M 12 3 L 13.5 3 C 13.781469 3 14 3.2185314 14 3.5 L 14 11.5 C 14 11.781469 13.781469 12 13.5 12 L 12 12 L 12 3 z"/></svg>