<?xml version="1.0" encoding="utf-8"?>
<!-- Generator: Adobe Illustrator 21.0.2, SVG Export Plug-In . SVG Version: 6.00 Build 0)  -->
<svg version="1.1" id="Layer_1" xmlns="http://www.w3.org/2000/svg" xmlns:xlink="http://www.w3.org/1999/xlink" x="0px" y="0px"
	 viewBox="0 0 16 16" style="enable-background:new 0 0 16 16;" xml:space="preserve">
<path d="M12.8,3L12.8,3l0.1,0c0.5,0,0.7,0.2,0.8,0.3C13.9,3.5,14,4,14,4.7c0,0.8-0.5,2.3-2.6,5c-2.2,2.9-3.5,3.3-4,3.3
	c-0.2,0-0.7-0.4-1.1-1.6l-0.6-2L5.1,7.4C4.7,6.2,4.3,4.9,3.3,4.5c0.1-0.1,0.3-0.2,0.4-0.3c1.1-0.9,1.5-1,1.5-1c0,0,0.1,0,0.1,0
	c0.2,0,0.6,0,0.8,1.4c0.3,1.8,0.5,2.8,0.6,3.2c0.3,1.5,0.8,2.9,2,2.9c0.8,0,1.5-0.7,2.2-1.8c0.7-1.1,1-1.9,1.1-2.5
	c0.1-0.7-0.1-1.3-0.5-1.7c-0.2-0.2-0.5-0.4-0.9-0.5C11.3,3.1,12.2,3,12.8,3 M12.8,2C10.9,2,9.7,3.1,9,5.3C9.4,5.1,9.7,5,10.1,5
	c0.7,0,1,0.4,0.9,1.2c0,0.5-0.4,1.2-0.9,2.1C9.5,9.2,9,9.7,8.7,9.7C8.4,9.7,8,9,7.7,7.6C7.6,7.2,7.4,6.1,7.1,4.4
	C6.9,2.9,6.3,2.2,5.3,2.2c-0.1,0-0.1,0-0.2,0C4.7,2.2,4,2.6,3,3.4C2.4,4,1.7,4.6,1,5.2l0.7,0.8c0.6-0.4,1-0.7,1.1-0.7
	c0.5,0,0.9,0.7,1.3,2.2c0.4,1.4,0.8,2.7,1.1,4.1C5.8,13.3,6.5,14,7.3,14c1.3,0,2.9-1.2,4.8-3.7C14,8,14.9,6.1,15,4.8
	C15.1,3,14.4,2,13,2C12.9,2,12.9,2,12.8,2L12.8,2z"/>
</svg>
