<svg fill="#000000" xmlns="http://www.w3.org/2000/svg" viewBox="0 0 16 16" width="16px" height="16px"><path d="M 2.5 2 C 1.6774686 2 1 2.6774686 1 3.5 L 1 9.5 C 1 10.322531 1.6774686 11 2.5 11 L 3 11 L 3 10 L 2.5 10 C 2.2185314 10 2 9.7814686 2 9.5 L 2 3.5 C 2 3.2185314 2.2185314 3 2.5 3 L 10.5 3 C 10.781469 3 11 3.2185314 11 3.5 L 11 4 L 12 4 L 12 3.5 C 12 2.6774686 11.322531 2 10.5 2 L 2.5 2 z M 5.5 5 C 4.6774686 5 4 5.6774686 4 6.5 L 4 12.5 C 4 13.322531 4.6774686 14 5.5 14 L 13.5 14 C 14.322531 14 15 13.322531 15 12.5 L 15 6.5 C 15 5.6774686 14.322531 5 13.5 5 L 5.5 5 z M 5.5 6 L 13.5 6 C 13.781469 6 14 6.2185314 14 6.5 L 14 12.5 C 14 12.781469 13.781469 13 13.5 13 L 5.5 13 C 5.2185314 13 5 12.781469 5 12.5 L 5 6.5 C 5 6.2185314 5.2185314 6 5.5 6 z"/></svg>