<?xml version="1.0" encoding="utf-8"?>
<!-- Generator: Adobe Illustrator 21.0.2, SVG Export Plug-In . SVG Version: 6.00 Build 0)  -->
<svg version="1.1" id="Layer_1" xmlns="http://www.w3.org/2000/svg" xmlns:xlink="http://www.w3.org/1999/xlink" x="0px" y="0px"
	 viewBox="0 0 33 24.6" style="enable-background:new 0 0 33 24.6;" xml:space="preserve">
<style type="text/css">
	.st0{fill:#1174A7;}
</style>
<path class="st0" d="M23.6,24.6c-0.7-0.1-1.3-0.6-1.9-0.7c-0.8-0.3-1.7-0.3-2.6-0.5c-0.5,0-0.8,0-1.3,0c-2.1,0-3.6,0.6-5.6,0.5
	c-0.7-1-1.4-0.8-1.7-2.4h0.1v-0.1c1.5-0.1,6.1-2,6.8-2.9l-1.1-0.1c-0.4,0.4-1.4,0.5-1.9,0.6c-2.8,1.1-5.6,1.6-8.2,0.3
	c-0.6-0.4-1.3-0.6-1.8-0.9c-2.6-1.8-5.5-6.2-3.9-11.1c0.6-1.4,1.2-2.6,2-3.6c2-2.7,7.6-4.9,12-2.9C16.6,1.6,18,4,19.6,5.2
	c0.9,0.7,5.1,3.4,6.8,2.1c-1.3,0-2.8-1.7-3.2-2.5c0.8-0.2,0.3-0.3,1-0.4c0.6-0.1,1.4,0,1.7,0.1c0.6,0.1,1,0,1.6,0.2
	c2,0.6,3.6,1.7,4.6,3.4c0.3,0.6,0.6,1.3,0.7,1.8c0.4,1.3,0.1,3-0.3,4c-1.1,2.9-3.5,5-7.5,5c0,0.1,0,0.1,0,0.2
	c-0.4,0.6-0.4,1.4-0.6,2C24.2,22.2,23.7,23.4,23.6,24.6z"/>
</svg>
